<?xml version="1.0" encoding="utf-8"?>
<!-- Generator: Adobe Illustrator 18.0.0, SVG Export Plug-In . SVG Version: 6.00 Build 0)  -->
<!DOCTYPE svg PUBLIC "-//W3C//DTD SVG 1.1//EN" "http://www.w3.org/Graphics/SVG/1.1/DTD/svg11.dtd">
<svg version="1.1" id="图层_1" xmlns="http://www.w3.org/2000/svg" xmlns:xlink="http://www.w3.org/1999/xlink" x="0px" y="0px"
	 viewBox="0 0 40 40" enable-background="new 0 0 40 40" xml:space="preserve">
<g>
	<path fill="#808080" d="M20.2,34.7C12,34.7,5.4,28.1,5.4,20S12,5.3,20.2,5.3S35.1,11.9,35.1,20S28.4,34.7,20.2,34.7z M20.2,7.9
		C13.5,7.9,8,13.3,8,20s5.5,12.1,12.2,12.1S32.4,26.7,32.4,20S27,7.9,20.2,7.9z"/>
	<path fill="#808080" d="M20.2,12.2c-0.7,0-1.3-0.6-1.3-1.3V2.3c0-0.7,0.6-1.3,1.3-1.3c0.7,0,1.3,0.6,1.3,1.3v8.6
		C21.5,11.6,20.9,12.2,20.2,12.2z"/>
	<path fill="#808080" d="M20.2,39c-0.7,0-1.3-0.6-1.3-1.3v-8.6c0-0.7,0.6-1.3,1.3-1.3c0.7,0,1.3,0.6,1.3,1.3v8.6
		C21.5,38.4,20.9,39,20.2,39z"/>
	<path fill="#808080" d="M37.7,21.3H29c-0.7,0-1.3-0.6-1.3-1.3s0.6-1.3,1.3-1.3h8.7c0.7,0,1.3,0.6,1.3,1.3S38.4,21.3,37.7,21.3z"/>
	<path fill="#808080" d="M11,21.3H2.3C1.6,21.3,1,20.7,1,20s0.6-1.3,1.3-1.3H11c0.7,0,1.3,0.6,1.3,1.3S11.8,21.3,11,21.3z"/>
	<ellipse fill="#808080" cx="20.2" cy="20" rx="4.9" ry="4.9"/>
</g>
</svg>
