<?xml version="1.0" encoding="utf-8"?>
<!-- Generator: Adobe Illustrator 18.0.0, SVG Export Plug-In . SVG Version: 6.00 Build 0)  -->
<!DOCTYPE svg PUBLIC "-//W3C//DTD SVG 1.1//EN" "http://www.w3.org/Graphics/SVG/1.1/DTD/svg11.dtd">
<svg version="1.1" id="图层_1" xmlns="http://www.w3.org/2000/svg" xmlns:xlink="http://www.w3.org/1999/xlink" x="0px" y="0px"
	 viewBox="250 0 500 500" enable-background="new 250 0 500 500" xml:space="preserve">
<rect x="250" fill="none" width="500" height="500"/>
<g>
	<path fill="#CCCCCC" d="M669.4,427.8h-13.9v19.4c0,11.1-8.3,19.4-19.4,19.4s-19.4-8.3-19.4-19.4v-19.4H380.6v19.4
		c0,11.1-8.3,19.4-19.4,19.4s-19.4-8.3-19.4-19.4v-19.4h-11.1c-22.2,0-38.9-16.7-38.9-36.1V72.2c0-19.4,16.7-36.1,38.9-36.1h341.7
		c22.2,0,38.9,16.7,38.9,36.1v319.4C708.3,411.1,691.7,427.8,669.4,427.8L669.4,427.8z M683.3,83.3c0-13.9-11.1-25-25-25H341.7
		c-13.9,0-25,11.1-25,25v122.2h366.7V83.3L683.3,83.3z M683.3,230.6H316.7v147.2c0,13.9,11.1,25,25,25h316.7c13.9,0,25-11.1,25-25
		L683.3,230.6L683.3,230.6z M625,330.6c-11.1,0-19.4-8.3-19.4-19.4s8.3-19.4,19.4-19.4s19.4,8.3,19.4,19.4S636.1,330.6,625,330.6
		L625,330.6z M375,330.6c-11.1,0-19.4-8.3-19.4-19.4s8.3-19.4,19.4-19.4s19.4,8.3,19.4,19.4C391.7,322.2,383.3,330.6,375,330.6
		L375,330.6z"/>
</g>
</svg>
