<?xml version="1.0" encoding="utf-8"?>
<!-- Generator: Adobe Illustrator 18.0.0, SVG Export Plug-In . SVG Version: 6.00 Build 0)  -->
<!DOCTYPE svg PUBLIC "-//W3C//DTD SVG 1.1//EN" "http://www.w3.org/Graphics/SVG/1.1/DTD/svg11.dtd">
<svg version="1.1" id="图层_1" xmlns="http://www.w3.org/2000/svg" xmlns:xlink="http://www.w3.org/1999/xlink" x="0px" y="0px"
	 viewBox="0 0 19 18" enable-background="new 0 0 19 18" xml:space="preserve">
<rect x="0.5" fill="none" width="18" height="18"/>
<g>
	<path fill="#4D4D4D" d="M16.9,7.9l-0.8-4c-0.3-1.5-1.8-2.6-3.2-2.6H6.2c-1.5,0-2.9,1.2-3.2,2.6l-0.8,4c-0.9,0.4-1.6,1.3-1.7,2.3
		l-0.2,2.6c-0.1,1.1,0.5,2.1,1.5,2.5c0.2,0.9,1,1.5,1.9,1.5c0.9,0,1.6-0.5,1.9-1.3h7.8c0.3,0.8,1,1.3,1.9,1.3c0.9,0,1.7-0.6,1.9-1.5
		c1-0.4,1.6-1.4,1.5-2.5l-0.2-2.6C18.5,9.2,17.8,8.3,16.9,7.9L16.9,7.9z M17,14.5c-0.3,0.1-0.4,0.3-0.5,0.6c0,0.5-0.4,0.8-0.9,0.9
		c-0.8,0.2-1.4-0.2-1.4-0.7c0-0.3-0.2-0.5-0.5-0.5l-8.4,0c-0.3,0-0.6,0.2-0.6,0.5c-0.1,0.9-1,0.8-1.4,0.8c-0.5-0.1-0.9-0.5-0.9-1
		c0-0.3-0.2-0.5-0.5-0.6c-0.7-0.2-1.1-0.8-1.1-1.5l0.2-2.7C1.2,9.7,1.7,9,2.4,8.8c0.2-0.1,0.4-0.3,0.4-0.5c0,0,0-0.1,0-0.1
		c0,0,0,0,0-0.1l0.9-4.3C4,2.9,5,2,6,2h7c1,0,2,0.8,2.3,1.8l0.9,4.3c0,0,0,0,0,0.1c0,0,0,0.1,0,0.1c0,0.2,0.2,0.4,0.4,0.5
		c0.7,0.2,1.2,0.8,1.3,1.5l0.2,2.7C18.1,13.8,17.7,14.4,17,14.5L17,14.5z M13.4,11.6c0-0.6,0.5-1.1,1.1-1.1c0.6,0,1.1,0.5,1.1,1.1
		s-0.5,1.1-1.1,1.1C13.9,12.7,13.4,12.2,13.4,11.6L13.4,11.6z M5.1,8.4h8.7c0.2,0,0.4-0.1,0.5-0.2c0.1-0.1,0.2-0.3,0.1-0.5
		c0,0,0,0,0,0l-0.7-3c-0.1-0.5-0.6-0.9-1-0.9H6.2c-0.5,0-0.9,0.4-1,0.9l-0.7,3c0,0,0,0,0,0c0,0.2,0,0.4,0.1,0.5
		C4.8,8.3,4.9,8.4,5.1,8.4L5.1,8.4z M6,4.6H13l0.6,2.8H5.4L6,4.6L6,4.6z M3.4,11.6c0-0.6,0.5-1.1,1.1-1.1c0.6,0,1.1,0.5,1.1,1.1
		c0,0.6-0.5,1.1-1.1,1.1C3.9,12.7,3.4,12.2,3.4,11.6L3.4,11.6z M3.4,11.6"/>
</g>
</svg>
