<?xml version="1.0" encoding="utf-8"?>
<!-- Generator: Adobe Illustrator 18.0.0, SVG Export Plug-In . SVG Version: 6.00 Build 0)  -->
<!DOCTYPE svg PUBLIC "-//W3C//DTD SVG 1.1//EN" "http://www.w3.org/Graphics/SVG/1.1/DTD/svg11.dtd">
<svg version="1.1" id="图层_1" xmlns="http://www.w3.org/2000/svg" xmlns:xlink="http://www.w3.org/1999/xlink" x="0px" y="0px"
	 viewBox="0 0 160 160" enable-background="new 0 0 160 160" xml:space="preserve">
<rect x="4.2" y="4.2" fill="none" width="151.6" height="151.6"/>
<g>
	<path fill="#CCCCCC" d="M142.3,70.7l-6.7-33.7c-2.5-12.6-15.2-21.9-26.9-21.9H52.2c-12.6,0-24.4,10.1-26.9,21.9l-6.7,33.7
		C10.9,74.1,5.1,81.7,4.2,90.1L2.5,112c-0.8,9.3,4.2,17.7,12.6,21.1c1.7,7.6,8.4,12.6,16,12.6s13.5-4.2,16-10.9h65.7
		c2.5,6.7,8.4,10.9,16,10.9c7.6,0,14.3-5.1,16-12.6c8.4-3.4,13.5-11.8,12.6-21.1l-1.7-21.9C155.8,81.7,149.9,74.1,142.3,70.7
		L142.3,70.7z M143.2,126.3c-2.5,0.8-3.4,2.5-4.2,5.1c0,4.2-3.4,6.7-7.6,7.6c-6.7,1.7-11.8-1.7-11.8-5.9c0-2.5-1.7-4.2-4.2-4.2H44.6
		c-2.5,0-5.1,1.7-5.1,4.2c-0.8,7.6-8.4,6.7-11.8,6.7c-4.2-0.8-7.6-4.2-7.6-8.4c0-2.5-1.7-4.2-4.2-5.1c-5.9-1.7-9.3-6.7-9.3-12.6
		l1.7-22.7c1.7-5.1,5.9-10.9,11.8-12.6c1.7-0.8,3.4-2.5,3.4-4.2v-0.8c0,0,0,0,0-0.8l7.6-36.2c2.5-7.6,10.9-15.2,19.4-15.2h58.9
		c8.4,0,16.8,6.7,19.4,15.2l7.6,36.2c0,0,0,0,0,0.8v0.8c0,1.7,1.7,3.4,3.4,4.2c5.9,1.7,10.1,6.7,10.9,12.6l1.7,22.7
		C152.4,120.4,149.1,125.5,143.2,126.3L143.2,126.3z M112.8,101.9c0-5.1,4.2-9.3,9.3-9.3s9.3,4.2,9.3,9.3s-4.2,9.3-9.3,9.3
		C117.1,111.2,112.8,106.9,112.8,101.9L112.8,101.9z M42.9,74.9h73.3c1.7,0,3.4-0.8,4.2-1.7c0.8-0.8,1.7-2.5,0.8-4.2l0,0l-5.9-25.3
		c-0.8-4.2-5.1-7.6-8.4-7.6H52.2c-4.2,0-7.6,3.4-8.4,7.6l-5.9,25.3l0,0c0,1.7,0,3.4,0.8,4.2C40.4,74.1,41.3,74.9,42.9,74.9
		L42.9,74.9z M50.5,42.9h58.9l5.1,23.6H45.5L50.5,42.9L50.5,42.9z M28.6,101.9c0-5.1,4.2-9.3,9.3-9.3s9.3,4.2,9.3,9.3
		s-4.2,9.3-9.3,9.3C32.8,111.2,28.6,106.9,28.6,101.9L28.6,101.9z"/>
</g>
</svg>
