<?xml version="1.0" encoding="utf-8"?>
<!-- Generator: Adobe Illustrator 18.0.0, SVG Export Plug-In . SVG Version: 6.00 Build 0)  -->
<!DOCTYPE svg PUBLIC "-//W3C//DTD SVG 1.1//EN" "http://www.w3.org/Graphics/SVG/1.1/DTD/svg11.dtd">
<svg version="1.1" id="图层_1" xmlns="http://www.w3.org/2000/svg" xmlns:xlink="http://www.w3.org/1999/xlink" x="0px" y="0px"
	 viewBox="0 0 120 120" enable-background="new 0 0 120 120" xml:space="preserve">
<g>
	<g>
		<path fill="#FEA201" d="M100.9,23.2l3,3.1l-53.5,55l-9.7,1.1v1.4h-2.4v-2.5h1.4l1.1-10l53.5-55l3,3.1L100.9,23.2L100.9,23.2z
			 M103.9,7.6l-6.1,5l9.7,10l4.9-6.3L103.9,7.6L103.9,7.6z M89,112.4H25.7c-10,0-18.2-8.4-18.2-18.7V28.7C7.6,18.4,15.7,10,25.7,10
			h54.3c1.8,0,3.2,1.5,3.2,3.3c0,1.8-1.4,3.3-3.2,3.3H25.7c-6.5,0-11.7,5.4-11.7,12v65.1c0,6.6,5.3,12,11.7,12H89
			c6.5,0,11.7-5.4,11.7-12V38.6c0-1.8,1.4-3.3,3.2-3.3c1.8,0,3.2,1.5,3.2,3.3v55.1C107.2,104,99,112.4,89,112.4L89,112.4z M89,112.4
			"/>
	</g>
</g>
</svg>
