<?xml version="1.0" encoding="utf-8"?>
<!-- Generator: Adobe Illustrator 18.0.0, SVG Export Plug-In . SVG Version: 6.00 Build 0)  -->
<!DOCTYPE svg PUBLIC "-//W3C//DTD SVG 1.1//EN" "http://www.w3.org/Graphics/SVG/1.1/DTD/svg11.dtd">
<svg version="1.1" id="图层_1" xmlns="http://www.w3.org/2000/svg" xmlns:xlink="http://www.w3.org/1999/xlink" x="0px" y="0px"
	 viewBox="20 20 80 80" enable-background="new 20 20 80 80" xml:space="preserve">
<rect x="20" y="20" fill="none" width="80" height="80"/>
<g>
	<linearGradient id="SVGID_1_" gradientUnits="userSpaceOnUse" x1="60" y1="38.4713" x2="60" y2="87.9611">
		<stop  offset="0" style="stop-color:#4EB3FE"/>
		<stop  offset="0.17" style="stop-color:#4CA9FB"/>
		<stop  offset="0.4613" style="stop-color:#468DF3"/>
		<stop  offset="0.8364" style="stop-color:#3E61E5"/>
		<stop  offset="0.9749" style="stop-color:#3A4FE0"/>
	</linearGradient>
	<path fill="url(#SVGID_1_)" d="M47.1,70.5l12.1,12.9c0.4,0.4,1.1,0.4,1.6,0l12.1-12.8c4-3.8,6.6-8.8,6.6-14.6
		c0-10.9-8.7-19.7-19.5-19.7c-10.8,0-19.5,8.7-19.5,19.6c0,5.9,2.6,10.9,6.7,14.7L47.1,70.5L47.1,70.5z"/>
	<ellipse fill="#FFFFFF" cx="60" cy="55" rx="14.5" ry="14.7"/>
	<g>
		<path fill="#272636" d="M63.6,60.8h-7.8V48.2h7.8v1.4h2.2v-1.4v0v-2.1H53.7v2.2v12.6v0V63h12.1v-2.1v0v-1.4h-2.2V60.8z M70.6,53.4
			h-4.3v-3l-4.1,4.1l4.1,4.1v-3h4.3V53.4z M70.6,53.4"/>
	</g>
</g>
</svg>
