<?xml version="1.0" encoding="utf-8"?>
<!-- Generator: Adobe Illustrator 18.0.0, SVG Export Plug-In . SVG Version: 6.00 Build 0)  -->
<!DOCTYPE svg PUBLIC "-//W3C//DTD SVG 1.1//EN" "http://www.w3.org/Graphics/SVG/1.1/DTD/svg11.dtd">
<svg version="1.1" id="图层_1" xmlns="http://www.w3.org/2000/svg" xmlns:xlink="http://www.w3.org/1999/xlink" x="0px" y="0px"
	 viewBox="0 0 14 14" enable-background="new 0 0 14 14" xml:space="preserve">
<g>
	<path fill="#CCCCCC" d="M7,0.1C3.2,0.1,0.1,3.2,0.1,7c0,3.8,3.1,6.9,6.9,6.9c3.8,0,6.9-3.1,6.9-6.9C13.9,3.2,10.8,0.1,7,0.1L7,0.1z
		 M10.4,9.6l-0.9,0.9L7,7.9l-2.6,2.6L3.6,9.6L6.1,7L3.6,4.4l0.9-0.9L7,6.1l2.6-2.6l0.9,0.9L7.9,7L10.4,9.6L10.4,9.6z M10.4,9.6"/>
</g>
<rect fill="none" width="14" height="14"/>
</svg>
