<?xml version="1.0" encoding="utf-8"?>
<!-- Generator: Adobe Illustrator 18.0.0, SVG Export Plug-In . SVG Version: 6.00 Build 0)  -->
<!DOCTYPE svg PUBLIC "-//W3C//DTD SVG 1.1//EN" "http://www.w3.org/Graphics/SVG/1.1/DTD/svg11.dtd">
<svg version="1.1" id="图层_1" xmlns="http://www.w3.org/2000/svg" xmlns:xlink="http://www.w3.org/1999/xlink" x="0px" y="0px"
	 viewBox="0 0 40 40" enable-background="new 0 0 40 40" xml:space="preserve">
<g>
	<path fill="#0093FE" d="M21.4,13.2c0.8,0.2,1.2,1,1,1.8c-0.2,0.8-1,1.2-1.8,1c-0.8-0.2-1.2-1-1-1.8C19.8,13.5,20.6,13,21.4,13.2
		L21.4,13.2z M18.2,19.7C18,19,18.4,18.3,19,18.2l1.1-0.3c0.2-0.1,0.4-0.1,0.6-0.1c0,0,0,0,0,0c0,0,0.1,0,0.1,0c0,0,0,0,0.1,0
		c0,0,0,0,0.1,0c0.1,0,0.1,0,0.2,0.1c0,0,0.1,0,0.1,0c0,0,0.1,0,0.1,0.1c0,0,0.1,0.1,0.1,0.1c0,0,0,0,0.1,0.1c0,0.1,0.1,0.1,0.1,0.2
		c0,0,0,0,0,0c0,0.1,0.1,0.1,0.1,0.2l0,0c0,0,0,0.1,0,0.1c0.1,0.3,0,0.5,0,0.8l-1.3,4.7c0.3,0.1,0.6,0.4,0.7,0.8
		c0.2,0.7-0.2,1.3-0.9,1.5l-1.2,0.3c-0.5,0.1-0.9,0-1.2-0.4c0,0,0,0,0-0.1c0,0,0,0-0.1-0.1c-0.2-0.3-0.3-0.7-0.2-1l1.3-4.8
		C18.5,20.4,18.3,20.1,18.2,19.7L18.2,19.7z M32.6,23.4c-0.3,1.2-0.8,2.3-1.4,3.4l0,0c-0.2,0.4-0.6,0.6-1.1,0.6
		c-0.7,0-1.2-0.6-1.2-1.2c0-0.2,0.1-0.5,0.2-0.7l0,0c0.5-0.8,0.9-1.7,1.2-2.7c1.5-5.6-1.8-11.4-7.4-12.9c-5.6-1.5-11.4,1.8-12.9,7.4
		c-1.5,5.6,1.8,11.4,7.4,12.9c2.9,0.8,5.8,0.3,8.1-1.1c0.2-0.1,0.4-0.2,0.7-0.2c0.7,0,1.2,0.6,1.2,1.2c0,0.5-0.2,0.8-0.6,1.1l0,0
		c-2.9,1.8-6.5,2.4-10.1,1.5c-6.9-1.9-11-9-9.2-15.9c1.9-6.9,9-11,15.9-9.2C30.3,9.3,34.4,16.4,32.6,23.4L32.6,23.4z M32.6,23.4"/>
</g>
</svg>
