<?xml version="1.0" encoding="utf-8"?>
<!-- Generator: Adobe Illustrator 18.0.0, SVG Export Plug-In . SVG Version: 6.00 Build 0)  -->
<!DOCTYPE svg PUBLIC "-//W3C//DTD SVG 1.1//EN" "http://www.w3.org/Graphics/SVG/1.1/DTD/svg11.dtd">
<svg version="1.1" id="图层_1" xmlns="http://www.w3.org/2000/svg" xmlns:xlink="http://www.w3.org/1999/xlink" x="0px" y="0px"
	 viewBox="0 0 60 120" enable-background="new 0 0 60 120" xml:space="preserve">
<g>
	<path fill="#663C20" d="M30,9C15.9,9,4.5,20.4,4.5,34.5C4.5,48.6,15.9,60,30,60c14.1,0,25.5-11.4,25.5-25.5C55.5,20.4,44.1,9,30,9
		L30,9z M33.9,49.2h-9.1v-2.3h9.1V49.2L33.9,49.2z M32.6,35.5v2.3h-6.9v-2.3H32.6L32.6,35.5z M25.8,32.5v-2.3h6.9v2.3H25.8
		L25.8,32.5z M41.3,48.9c-0.3,0.1-0.7,0.3-1.2,0.3c-0.7,0-1.6-0.3-2.6-1.1c-3.1-2.7-3.6-18.2-3.7-22.3c-2.2-1.2-3.7-3.1-4.6-4.9
		c-0.9,1.9-2.4,3.8-4.6,4.9c-0.1,4.1-0.6,19.6-3.7,22.3c-1,0.9-1.9,1.1-2.6,1.1c-0.5,0-0.9-0.1-1.2-0.3c-2-0.9-3-3.9-3-6.3l2.3,0
		c0,1.8,0.8,3.8,1.7,4.2c0.1,0.1,0.5,0.2,1.4-0.5c1.7-1.5,2.7-12.1,2.9-19.8c-0.7,0.2-1.5,0.3-2.3,0.3v-2.3c6.9,0,7.9-7,7.9-7.3
		l1.3,0.1l1.3-0.1c0,0.3,1,7.3,7.8,7.3v2.3c-0.8,0-1.5-0.1-2.2-0.3c0.2,7.7,1.2,18.3,2.9,19.8c0.8,0.7,1.2,0.6,1.4,0.5
		c0.9-0.4,1.7-2.4,1.7-4.2l2.3,0C44.3,45,43.3,48,41.3,48.9L41.3,48.9z M41.3,48.9"/>
</g>
<rect x="0.5" y="30.5" fill="none" width="59" height="59"/>
<rect x="0" y="0" fill="none" width="60" height="120"/>
</svg>
