<?xml version="1.0" encoding="utf-8"?>
<!-- Generator: Adobe Illustrator 18.0.0, SVG Export Plug-In . SVG Version: 6.00 Build 0)  -->
<!DOCTYPE svg PUBLIC "-//W3C//DTD SVG 1.1//EN" "http://www.w3.org/Graphics/SVG/1.1/DTD/svg11.dtd">
<svg version="1.1" id="图层_1" xmlns="http://www.w3.org/2000/svg" xmlns:xlink="http://www.w3.org/1999/xlink" x="0px" y="0px"
	 viewBox="20 20 80 80" enable-background="new 20 20 80 80" xml:space="preserve">
<g>
	<linearGradient id="SVGID_1_" gradientUnits="userSpaceOnUse" x1="60" y1="34.6452" x2="60" y2="83.2513">
		<stop  offset="0" style="stop-color:#4EB3FE"/>
		<stop  offset="0.3653" style="stop-color:#49A9F6"/>
		<stop  offset="0.9893" style="stop-color:#3A8EE0"/>
		<stop  offset="1" style="stop-color:#3A8DE0"/>
	</linearGradient>
	<path fill="url(#SVGID_1_)" d="M47.1,66.1l12.1,12.6c0.4,0.4,1.1,0.4,1.6,0l12.1-12.6c4-3.7,6.6-8.6,6.6-14.4
		c0-10.7-8.7-19.3-19.5-19.3c-10.8,0-19.5,8.6-19.5,19.3c0,5.8,2.6,10.7,6.7,14.4L47.1,66.1L47.1,66.1z"/>
	<linearGradient id="SVGID_2_" gradientUnits="userSpaceOnUse" x1="44.875" y1="83.7512" x2="75.1251" y2="83.7512">
		<stop  offset="0" style="stop-color:#4E9CFE"/>
		<stop  offset="0.248" style="stop-color:#4696F2"/>
		<stop  offset="0.6418" style="stop-color:#3D8FE4"/>
		<stop  offset="1" style="stop-color:#3A8DE0"/>
	</linearGradient>
	<path fill="url(#SVGID_2_)" d="M75.1,83.9c0,2-1.6,3.6-3.7,3.6H48.5c-2,0-3.7-1.6-3.7-3.6v-0.2c0-2,1.6-3.6,3.7-3.6h22.9
		c2,0,3.7,1.6,3.7,3.6V83.9L75.1,83.9z"/>
	<path fill="#272636" d="M75.1,83.9"/>
	<ellipse fill="#FFFFFF" cx="60" cy="50.9" rx="14.5" ry="14.4"/>
	<g>
		<path fill="#7000B2" d="M67.8,58c-0.9,0-1.6-0.8-1.9-1.3c1.8-1.7,2.8-4.2,2.8-6.8c0-5.3-4.4-9.7-9.7-9.7s-9.7,4.3-9.7,9.7
			s4.4,9.7,9.7,9.7c1.8,0,3.4-0.5,4.9-1.3c0.9,1.3,3,1.8,3,1.8h2.8V58C69.8,58,69.3,58,67.8,58L67.8,58z M53.8,52.4
			c-1.5,0-2.6-1.2-2.6-2.6c0-1.5,1.2-2.6,2.6-2.6c1.5,0,2.6,1.2,2.6,2.6C56.4,51.2,55.3,52.4,53.8,52.4L53.8,52.4z M59.1,57.7
			c-1.5,0-2.6-1.2-2.6-2.6c0-1.5,1.2-2.6,2.6-2.6c1.5,0,2.6,1.2,2.6,2.6S60.6,57.7,59.1,57.7L59.1,57.7z M57.7,49.8
			c0-0.8,0.6-1.4,1.4-1.4c0.8,0,1.4,0.6,1.4,1.4s-0.6,1.4-1.4,1.4C58.4,51.2,57.7,50.6,57.7,49.8L57.7,49.8z M59.1,46.9
			c-1.5,0-2.6-1.2-2.6-2.6c0-1.5,1.2-2.6,2.6-2.6c1.5,0,2.6,1.2,2.6,2.6C61.8,45.8,60.6,46.9,59.1,46.9L59.1,46.9z M62,49.8
			c0-1.5,1.2-2.6,2.6-2.6c1.5,0,2.6,1.2,2.6,2.6c0,1.5-1.2,2.6-2.6,2.6C63.2,52.4,62,51.2,62,49.8L62,49.8z"/>
	</g>
</g>
<rect x="20" y="20" fill="none" width="80" height="80"/>
</svg>
