<?xml version="1.0" encoding="utf-8"?>
<!-- Generator: Adobe Illustrator 18.0.0, SVG Export Plug-In . SVG Version: 6.00 Build 0)  -->
<!DOCTYPE svg PUBLIC "-//W3C//DTD SVG 1.1//EN" "http://www.w3.org/Graphics/SVG/1.1/DTD/svg11.dtd">
<svg version="1.1" id="图层_1" xmlns="http://www.w3.org/2000/svg" xmlns:xlink="http://www.w3.org/1999/xlink" x="0px" y="0px"
	 viewBox="20 20 80 80" enable-background="new 20 20 80 80" xml:space="preserve">
<rect x="20" y="20" fill="none" width="80" height="80"/>
<g>
	<linearGradient id="SVGID_1_" gradientUnits="userSpaceOnUse" x1="60" y1="38.4713" x2="60" y2="87.9611">
		<stop  offset="0" style="stop-color:#4EB3FE"/>
		<stop  offset="0.17" style="stop-color:#4CA9FB"/>
		<stop  offset="0.4613" style="stop-color:#468DF3"/>
		<stop  offset="0.8364" style="stop-color:#3E61E5"/>
		<stop  offset="0.9749" style="stop-color:#3A4FE0"/>
	</linearGradient>
	<path fill="url(#SVGID_1_)" d="M47.1,70.5l12.1,12.9c0.4,0.4,1.1,0.4,1.6,0l12.1-12.8c4-3.8,6.6-8.8,6.6-14.6
		c0-10.9-8.7-19.7-19.5-19.7c-10.8,0-19.5,8.7-19.5,19.6c0,5.9,2.6,10.9,6.7,14.7L47.1,70.5L47.1,70.5z"/>
	<ellipse fill="#FFFFFF" cx="60" cy="55" rx="14.5" ry="14.7"/>
	<g>
		<path fill="#A8A8AD" d="M68.3,62c-0.9,0-1.6-0.8-1.9-1.3c1.8-1.7,2.8-4.2,2.8-6.8c0-5.3-4.4-9.7-9.7-9.7c-5.4,0-9.7,4.3-9.7,9.7
			s4.4,9.7,9.7,9.7c1.8,0,3.4-0.5,4.9-1.3c0.9,1.3,3,1.8,3,1.8h2.8V62C70.3,62,69.8,62,68.3,62L68.3,62z M54.3,56.5
			c-1.5,0-2.6-1.2-2.6-2.6c0-1.5,1.2-2.6,2.6-2.6c1.5,0,2.6,1.2,2.6,2.6C56.9,55.3,55.8,56.5,54.3,56.5L54.3,56.5z M59.6,61.8
			c-1.5,0-2.6-1.2-2.6-2.6c0-1.5,1.2-2.6,2.6-2.6c1.5,0,2.6,1.2,2.6,2.6S61,61.8,59.6,61.8L59.6,61.8z M58.2,53.8
			c0-0.8,0.6-1.4,1.4-1.4c0.8,0,1.4,0.6,1.4,1.4c0,0.8-0.6,1.4-1.4,1.4C58.8,55.2,58.2,54.6,58.2,53.8L58.2,53.8z M59.6,51
			c-1.5,0-2.6-1.2-2.6-2.6c0-1.5,1.2-2.6,2.6-2.6c1.5,0,2.6,1.2,2.6,2.6C62.2,49.8,61,51,59.6,51L59.6,51z M62.4,53.8
			c0-1.5,1.2-2.6,2.6-2.6c1.5,0,2.6,1.2,2.6,2.6c0,1.5-1.2,2.6-2.6,2.6C63.6,56.5,62.4,55.3,62.4,53.8L62.4,53.8z"/>
	</g>
</g>
</svg>
