<?xml version="1.0" encoding="utf-8"?>
<!-- Generator: Adobe Illustrator 18.0.0, SVG Export Plug-In . SVG Version: 6.00 Build 0)  -->
<!DOCTYPE svg PUBLIC "-//W3C//DTD SVG 1.1//EN" "http://www.w3.org/Graphics/SVG/1.1/DTD/svg11.dtd">
<svg version="1.1" id="图层_1" xmlns="http://www.w3.org/2000/svg" xmlns:xlink="http://www.w3.org/1999/xlink" x="0px" y="0px"
	 viewBox="0 0 40 40" enable-background="new 0 0 40 40" xml:space="preserve">
<g>
	<path fill="#0093FE" d="M31.9,15c-0.2,2.9-0.1,5.7-0.1,5.7L24.5,21c0,0,0.5-1-0.5-2.9C22,14,19.7,8.8,24.5,7.5
		c3.5-0.8,6.6-0.9,7.3,3.5C32.1,12.4,32,13.7,31.9,15L31.9,15L31.9,15z M15.5,27.4l-7.3-0.2c0,0,0.1-2.8-0.1-5.7
		c-0.1-1.3-0.2-2.7,0.1-4.1c0.8-4.4,3.9-4.3,7.4-3.5c4.8,1.3,2.5,6.5,0.4,10.6C15,26.4,15.5,27.4,15.5,27.4L15.5,27.4L15.5,27.4z
		 M14.7,32.4c-1.9,0.7-5.8,1.8-6.7-3.8h7.5C15.6,28.6,16.7,31.8,14.7,32.4L14.7,32.4L14.7,32.4z M31.9,22.2
		c-0.9,5.6-4.7,4.5-6.6,3.8c-1.9-0.7-0.9-3.8-0.9-3.8H31.9L31.9,22.2z M31.9,22.2"/>
</g>
</svg>
