<?xml version="1.0" encoding="utf-8"?>
<!-- Generator: Adobe Illustrator 18.0.0, SVG Export Plug-In . SVG Version: 6.00 Build 0)  -->
<!DOCTYPE svg PUBLIC "-//W3C//DTD SVG 1.1//EN" "http://www.w3.org/Graphics/SVG/1.1/DTD/svg11.dtd">
<svg version="1.1" id="图层_1" xmlns="http://www.w3.org/2000/svg" xmlns:xlink="http://www.w3.org/1999/xlink" x="0px" y="0px"
	 viewBox="0 0 17 16" enable-background="new 0 0 17 16" xml:space="preserve">
<g>
	
		<image overflow="visible" opacity="0.3" width="17" height="16" xlink:href="3369BEB0.png"  transform="matrix(1 0 0 1 -0.1667 0.8333)">
	</image>
	<g>
		<g>
			<path fill="#0093FE" d="M10.7,14.2c-1.5-0.1-2.9,0-2.9,0l-0.1-3.7c0,0,0.5,0.3,1.5-0.2c2.1-1,4.7-2.2,5.3,0.2
				c0.4,1.7,0.5,3.3-1.8,3.7C12.1,14.3,11.4,14.2,10.7,14.2L10.7,14.2L10.7,14.2z M4.5,5.9l0.1-3.7c0,0,1.4,0,2.9,0
				c0.7,0,1.3-0.1,2.1,0c2.2,0.4,2.2,2,1.8,3.7C10.7,8.4,8.1,7.2,6,6.2C5,5.7,4.5,5.9,4.5,5.9L4.5,5.9L4.5,5.9z M2,5.6
				c-0.3-1-0.9-2.9,1.9-3.4V6C3.9,6,2.3,6.5,2,5.6L2,5.6L2,5.6z M7.1,14.2c-2.8-0.4-2.3-2.4-1.9-3.3c0.3-1,1.9-0.4,1.9-0.4V14.2
				L7.1,14.2z M7.1,14.2"/>
		</g>
	</g>
</g>
</svg>
