<?xml version="1.0" encoding="utf-8"?>
<!-- Generator: Adobe Illustrator 18.0.0, SVG Export Plug-In . SVG Version: 6.00 Build 0)  -->
<!DOCTYPE svg PUBLIC "-//W3C//DTD SVG 1.1//EN" "http://www.w3.org/Graphics/SVG/1.1/DTD/svg11.dtd">
<svg version="1.1" id="图层_1" xmlns="http://www.w3.org/2000/svg" xmlns:xlink="http://www.w3.org/1999/xlink" x="0px" y="0px"
	 viewBox="0 0 22 21.6" enable-background="new 0 0 22 21.6" xml:space="preserve">
<g>
	<path fill="#CCCCCC" stroke="#CCCCCC" stroke-width="0.5" stroke-miterlimit="10" d="M19.1,12.5c-0.2,0.8-0.5,1.5-1,2.2
		c-0.1,0.2-0.4,0.3-0.6,0.1c-0.2-0.1-0.3-0.4-0.1-0.6c0.4-0.6,0.7-1.3,0.9-2c0.5-2,0.3-4-0.8-5.8c-1-1.8-2.7-3-4.6-3.6
		c-2-0.5-4-0.3-5.8,0.8c-1.8,1-3,2.7-3.6,4.6c-1.1,4.1,1.3,8.3,5.4,9.4c2,0.5,4.2,0.2,6-0.9c0.2-0.1,0.5-0.1,0.6,0.1
		c0.1,0.2,0.1,0.5-0.1,0.6c-1.4,0.8-2.9,1.3-4.4,1.3c-0.7,0-1.5-0.1-2.2-0.3c-4.5-1.2-7.2-5.9-6-10.4c0.6-2.2,2-4,4-5.2
		c2-1.1,4.3-1.4,6.5-0.8C17.7,3.3,20.4,8,19.1,12.5L19.1,12.5L19.1,12.5z M10.9,10.7c-0.2,0-0.4-0.2-0.4-0.4V5.2
		c0-0.2,0.2-0.4,0.4-0.4c0.2,0,0.4,0.2,0.4,0.4v5.1C11.4,10.6,11.2,10.7,10.9,10.7L10.9,10.7L10.9,10.7z M15.2,10.7h-4.2
		c-0.2,0-0.4-0.2-0.4-0.4c0-0.2,0.2-0.4,0.4-0.4h4.2c0.2,0,0.4,0.2,0.4,0.4C15.6,10.6,15.4,10.7,15.2,10.7L15.2,10.7L15.2,10.7z
		 M15.2,10.7"/>
</g>
</svg>
