<?xml version="1.0" encoding="utf-8"?>
<!-- Generator: Adobe Illustrator 18.0.0, SVG Export Plug-In . SVG Version: 6.00 Build 0)  -->
<!DOCTYPE svg PUBLIC "-//W3C//DTD SVG 1.1//EN" "http://www.w3.org/Graphics/SVG/1.1/DTD/svg11.dtd">
<svg version="1.1" id="图层_1" xmlns="http://www.w3.org/2000/svg" xmlns:xlink="http://www.w3.org/1999/xlink" x="0px" y="0px"
	 viewBox="0 0 40 40" enable-background="new 0 0 40 40" xml:space="preserve">
<g>
	<path fill="#0093FE" d="M11.4,24.7C11.4,24.7,11.4,24.8,11.4,24.7L11.4,24.7L11.4,24.7z M20,5C13.6,5,8.5,10.3,8.5,16.8
		c0,3,1.1,5.8,2.9,7.9l7.5,9.7c0.6,0.8,1.5,0.8,2.1,0l7.4-9.7c1.9-2.1,3-4.8,3-7.9C31.5,10.3,26.4,5,20,5L20,5z M20,22.8
		c-3.2,0-5.8-2.7-5.8-5.9c0-3.3,2.6-5.9,5.8-5.9c3.2,0,5.8,2.7,5.8,5.9C25.8,20.1,23.2,22.8,20,22.8L20,22.8z M20,22.8"/>
</g>
</svg>
