<?xml version="1.0" encoding="utf-8"?>
<!-- Generator: Adobe Illustrator 18.0.0, SVG Export Plug-In . SVG Version: 6.00 Build 0)  -->
<!DOCTYPE svg PUBLIC "-//W3C//DTD SVG 1.1//EN" "http://www.w3.org/Graphics/SVG/1.1/DTD/svg11.dtd">
<svg version="1.1" id="图层_1" xmlns="http://www.w3.org/2000/svg" xmlns:xlink="http://www.w3.org/1999/xlink" x="0px" y="0px"
	 viewBox="20 20 80 80" enable-background="new 20 20 80 80" xml:space="preserve">
<rect x="20" y="20" fill="none" width="80" height="80"/>
<g>
	<linearGradient id="SVGID_1_" gradientUnits="userSpaceOnUse" x1="60" y1="38.4713" x2="60" y2="87.9611">
		<stop  offset="0" style="stop-color:#4EB3FE"/>
		<stop  offset="0.17" style="stop-color:#4CA9FB"/>
		<stop  offset="0.4613" style="stop-color:#468DF3"/>
		<stop  offset="0.8364" style="stop-color:#3E61E5"/>
		<stop  offset="0.9749" style="stop-color:#3A4FE0"/>
	</linearGradient>
	<path fill="url(#SVGID_1_)" d="M47.1,70.5l12.1,12.9c0.4,0.4,1.1,0.4,1.6,0l12.1-12.8c4-3.8,6.6-8.8,6.6-14.6
		c0-10.9-8.7-19.7-19.5-19.7c-10.8,0-19.5,8.7-19.5,19.6c0,5.9,2.6,10.9,6.7,14.7L47.1,70.5L47.1,70.5z"/>
	<ellipse fill="#FFFFFF" cx="60" cy="55" rx="14.5" ry="14.7"/>
	<g>
		<path fill="#272636" d="M63.5,46.6c0.1-0.6-0.4-1.1-1-1.2c-0.6-0.1-1.1,0.4-1.2,0.9c-0.1,0.6,0.4,1.1,1,1.2
			C62.9,47.6,63.4,47.2,63.5,46.6L63.5,46.6z M49.1,55.6c0,1.7,1.4,3.1,3.1,3.1c0.8,0,1.5-0.3,2.1-0.8l10.4,5.3
			c0.2,0.1,0.4,0.2,0.6,0.2c0.3,0.1,0.7,0.2,1.1,0.2c1.7,0,3.1-1.4,3.1-3.1c0-1.7-1.4-3.1-3.1-3.1c-0.8,0-1.6,0.3-2.2,0.9l-1.9-1
			l0.1-0.9c0,0,0.1-1.8-1.3-3.7l0.1-0.5l0.4-1.4c0,0,0.4-0.3,0.5,0c0,0-0.1,0.4,0.8,1l1,0.5c0,0,0.6,0.3,0.7,0c0,0,0.3-0.4,0-0.6
			L63.6,51c0,0-1-0.8-0.9-1.8c0,0-0.1-1-1-1.5c0,0-0.4-0.4-1-0.3L58,48.4c0,0-0.4,0.2-0.4,0.4c0,0.3-0.3,2.4-0.3,2.4
			s-0.1,0.5,0.2,0.5c0,0,0.6-0.1,0.6-0.3l0.2-1.8c0,0,0.1-0.1,0.5-0.4l0.5-0.3c0,0,0.5-0.3,0.4,0.1c0,0-1,1.1-1,1.9l-0.2,1.9
			l-1.1,1.9l-3.4-1.7c-0.2-0.1-0.5-0.3-0.7-0.4c-0.6-0.3-1.3-0.3-1.9,0C50,53.1,49.1,54.2,49.1,55.6L49.1,55.6z M58.6,55.5l0.6-0.9
			c0,0,0.4-0.8,0.7-0.5l1,1.3c0,0,0.1,0.4,0.1,1.2L58.6,55.5L58.6,55.5z M58.6,55.5"/>
	</g>
</g>
</svg>
