<?xml version="1.0" encoding="utf-8"?>
<!-- Generator: Adobe Illustrator 18.0.0, SVG Export Plug-In . SVG Version: 6.00 Build 0)  -->
<!DOCTYPE svg PUBLIC "-//W3C//DTD SVG 1.1//EN" "http://www.w3.org/Graphics/SVG/1.1/DTD/svg11.dtd">
<svg version="1.1" id="图层_1" xmlns="http://www.w3.org/2000/svg" xmlns:xlink="http://www.w3.org/1999/xlink" x="0px" y="0px"
	 viewBox="20 20 80 80" enable-background="new 20 20 80 80" xml:space="preserve">
<g>
	<linearGradient id="SVGID_1_" gradientUnits="userSpaceOnUse" x1="60" y1="36.8463" x2="60" y2="86.3361">
		<stop  offset="0" style="stop-color:#FF3F4F"/>
		<stop  offset="0.1806" style="stop-color:#F53849"/>
		<stop  offset="0.4901" style="stop-color:#D9233A"/>
		<stop  offset="0.8888" style="stop-color:#AD0322"/>
		<stop  offset="0.9232" style="stop-color:#A90020"/>
	</linearGradient>
	<path fill="url(#SVGID_1_)" d="M47.1,70.5l12.1,12.9c0.4,0.4,1.1,0.4,1.6,0l12.1-12.8c4-3.8,6.6-8.8,6.6-14.6
		c0-10.9-8.7-19.7-19.5-19.7c-10.8,0-19.5,8.7-19.5,19.6c0,5.9,2.6,10.9,6.7,14.7L47.1,70.5L47.1,70.5z"/>
	<ellipse fill="#FFFFFF" cx="60" cy="55" rx="14.5" ry="14.7"/>
</g>
<rect x="20" y="20" fill="none" width="80" height="80"/>
<ellipse fill="#FFFFFF" cx="60" cy="55" rx="14.5" ry="14.7"/>
<g>
	<path fill="#272636" d="M61.2,48.4v1.8H57v1.2h4.2v1.8H57v1.2h10.2v-1.2H63v-1.8h4.2v-1.2H63v-1.8h1.8c1.3,0,1.5-0.4,2.4-0.6V46
		c-1.3,0.5-1.5,1.2-3.6,1.2H57v1.2H61.2L61.2,48.4z M55.2,60.4v-3.6h10.2v3.6h1.8v-4.8H53.4v4.8H55.2L55.2,60.4L55.2,60.4z
		 M60.2,61.2c1.5,1.2,4.3,2.5,8.3,2.8v-1.8c-4.9-0.5-7.4-1.7-7.2-3.6v-1.2h-2.4v1.1c0.3,2-1.6,3.4-6.6,3.8V64
		C56.2,63.9,58.5,62.5,60.2,61.2L60.2,61.2L60.2,61.2z M53.4,50.6v3.8h1.8V49c0.6-0.5,1.5-2,1.8-3l-2.4,0.6c-0.5,1.7-1.4,2.7-3,3.6
		v1.2C52.3,51.1,52.8,50.8,53.4,50.6L53.4,50.6L53.4,50.6z M53.4,50.6"/>
</g>
</svg>
