<?xml version="1.0" encoding="utf-8"?>
<!-- Generator: Adobe Illustrator 18.0.0, SVG Export Plug-In . SVG Version: 6.00 Build 0)  -->
<!DOCTYPE svg PUBLIC "-//W3C//DTD SVG 1.1//EN" "http://www.w3.org/Graphics/SVG/1.1/DTD/svg11.dtd">
<svg version="1.1" id="图层_1" xmlns="http://www.w3.org/2000/svg" xmlns:xlink="http://www.w3.org/1999/xlink" x="0px" y="0px"
	 viewBox="20 20 80 80" enable-background="new 20 20 80 80" xml:space="preserve">
<g>
	<path fill="#272636" d="M36.2,40.7c0-2.5,2.1-4.6,4.6-4.6s4.6,2.1,4.6,4.6c0,2.5-2.1,4.6-4.6,4.6S36.2,43,36.2,40.7 M40.8,46.2
		L40.8,46.2c-3,0-5.7,1.1-7.8,3.2s-3.2,4.8-3,7.6v4.8c0,1.1,0.9,2.3,2.3,2.3c1.1,0,2.3-0.9,2.3-2.3V57c0-1.6,0.5-3,1.6-4.1v10.8l0,0
		v18.8c0,1.1,0.9,2.3,2.3,2.3c1.1,0,2.3-0.9,2.3-2.3V66h1.1v16.5c0,1.1,0.9,2.3,2.3,2.3c1.1,0,2.3-0.9,2.3-2.3V63.7l0,0V52.9
		c0.9,1.1,1.6,2.5,1.6,4.1v5c0,1.1,0.9,2.3,2.3,2.3c1.1,0,2.3-0.9,2.3-2.3v-5C51.6,51.1,46.7,46.2,40.8,46.2 M89.8,61.1
		c-0.2-0.7-0.7-1.4-0.9-2.1c-2.1-5-5.3-12.6-12.8-12.6c-7.6,0-10.8,7.6-12.8,12.6c-0.2,0.7-0.7,1.4-0.9,2.1c-0.5,1.1,0,2.3,1.1,3
		c0.2,0.2,0.7,0.2,0.9,0.2c0.9,0,1.6-0.5,2.1-1.4c0.2-0.7,0.7-1.4,0.9-2.3c1.6-3.9,3-6.9,5.3-8.7l-5.7,14.2
		c-0.9,2.1,0.2,3.7,2.5,3.7h1.8v12.8c0,1.1,0.9,2.3,2.3,2.3c1.1,0,2.3-0.9,2.3-2.3V69.9H77v12.8c0,1.1,0.9,2.3,2.3,2.3
		c1.1,0,2.3-0.9,2.3-2.3V69.9h1.8c2.1,0,3.2-1.6,2.5-3.7L80.2,52c2.1,1.6,3.7,4.8,5.3,8.7c0.2,0.7,0.7,1.6,0.9,2.3
		c0.5,0.9,1.1,1.4,2.1,1.4c0.2,0,0.7,0,0.9-0.2C89.8,63.4,90.3,62.1,89.8,61.1 M76.3,45.1c2.5,0,4.6-2.1,4.6-4.6
		c0-2.5-2.1-4.6-4.6-4.6s-4.6,2.1-4.6,4.6C71.7,43,73.8,45.1,76.3,45.1 M57.3,35c-0.7,0-1.1,0.5-1.1,1.1v47c0,0.7,0.5,1.1,1.1,1.1
		s1.1-0.5,1.1-1.1v-47C58.4,35.5,58,35,57.3,35"/>
</g>
<rect x="20.7" y="20.7" fill="none" width="78.7" height="78.7"/>
</svg>
