<?xml version="1.0" encoding="utf-8"?>
<!-- Generator: Adobe Illustrator 18.0.0, SVG Export Plug-In . SVG Version: 6.00 Build 0)  -->
<!DOCTYPE svg PUBLIC "-//W3C//DTD SVG 1.1//EN" "http://www.w3.org/Graphics/SVG/1.1/DTD/svg11.dtd">
<svg version="1.1" id="图层_1" xmlns="http://www.w3.org/2000/svg" xmlns:xlink="http://www.w3.org/1999/xlink" x="0px" y="0px"
	 viewBox="20 20 80 80" enable-background="new 20 20 80 80" xml:space="preserve">
<g>
	<linearGradient id="SVGID_1_" gradientUnits="userSpaceOnUse" x1="60" y1="36.8463" x2="60" y2="86.3361">
		<stop  offset="0" style="stop-color:#FF3F4F"/>
		<stop  offset="0.1806" style="stop-color:#F53849"/>
		<stop  offset="0.4901" style="stop-color:#D9233A"/>
		<stop  offset="0.8888" style="stop-color:#AD0322"/>
		<stop  offset="0.9232" style="stop-color:#A90020"/>
	</linearGradient>
	<path fill="url(#SVGID_1_)" d="M47.1,70.5l12.1,12.9c0.4,0.4,1.1,0.4,1.6,0l12.1-12.8c4-3.8,6.6-8.8,6.6-14.6
		c0-10.9-8.7-19.7-19.5-19.7c-10.8,0-19.5,8.7-19.5,19.6c0,5.9,2.6,10.9,6.7,14.7L47.1,70.5L47.1,70.5z"/>
	<ellipse fill="#FFFFFF" cx="60" cy="55" rx="14.5" ry="14.7"/>
</g>
<rect x="20" y="20" fill="none" width="80" height="80"/>
<ellipse fill="#FFFFFF" cx="60" cy="55" rx="14.5" ry="14.7"/>
<g>
	<path fill="#272636" d="M63.9,52.1c0.3-0.2,0.5-0.5,0.5-0.9c0-0.6-0.4-1.1-1-1.1c-0.5,0-1,0.5-1,1.1c0,0.4,0.2,0.8,0.5,0.9
		c-0.6,0.3-1.1,1.3-1.2,2.5H65h0C65,53.4,64.5,52.4,63.9,52.1L63.9,52.1z M69.1,50.1h-0.3c-0.4,0-0.7,0.3-0.7,0.7l0,0L67.4,51v-4
		c0-0.4-0.3-0.7-0.6-0.7H53.2c-0.3,0-0.6,0.3-0.6,0.7v4l-0.5-0.2l0,0c0-0.4-0.3-0.7-0.7-0.7H51c-0.4,0-0.7,0.3-0.7,0.7v1.1
		c0,0.4,0.3,0.7,0.7,0.7h0.3c0.4,0,0.7-0.3,0.7-0.7v0l0.5,0.2v9.5c0,0.4,0.3,0.7,0.6,0.7h1V63c0,0.4,0.3,0.7,0.7,0.7h0.5
		c0.4,0,0.7-0.3,0.7-0.7v-0.7h7.7v0.6c0,0.4,0.3,0.7,0.7,0.7H65c0.4,0,0.7-0.3,0.7-0.7v-0.6h1.1c0.3,0,0.6-0.3,0.6-0.7v-9.5l0.6-0.3
		v0c0,0.4,0.3,0.7,0.7,0.7h0.3c0.4,0,0.7-0.3,0.7-0.7v-1.1C69.7,50.4,69.4,50.1,69.1,50.1L69.1,50.1z M55.1,59.6
		c-0.5,0-0.9-0.4-0.9-0.9c0-0.5,0.4-0.9,0.9-0.9c0.5,0,0.9,0.4,0.9,0.9C56.1,59.2,55.7,59.6,55.1,59.6L55.1,59.6z M64.8,59.6
		c-0.5,0-0.9-0.4-0.9-0.9c0-0.5,0.4-0.9,0.9-0.9c0.5,0,0.9,0.4,0.9,0.9C65.7,59.2,65.3,59.6,64.8,59.6L64.8,59.6z M65.7,53.9
		c0,0.4-0.3,0.7-0.6,0.7c0,0,0,0,0,0h-3.5c0,0,0,0,0,0h0c0,0,0,0,0,0h-6.7c-0.4,0-0.7-0.3-0.7-0.7v-5.1c0-0.4,0.3-0.7,0.7-0.7H65
		c0.4,0,0.7,0.3,0.7,0.7V53.9L65.7,53.9z M65.7,53.9"/>
</g>
</svg>
