<?xml version="1.0" encoding="utf-8"?>
<!-- Generator: Adobe Illustrator 18.0.0, SVG Export Plug-In . SVG Version: 6.00 Build 0)  -->
<!DOCTYPE svg PUBLIC "-//W3C//DTD SVG 1.1//EN" "http://www.w3.org/Graphics/SVG/1.1/DTD/svg11.dtd">
<svg version="1.1" id="图层_1" xmlns="http://www.w3.org/2000/svg" xmlns:xlink="http://www.w3.org/1999/xlink" x="0px" y="0px"
	 viewBox="0 0 40 40" enable-background="new 0 0 40 40" xml:space="preserve">
<g>
	<path fill="#0093FE" d="M20,5C11.7,5,5,11.7,5,20c0,8.3,6.7,15,15,15c8.3,0,15-6.7,15-15C35,11.7,28.3,5,20,5L20,5z M28.4,27.8
		c-0.1,0.6-0.2,0.9-0.3,1.1c-0.1,0.1-0.3,0.1-0.6,0.2c-0.3,0.1-0.7,0.2-1.2,0.2c-0.5,0.1-1,0.1-1.6,0.2c-0.6,0.1-1.1,0.1-1.7,0.2
		c-0.6,0.1-1.1,0.1-1.7,0.1c-0.5,0-0.9,0-1.3,0.1c-0.4,0-0.8,0-1.3-0.1c-0.5,0-1.1-0.1-1.7-0.1c-0.6-0.1-1.2-0.1-1.7-0.2
		c-0.6-0.1-1.1-0.1-1.6-0.2c-0.5-0.1-0.9-0.2-1.2-0.2c-0.3-0.1-0.5-0.2-0.6-0.2c-0.1-0.1-0.2-0.5-0.3-1.1c-0.1-0.6,0.4-2.3,0.7-2.6
		c0.3-0.3,0.7-0.5,1.2-0.7c0.5-0.2,0.9-0.3,1.4-0.4c0.5-0.1,0.9-0.3,1.3-0.6c0.3-0.2,0.5-0.4,0.7-0.6c0.2-0.2,0.3-0.3,0.3-0.5
		c0.1-0.2,0.1-0.3,0.1-0.5c0-0.2,0-0.4,0-0.6c0-0.3-0.1-0.6-0.3-0.8c-0.2-0.2-0.4-0.4-0.6-0.6c-0.1-0.1-0.2-0.2-0.3-0.4
		c-0.1-0.2-0.2-0.4-0.2-0.6c-0.1-0.2-0.1-0.4-0.2-0.7c-0.1,0-0.2-0.1-0.3-0.1c-0.1-0.1-0.2-0.2-0.3-0.3c-0.1-0.1-0.2-0.3-0.3-0.6
		c-0.1-0.2-0.1-0.5-0.1-0.7c0-0.2,0.1-0.4,0.1-0.5c0.1-0.2,0.2-0.3,0.3-0.5c0-0.5,0-0.8,0.1-1.3c0.1-0.5,0.2-0.7,0.3-1.2
		c0.1-0.5,0.4-1,0.7-1.4c0.3-0.4,0.6-0.7,0.9-1c0.3-0.3,0.7-0.4,1-0.6c0.3-0.1,0.7-0.2,1-0.3c0.3,0,0.6-0.1,0.9-0.1
		c0.3,0,0.6,0,0.9,0.1c0.3,0.1,0.7,0.1,1,0.3c0.3,0.1,0.7,0.3,1,0.6c0.3,0.3,0.6,0.6,0.9,1c0.3,0.4,0.5,0.9,0.7,1.4
		c0.1,0.5,0.2,0.7,0.3,1.2c0.1,0.6,0.1,0.8,0.1,1.3c0.1,0.1,0.2,0.3,0.3,0.5c0.1,0.1,0.1,0.3,0.1,0.5c0,0.2,0,0.4-0.1,0.7
		c-0.1,0.2-0.2,0.4-0.3,0.6c-0.1,0.1-0.2,0.2-0.3,0.3c-0.1,0.1-0.2,0.1-0.3,0.1c-0.1,0.3-0.1,0.5-0.2,0.7c-0.1,0.2-0.1,0.4-0.2,0.6
		c-0.1,0.2-0.2,0.3-0.3,0.4c-0.2,0.2-0.4,0.4-0.6,0.6c-0.2,0.2-0.3,0.5-0.3,0.8c0,0.2,0,0.4,0,0.6c0,0.2,0,0.4,0.1,0.5
		c0.1,0.2,0.2,0.3,0.3,0.5c0.2,0.2,0.4,0.4,0.7,0.6c0.4,0.3,0.8,0.4,1.3,0.6c0.5,0.1,1,0.3,1.4,0.4c0.5,0.2,0.9,0.4,1.2,0.7
		C28,25.6,28.5,27.3,28.4,27.8L28.4,27.8z M28.4,27.8"/>
</g>
</svg>
