<?xml version="1.0" encoding="utf-8"?>
<!-- Generator: Adobe Illustrator 18.0.0, SVG Export Plug-In . SVG Version: 6.00 Build 0)  -->
<!DOCTYPE svg PUBLIC "-//W3C//DTD SVG 1.1//EN" "http://www.w3.org/Graphics/SVG/1.1/DTD/svg11.dtd">
<svg version="1.1" id="图层_1" xmlns="http://www.w3.org/2000/svg" xmlns:xlink="http://www.w3.org/1999/xlink" x="0px" y="0px"
	 viewBox="20 20 80 80" enable-background="new 20 20 80 80" xml:space="preserve">
<g>
	<path fill="#F7931E" d="M69.8,58.2c2.2,0,4.2-0.9,5.8-2.4l9.1-9.1c0.6-0.6,0.6-1.6,0-2.3c-0.6-0.6-1.6-0.6-2.3,0l-9.1,9.1
		c-0.9,0.9-2.2,1.5-3.5,1.5c-1.3,0-2.6-0.5-3.5-1.5c-1.9-2-1.9-5.1,0-7.1l9.1-9.1c0.6-0.6,0.6-1.6,0-2.3c-0.6-0.6-1.6-0.6-2.3,0
		L64,44.2c-3.2,3.2-3.2,8.4,0,11.6C65.6,57.3,67.6,58.2,69.8,58.2L69.8,58.2L69.8,58.2z M68.7,51.2c0.6,0.6,1.6,0.6,2.3,0l9.1-9.1
		c0.6-0.6,0.6-1.6,0-2.3c-0.6-0.6-1.6-0.6-2.3,0l-9.1,9.1C68,49.4,68,50.4,68.7,51.2L68.7,51.2L68.7,51.2z M35.5,79.4
		c-1.4,1.4-1.4,3.6,0,5s3.6,1.4,5,0l14.9-15l-5-5L35.5,79.4L35.5,79.4L35.5,79.4z M84.4,79.4L40.6,35.6c-1.4-1.4-3.6-1.4-5,0
		c-0.7,0.7-1.1,1.7-1,2.7l0,0v5.3c0,1,0.4,2.1,1.2,2.9l21.9,21.9c1.6,1.6,4.1,1.6,5.7,0l0,0l16.1,16.1c1.4,1.4,3.6,1.4,5,0
		C85.8,83,85.8,80.8,84.4,79.4L84.4,79.4L84.4,79.4z"/>
</g>
<rect x="20.7" y="20.7" fill="none" width="78.7" height="78.7"/>
</svg>
