<?xml version="1.0" encoding="utf-8"?>
<!-- Generator: Adobe Illustrator 18.0.0, SVG Export Plug-In . SVG Version: 6.00 Build 0)  -->
<!DOCTYPE svg PUBLIC "-//W3C//DTD SVG 1.1//EN" "http://www.w3.org/Graphics/SVG/1.1/DTD/svg11.dtd">
<svg version="1.1" id="图层_1" xmlns="http://www.w3.org/2000/svg" xmlns:xlink="http://www.w3.org/1999/xlink" x="0px" y="0px"
	 viewBox="20 20 80 80" enable-background="new 20 20 80 80" xml:space="preserve">
<g>
	<linearGradient id="SVGID_1_" gradientUnits="userSpaceOnUse" x1="60" y1="38.4713" x2="60" y2="87.9611">
		<stop  offset="0" style="stop-color:#70BA32"/>
		<stop  offset="0.1797" style="stop-color:#66B333"/>
		<stop  offset="0.4875" style="stop-color:#4AA136"/>
		<stop  offset="0.884" style="stop-color:#1E833A"/>
		<stop  offset="0.9749" style="stop-color:#137B3B"/>
	</linearGradient>
	<path fill="url(#SVGID_1_)" d="M47.1,70.5l12.1,12.9c0.4,0.4,1.1,0.4,1.6,0l12.1-12.8c4-3.8,6.6-8.8,6.6-14.6
		c0-10.9-8.7-19.7-19.5-19.7c-10.8,0-19.5,8.7-19.5,19.6c0,5.9,2.6,10.9,6.7,14.7L47.1,70.5L47.1,70.5z"/>
	<ellipse fill="#FFFFFF" cx="60" cy="55" rx="14.5" ry="14.7"/>
	<g>
		<polygon fill="#EF8201" points="62.5,56.8 63.1,57.6 63.9,57.9 64.7,57.8 65.7,57.3 66,57.3 66.2,57.8 65.5,59.1 64.8,59.8 
			65.1,61.1 65.2,62.6 65,64.1 64.5,65 63.1,65.6 62.5,65.5 61.7,65.1 61.5,64.5 61.9,63.6 62.3,62.6 62.3,62.2 62.1,62 61.7,61.8 
			61.7,61.2 61.5,60.9 61.3,61 60.7,62.6 60.4,64 60.4,64.8 59.9,65.4 59.3,65.7 58.6,65.8 57.8,65.6 57.1,64.9 57.1,63.8 
			57.4,62.7 57.9,61.7 58.6,61 59.1,60.5 59.6,60.1 59.8,59.9 59.7,59.1 59.4,57.5 		"/>
		<path fill="#F5AB00" d="M65.1,51.7"/>
		<g>
			<polygon fill="#EF8201" points="57.7,57.7 57.3,58.6 57.5,59.5 58.4,59.8 59.1,59.3 59.1,58.7 59.8,58.2 59.6,57.2 58.4,57.3 			
				"/>
			<g>
				<path fill="#F7AA02" d="M57.7,59.5c0,0,0.3,0,0.5-0.2l0.2,0.1l-0.2,0.2l-0.3,0.1L57.7,59.5L57.7,59.5z"/>
				<path fill="#F7AA02" d="M58.3,59.2c0,0,0.2,0,0.2-0.2l0,0.1l-0.1,0.1L58.3,59.2L58.3,59.2z"/>
				<path fill="#F7AA02" d="M58.3,59.6c0,0,0.3,0,0.4-0.2l0,0.2l-0.3,0.2l-0.3,0l0-0.1L58.3,59.6z"/>
				<path fill="#F7AA02" d="M58.9,59.2c0,0,0.1-0.1,0.1-0.2c0-0.1,0.1,0.1,0.1,0.1L59,59.3h-0.2L58.9,59.2z"/>
			</g>
			<g>
				<path fill="#231917" d="M57.9,59.8c-0.1,0-0.2,0-0.3-0.1c-0.5-0.3-0.4-0.9-0.4-1.2c0-0.3,0.3-0.7,0.3-0.7c0,0,0.1,0,0.1,0
					c0,0,0,0.1,0,0.1c0,0-0.2,0.3-0.3,0.6c0,0.3-0.1,0.8,0.3,1c0.1,0.1,0.2,0.1,0.3,0.1c0.2,0,0.3-0.2,0.3-0.2c0,0,0.1-0.1,0.1,0
					c0,0,0.1,0.1,0,0.1c0,0-0.2,0.3-0.4,0.3C58,59.8,57.9,59.8,57.9,59.8z"/>
				<path fill="#231917" d="M58.4,59.9c-0.2,0-0.4-0.1-0.4-0.1c0,0-0.1-0.1,0-0.1c0,0,0.1-0.1,0.1,0c0.1,0,0.3,0.1,0.5,0
					c0.1-0.1,0.1-0.2,0.2-0.3c0-0.2-0.1-0.2-0.1-0.2c0,0-0.1-0.1,0-0.1c0,0,0.1-0.1,0.1,0c0,0,0.2,0.1,0.2,0.4c0,0,0,0,0,0
					c0,0.2-0.1,0.4-0.2,0.5C58.6,59.8,58.5,59.9,58.4,59.9z"/>
				<path fill="#231917" d="M58.9,59.6C58.8,59.6,58.8,59.5,58.9,59.6c-0.1-0.1-0.1-0.2,0-0.2c0,0,0.2-0.1,0.2-0.2
					c0-0.4-0.3-0.4-0.3-0.4c0,0-0.1,0-0.1-0.1c0-0.1,0-0.1,0.1-0.1c0,0,0.2,0,0.3,0.1c0.1,0.1,0.2,0.2,0.2,0.4c0,0,0,0,0,0
					C59.2,59.5,58.9,59.6,58.9,59.6C58.9,59.6,58.9,59.6,58.9,59.6z"/>
				<path fill="#231917" d="M58.4,59.4c-0.2,0-0.2-0.1-0.3-0.3l0-0.1C58.1,59,58,59,58,59c-0.1,0-0.1,0-0.1,0c0,0-0.1,0-0.1,0
					c0,0,0-0.1,0-0.1c0,0,0.1-0.1,0.3,0c0.1,0,0.2,0.1,0.2,0.2l0,0.1c0.1,0.2,0.1,0.2,0.2,0.1c0,0,0.1,0,0.1-0.1
					c0-0.2,0-0.4-0.1-0.6c0,0,0-0.1,0-0.1c0,0,0.1,0,0.1,0c0.1,0.2,0.2,0.5,0.1,0.8c0,0.1-0.1,0.2-0.2,0.2
					C58.5,59.4,58.5,59.4,58.4,59.4z"/>
				<path fill="#231917" d="M59.1,58.9C59.1,58.9,59.1,58.9,59.1,58.9c-0.1,0-0.1-0.1-0.1-0.1c0.1-0.3,0.5-0.6,0.5-0.6
					c0,0,0.1,0,0.1,0c0,0,0,0.1,0,0.1C59.7,58.3,59.3,58.6,59.1,58.9C59.2,58.9,59.2,58.9,59.1,58.9z"/>
			</g>
			<path fill="#EF8201" d="M60.3,47.1c1.5,0,2.6,0.4,3.3,1c0.2,0.2,0.6,0.2,0.8,0.4c0.2,0.2,0.2,0.7,0.3,1c0.4,0.7,0.5,1.5,0.5,2
				c0,1.7-0.7,4.3-4,5.7c-1.5,0.5-2.6,0.6-2.6,0.6s-1.3,0.2-1.8-0.2c-0.3-0.2-0.8-0.1-0.8-0.1s-0.6-0.2-0.7-0.6c0,0-1.4-0.7-0.4-1.9
				c0,0-0.7-1.7-0.6-3.5c0,0-1-1.5-0.1-2.3c0.8-0.6,1.5-0.2,1.5-0.2S56.7,47.2,60.3,47.1z"/>
			<g>
				<path fill="#F5AB00" d="M54.1,50.9c0,0-0.4-1.7,1.5-1.6l0.1-0.3h-0.8l-0.7,0.3l-0.3,0.6l0,0.8L54.1,50.9z"/>
				<path fill="#F5AB00" d="M55.7,49.1c0,0,2.1-1.7,4.4-1.7c0,0,1.3-0.1,2.7,0.7c1,0,0.3-0.3,0.3-0.3l-0.8-0.5l-1.3-0.3l-1.5,0.1
					l-1.6,0.4l-1.1,0.6l-0.5,0.4L55.7,49.1L55.7,49.1z"/>
				<path fill="#F5AB00" d="M60.4,49.4c0,0,1.4-1,2.8-0.9c1.3,0.1,1.5,0.4,1.5,0.4l-0.4-0.5l-0.7-0.4l-1,0.1l-1.2,0.4l-0.8,0.5
					L60.4,49.4z"/>
				<path fill="#F5AB00" d="M65.2,51.7c0,0-0.2,4.5-5.8,5.9v0.1l0.9-0.1l1.3-0.5l1.3-0.8l0.8-0.6l0.7-0.9l0.5-1l0.2-0.8l0.2-0.9
					L65.2,51.7z"/>
				<path fill="#F5AB00" d="M54.7,56.2c0,0,0.3,0.2,0.5,0.4l0.1,0.3V57L55,56.7L54.7,56.2L54.7,56.2z"/>
				<path fill="#F5AB00" d="M55.6,57.2c0,0,0.2,0.2,0.8,0.1s0.8,0.2,1,0.3c0.2,0,0.9,0.4,2-0.2l-0.3,0.3l-0.7,0.2l-0.7,0l-0.6-0.1
					l-0.5-0.2l-0.5-0.1h-0.3l-0.3-0.2L55.6,57.2z"/>
			</g>
			<g>
				<path fill="#241917" d="M62.3,53l0.7-0.6c0,0-0.7-1.5-1.7-1.3c-1.1,0.2-1.4,1.4-1.5,1.6c0,0.2-0.1,1.2,0,1.9
					c0.1,0.7,0.5,1,0.5,1s-0.2,0.1-0.3,0.2c0,0,1-0.4,2.2-0.5c0,0-0.1,0-0.2,0C61.9,55.2,62.6,54.6,62.3,53z"/>
				<path fill="#FFFFFF" d="M60.9,52.1c0,0-0.6,0.1-1.1,1.2c0,0,0,0.5,0,1s0.3,1,0.5,1.2c0,0,0.5-0.3,1.4-0.3c0,0,0.4-0.3,0.5-1.1
					c0.1-0.9-0.1-1.6-0.1-1.6L61.7,52L60.9,52.1z"/>
				<path fill="#241917" d="M59.4,52.2c0,0-0.1,0.5,0.1,1.5c0,0-0.4-0.2-0.2-1.1C59.2,52.6,59.3,52.2,59.4,52.2z"/>
				<g>
					<path fill="#231917" d="M62.3,53.6c0,0.4-0.1,0.8-0.3,1c-0.2,0.3-0.5,0.5-0.7,0.5c-0.3,0-0.5-0.1-0.7-0.3
						c-0.2-0.3-0.3-0.8-0.3-1.2c0-0.9,0.5-1.5,1-1.5S62.3,52.7,62.3,53.6z"/>
					<g>
						<path fill="#76A32E" d="M61,52.2c0,0-1.1,0.5-0.6,2.2c0,0.1,0,0.1,0.1,0.2c0.2,0.6,0.9,0.5,0.9,0.5c0,0,0.1,0,0.2-0.1
							c0.3-0.2,0.7-0.6,0.7-1.7C62.1,51.8,61,52.2,61,52.2z"/>
						<ellipse fill="#231917" cx="61.4" cy="53.3" rx="0.7" ry="1.3"/>
						
							<ellipse transform="matrix(0.9477 0.3192 -0.3192 0.9477 20.0205 -16.6865)" fill="#FFFFFF" cx="60.9" cy="52.7" rx="0.2" ry="0.4"/>
					</g>
				</g>
			</g>
			<g>
				<path fill="#231917" d="M54.2,51.3c0,0,0.2,0.3,0.2,0.3c0.1,0,0.8,1.2,0.9,1.7c0.1,0.6,0.4,1.2,0.2,2c0,0,0.1,0.1,0.1,0.1
					c0,0-0.5-0.4-0.8-0.4l-0.6-1.9l-0.1-1V51.3L54.2,51.3z"/>
				<path fill="#FFFFFF" d="M54.7,52.6c0,0-0.1,0-0.1,0c0,0-0.1,0.1,0,0.6c0.1,0.5,0.4,1.5,0.5,1.8c0,0,0.3,0,0.5,0.2
					c0,0,0.1-0.1,0-0.2c0,0-0.1,0.1-0.3-0.1c-0.2-0.2-0.4-0.8-0.5-0.9c-0.1-0.2-0.2-0.7-0.2-1.1C54.6,52.6,54.7,52.6,54.7,52.6"/>
				<path fill="#76A32E" d="M54.8,52.6l0.1,0.1c0,0-0.1,0.1-0.1,0.7c0.1,0.6,0.4,1,0.4,1s0.2,0.3,0.3-0.1l0,0c0,0,0,0.4,0,0.5
					c0,0.1-0.1,0.1-0.2-0.1s-0.4-0.9-0.5-1.3C54.7,53.1,54.7,52.9,54.8,52.6z"/>
				
					<ellipse transform="matrix(0.9859 -0.1671 0.1671 0.9859 -8.119 9.9224)" fill="#FFFFFF" cx="54.9" cy="53.2" rx="0.1" ry="0.2"/>
			</g>
			<path fill="#23191A" d="M56.1,56C56.1,56,56.1,55.9,56.1,56c0.2,0,0.2,0.2,0.2,0.2s0,0.1-0.1,0C56.1,56.1,56.1,56,56.1,56z"/>
			<path fill="#23191A" d="M56.6,56C56.6,56,56.6,56,56.6,56c0.2,0,0.2,0.2,0.2,0.2c0,0-0.1,0.1-0.1,0C56.6,56.2,56.6,56,56.6,56z"
				/>
			<g>
				<path fill="#231917" d="M57.8,58.1c-0.3,0-0.7-0.1-1-0.3c-0.3-0.2-0.7-0.1-0.7-0.1c0,0,0,0-0.1,0c0,0-0.6-0.2-0.7-0.6
					c-0.2-0.1-0.7-0.4-0.8-1c-0.1-0.3,0-0.7,0.3-1.1c-0.1-0.3-0.6-1.9-0.5-3.5c-0.1-0.2-0.9-1.5,0-2.4c0,0,0,0,0,0
					c0.7-0.5,1.3-0.3,1.5-0.2c0.2-0.4,1.4-1.9,4.7-1.9c1.3,0,2.4,0.3,3.2,1c0,0,0,0.1,0,0.1c0,0-0.1,0-0.1,0c-0.8-0.7-1.9-1-3.1-1
					c-3.5,0.1-4.6,1.9-4.6,1.9c0,0,0,0-0.1,0c0,0-0.1,0-0.1,0c0,0-0.6-0.3-1.4,0.2c-0.8,0.8,0.1,2.1,0.1,2.1c0,0,0,0,0,0.1
					c-0.1,1.7,0.5,3.4,0.5,3.5c0,0,0,0.1,0,0.1c-0.3,0.3-0.4,0.6-0.3,0.9c0.1,0.5,0.8,0.8,0.8,0.8c0,0,0,0,0.1,0.1
					c0.1,0.3,0.5,0.5,0.6,0.5c0.1,0,0.5-0.1,0.9,0.1c0.5,0.4,1.5,0.2,1.6,0.1c0.3-0.1,1-0.5,1.1-0.8c0,0,0.1-0.1,0.1,0
					c0,0,0.1,0.1,0,0.1c-0.2,0.4-1.1,0.8-1.2,0.8c0,0,0,0,0,0C58.6,58,58.2,58.1,57.8,58.1z"/>
				<path fill="#231917" d="M58.9,57.9C58.9,57.9,58.8,57.9,58.9,57.9c-0.1-0.1-0.1-0.2,0-0.2c0.5,0,2.2-0.5,2.3-0.6
					c3.5-1.5,3.9-4.4,3.9-5.6c0-0.5-0.3-1.5-0.7-2.2c0,0,0-0.1,0-0.1c0,0,0.1,0,0.1,0c0.4,0.7,0.7,1.7,0.7,2.3c0,1.2-0.4,4.2-4,5.8
					l0,0c0,0,0,0,0,0l0,0c0,0,0,0,0,0c-0.1,0-0.3,0.1-1,0.3C59.6,57.8,59.2,57.9,58.9,57.9z"/>
				<path fill="#231917" d="M64.8,49.8C64.8,49.8,64.8,49.8,64.8,49.8C64.8,49.8,64.7,49.7,64.8,49.8c-0.1-0.1-0.1-1.3-1.1-1.5
					c-1.9-0.3-3.4,1.2-3.4,1.2c0,0-0.1,0-0.1,0c0,0,0-0.1,0-0.1c0.1-0.1,1.6-1.6,3.6-1.3c0,0,0,0,0,0C64.9,48.4,64.9,49.7,64.8,49.8
					C64.9,49.7,64.9,49.8,64.8,49.8z"/>
			</g>
			<path fill="#231917" d="M55.4,57.1C55.3,57.1,55.3,57.1,55.4,57.1c-0.2-0.3-0.3-0.7-0.3-0.7c0-0.1,0-0.1,0.1-0.1
				c0.1,0,0.1,0,0.1,0.1c0,0,0.1,0.4,0.2,0.6C55.5,57,55.5,57,55.4,57.1C55.4,57.1,55.4,57.1,55.4,57.1z"/>
			<g>
				<path fill="#FFFFFF" d="M59.2,57.6c0,0,0.1,0.4-0.2,0.4c-0.2,0-0.3-0.2-0.3-0.2"/>
				<path fill="#231917" d="M59.1,58C59.1,58,59.1,58,59.1,58c-0.3,0-0.3-0.2-0.3-0.2c0,0,0-0.1,0-0.1c0,0,0.1,0,0.1,0
					C58.9,57.8,58.9,57.9,59.1,58c0.1-0.1,0.1-0.1,0.1-0.1c0.1-0.1,0-0.2,0-0.3c0,0,0-0.1,0-0.1c0,0,0.1,0,0.1,0c0,0,0.1,0.2,0,0.4
					C59.2,58,59.2,58,59.1,58z"/>
			</g>
			<path fill="#231917" d="M55.6,49.6C55.6,49.6,55.5,49.6,55.6,49.6c-0.1,0-0.1-0.1-0.1-0.1c0,0,0.1-0.4,0.3-0.7c0,0,0.1-0.1,0.1,0
				c0,0,0.1,0.1,0,0.1C55.7,49.2,55.7,49.6,55.6,49.6C55.6,49.6,55.6,49.6,55.6,49.6z"/>
			<g>
				<path fill="#C9181E" d="M58.6,44.3c0,0-2.1,0-2.7,2c0,0,0.7,0.5,1.1,0.6c0,0,0.1,0,0,0.2s-0.5,1-0.3,2.4c0,0,0.5-1.7,1.9-2.6
					c0,0-0.1-0.3-1.3-1c0,0-0.1,0,0-0.2C57.3,45.6,57.5,44.9,58.6,44.3z"/>
				<path fill="#231917" d="M56.6,49.6C56.6,49.6,56.6,49.6,56.6,49.6C56.6,49.6,56.5,49.6,56.6,49.6c-0.2-1.4,0.1-2.3,0.3-2.6
					c0,0,0,0,0,0c-0.4-0.1-1.1-0.6-1.1-0.6c0,0-0.1-0.1,0-0.1c0.7-2.2,2.8-2.2,2.9-2.2c0,0,0.1,0,0.1,0.1c0,0,0,0.1,0,0.1
					c-1,0.6-1.3,1.2-1.4,1.5c0,0,0,0.1,0,0.1c1.2,0.7,1.3,1,1.4,1c0,0,0,0.1,0,0.1C57.2,47.8,56.7,49.5,56.6,49.6
					C56.7,49.6,56.7,49.6,56.6,49.6z M57,46.8c0,0,0.1,0,0.1,0.1c0,0.1,0,0.2,0,0.2c-0.1,0.3-0.4,0.9-0.4,2c0.2-0.6,0.8-1.6,1.8-2.2
					c-0.1-0.1-0.4-0.4-1.3-0.9c0,0-0.1-0.1-0.1-0.3c0.1-0.3,0.4-0.8,1.1-1.4c-0.6,0.1-1.9,0.5-2.3,1.9C56.1,46.3,56.7,46.7,57,46.8z
					"/>
			</g>
		</g>
		<g>
			<g>
				<path fill="#F5AA01" d="M61.8,61.8c0,0,0.4,0.2,0.8,0.1l0,0.1l-0.5,0l-0.3-0.2L61.8,61.8z"/>
				<path fill="#F5AA01" d="M62.5,62.1c0,0,0.4,0.2,0.8,0l-0.1,0.2l-0.4,0.1l-0.4-0.1l-0.2-0.2L62.5,62.1z"/>
				<path fill="#F5AA01" d="M63.5,62c0,0,0.4-0.1,0.5-0.2l0,0.1l-0.3,0.2l-0.3,0.1l0-0.1L63.5,62z"/>
			</g>
			<polygon fill="#76A32E" points="62.1,60.3 62.1,59.9 62.3,59.5 62.8,59.3 63.6,59.3 64,59.4 64.3,59.8 64.4,60.2 64.3,60.7 
				64.2,60.8 63.8,60.4 63.4,60.2 63,60.2 62.6,60.2 			"/>
			<path fill="#C4C801" d="M64.2,59.9c0,0,0,0.4-0.1,0.5c0,0-0.5-0.3-1-0.4s-1,0.2-1,0.2l0.1,0.1l0.5-0.1l0.6,0l0.5,0.1l0.3,0.2
				l0.2,0.1l0.1-0.2l0-0.4L64.2,59.9L64.2,59.9z"/>
			<g>
				<path fill="#231917" d="M64,59.5C63.9,59.5,63.9,59.5,64,59.5c-0.6-1.2-1.7-2-1.7-2c0,0-0.1-0.1,0-0.1c0,0,0.1-0.1,0.1,0
					c0,0,1.2,0.9,1.7,2.1C64.1,59.4,64.1,59.5,64,59.5C64,59.5,64,59.5,64,59.5z"/>
				<path fill="#231917" d="M62.2,59.6C62.1,59.6,62.1,59.5,62.2,59.6c-0.2-0.8-0.5-1.2-0.5-1.2c0,0,0-0.1,0-0.1c0,0,0.1,0,0.1,0
					c0,0,0.4,0.5,0.5,1.2C62.3,59.5,62.3,59.6,62.2,59.6C62.2,59.6,62.2,59.6,62.2,59.6z"/>
				<path fill="#231917" d="M64.2,60.9C64.2,60.9,64.2,60.9,64.2,60.9c-0.1,0-0.1-0.1-0.1-0.1c0.2-0.5,0.1-0.9-0.1-1.1
					c-0.3-0.3-0.8-0.4-1.3-0.2c-0.3,0.1-0.4,0.2-0.5,0.4c-0.1,0.3,0.1,0.5,0.1,0.5c0,0,0,0.1,0,0.1c0,0-0.1,0-0.1,0
					c0,0-0.2-0.3-0.1-0.7c0.1-0.2,0.3-0.4,0.6-0.5c0.6-0.2,1.2-0.1,1.5,0.3C64.5,59.8,64.5,60.3,64.2,60.9
					C64.3,60.8,64.3,60.9,64.2,60.9z"/>
				<path fill="#231917" d="M64.2,60.8C64.2,60.8,64.1,60.8,64.2,60.8c-0.7-0.7-1.9-0.4-1.9-0.4c-0.1,0-0.1,0-0.1-0.1
					c0-0.1,0-0.1,0.1-0.1c0.1,0,1.3-0.3,2.1,0.5C64.3,60.7,64.3,60.7,64.2,60.8C64.2,60.8,64.2,60.8,64.2,60.8z"/>
				<path fill="#231917" d="M61.7,61.3C61.7,61.3,61.6,61.3,61.7,61.3c-0.2-0.3-0.2-0.5-0.1-0.7c0.2-0.3,0.7-0.3,0.8-0.3
					c0,0,0,0,0,0c0.1,0,0.1,0,0.1,0.1c0,0.1,0,0.1-0.1,0.1c0,0-0.4,0-0.6,0.3c-0.1,0.1-0.1,0.3,0,0.5C61.8,61.2,61.8,61.3,61.7,61.3
					C61.7,61.3,61.7,61.3,61.7,61.3z"/>
				<path fill="#231917" d="M63.4,62.3C63.4,62.3,63.4,62.3,63.4,62.3c-0.1-0.1-0.1-0.2,0-0.2c0.3,0,0.5-0.2,0.6-0.4
					c0.2-0.4,0.1-0.9,0.1-0.9c0-0.1,0-0.1,0.1-0.1c0.1,0,0.1,0,0.1,0.1c0,0,0.1,0.6-0.2,1C64,62.1,63.8,62.3,63.4,62.3
					C63.5,62.3,63.4,62.3,63.4,62.3z"/>
				<path fill="#231917" d="M62.8,62.4c-0.2,0-0.4,0-0.6-0.1c0,0-0.1-0.1-0.1-0.1c0,0,0.1-0.1,0.1-0.1c0.4,0.1,0.7,0.1,0.9,0
					c0.3-0.2,0.4-0.5,0.4-0.5c0-0.1,0.1-0.1,0.1-0.1c0.1,0,0.1,0.1,0.1,0.1c0,0-0.1,0.4-0.5,0.7C63.2,62.4,63,62.4,62.8,62.4z"/>
				<path fill="#231917" d="M62,61.5C62,61.5,61.9,61.5,62,61.5c-0.1-0.1-0.1-0.2,0-0.2c0.1,0,0.1-0.2,0.1-0.3c0-0.1,0-0.1,0.1-0.1
					c0,0,0,0,0,0c0.1,0,0.1,0,0.1,0.1C62.3,61,62.3,61.4,62,61.5C62,61.5,62,61.5,62,61.5z"/>
				<path fill="#231917" d="M62.2,62.2c-0.2,0-0.3-0.1-0.4-0.1c-0.2-0.2-0.3-0.5-0.2-0.8c0.1-0.2,0.2-0.3,0.3-0.3
					c0.1,0,0.2,0,0.3,0.1c0,0,0,0.1,0,0.1c0,0-0.1,0-0.1,0c0,0,0,0-0.1,0c-0.1,0-0.1,0.1-0.2,0.2c-0.1,0.2,0,0.4,0.2,0.5
					c0.2,0.2,0.5,0.1,0.9-0.2c0,0,0.1,0,0.1,0c0,0,0,0.1,0,0.1C62.6,62.1,62.4,62.2,62.2,62.2z"/>
			</g>
		</g>
		<g>
			<path fill="#FEFEFF" d="M61.1,58.4C61.1,58.4,61.1,58.4,61.1,58.4c0,0.2,0.2,0.7,0.3,0.9c0.2,0.3,0.4,0.5,0.2,0.8
				c-0.2,0.3-0.8,0.2-1.1-0.1s-0.3-0.2-0.3-0.2s-0.3-0.3-0.4-0.7c-0.1-0.4,0.8-0.7,0.8-0.7H61.1"/>
			<path fill="#231917" d="M61.2,60.4c-0.2,0-0.5-0.1-0.7-0.3c-0.3-0.2-0.6-0.5-0.6-1c-0.1-0.5,0.8-0.8,0.9-0.8c0,0,0,0,0,0l0.3,0
				c0,0,0,0,0,0c0,0,0.1,0,0.1,0l0,0c0,0.1,0.2,0.7,0.3,0.9l0,0.1c0.2,0.2,0.4,0.5,0.2,0.8c-0.1,0.1-0.2,0.2-0.3,0.2
				C61.3,60.4,61.2,60.4,61.2,60.4z M60.7,58.4c-0.2,0.1-0.8,0.4-0.8,0.7c0.1,0.4,0.3,0.7,0.6,0.9c0.2,0.2,0.5,0.3,0.7,0.2
				c0.1,0,0.2,0,0.3-0.2c0.2-0.3,0-0.5-0.2-0.7l0-0.1c-0.2-0.2-0.3-0.7-0.3-0.9L60.7,58.4z"/>
		</g>
		<g>
			<path fill="#76A32E" d="M59.5,57.9c0,0,1.1-0.1,2.2-0.7c0,0-0.2,0.9-1.6,2.1C60.1,59.3,59.6,59.1,59.5,57.9z"/>
			<path fill="#231917" d="M60.1,59.4C60.1,59.4,60.1,59.4,60.1,59.4c0,0-0.6-0.2-0.7-1.5c0,0,0-0.1,0.1-0.1c0,0,1.1-0.1,2.2-0.7
				c0,0,0.1,0,0.1,0c0,0,0,0,0,0.1C61.8,57.3,61.6,58.2,60.1,59.4C60.1,59.3,60.1,59.4,60.1,59.4z M59.6,57.9
				c0.1,0.9,0.4,1.2,0.5,1.2c1-0.8,1.4-1.5,1.5-1.8C60.7,57.8,59.8,57.9,59.6,57.9z"/>
			<g>
				<polygon fill="#C2C901" points="60.3,57.9 59.8,58.4 60.1,58.6 59.8,58.8 59.9,59 60.1,59.3 60.5,59 60.5,58.5 60.2,58.3 				
					"/>
				<path fill="#231917" d="M60.1,59.3C60.1,59.3,60.1,59.3,60.1,59.3l-0.3-0.3c0,0,0,0,0,0l-0.1-0.2c0,0,0,0,0-0.1l0.2-0.2
					l-0.2-0.2c0,0,0,0,0,0c0,0,0,0,0,0l0.5-0.4c0,0,0,0,0.1,0c0,0,0,0,0,0.1l-0.1,0.3l0.3,0.2c0,0,0,0,0,0L60.5,59c0,0,0,0,0,0
					L60.1,59.3C60.1,59.3,60.1,59.3,60.1,59.3z M59.9,59l0.2,0.2l0.3-0.3l0.1-0.4l-0.3-0.2c0,0,0,0,0-0.1l0.1-0.2l-0.4,0.3l0.2,0.2
					c0,0,0,0,0,0c0,0,0,0,0,0l-0.2,0.2L59.9,59z"/>
			</g>
		</g>
		<g>
			<path fill="#231917" d="M64.8,60C64.8,60,64.8,60,64.8,60c-0.1-0.1-0.1-0.1-0.1-0.2c0.5-0.3,1.1-1.4,1.2-2.2c0-0.1,0-0.2,0-0.3
				c-0.1-0.1-0.4,0-0.6,0.1c-0.6,0.4-1.2,0.5-1.8,0.4c-0.8-0.2-1.2-1-1.2-1.1c0,0,0-0.1,0-0.1c0,0,0.1,0,0.1,0c0,0,0.3,0.7,1.1,1
				c0.5,0.1,1,0,1.6-0.4c0.1,0,0.5-0.3,0.8-0.1c0.1,0.1,0.2,0.2,0.1,0.5C66,58.5,65.4,59.6,64.8,60C64.9,60,64.9,60,64.8,60z"/>
			<g>
				<path fill="#FFFFFF" d="M63.5,57.9c0,0,0.3,0.4,0.8,0.1c0,0,0-0.7-0.3-0.8C63.6,57.1,63.5,57.9,63.5,57.9z"/>
				<path fill="#231917" d="M63.9,58.2L63.9,58.2c-0.3,0-0.5-0.2-0.5-0.2c0,0,0,0,0-0.1c0-0.1,0.1-0.8,0.5-0.8c0,0,0.1,0,0.1,0
					c0.4,0.1,0.4,0.8,0.4,0.9c0,0,0,0.1,0,0.1C64.2,58.2,64.1,58.2,63.9,58.2z M63.6,57.9c0,0,0.2,0.1,0.3,0.1l0,0
					c0.1,0,0.2,0,0.3-0.1c0-0.2,0-0.6-0.3-0.6c0,0,0,0,0,0C63.8,57.3,63.7,57.6,63.6,57.9z"/>
			</g>
			<g>
				<path fill="#FFFFFF" d="M64.7,58c0,0,0.6,0.1,0.7-0.3c0,0-0.1-0.4-0.5-0.5C64.5,57.2,64.7,58,64.7,58z"/>
				<path fill="#231917" d="M64.8,58.1L64.8,58.1c-0.1,0-0.2,0-0.2,0c0,0-0.1,0-0.1-0.1c0-0.1-0.1-0.9,0.2-1c0,0,0,0,0,0
					c0.5,0.1,0.6,0.6,0.6,0.6c0,0,0,0,0,0C65.4,58,65.2,58.1,64.8,58.1z M64.8,57.9C64.8,57.9,64.8,57.9,64.8,57.9L64.8,57.9
					c0.3,0,0.4-0.1,0.5-0.2c0-0.1-0.1-0.3-0.4-0.4C64.7,57.3,64.7,57.6,64.8,57.9z"/>
			</g>
		</g>
		<path fill="#F6AB00" d="M60.4,60.3c0,0,0.8,0.4,1.2,0.4l0,0.2l-0.3,0l-0.5-0.2l-0.3-0.2L60.4,60.3z"/>
		<path fill="#231917" d="M61.6,61C61.6,61,61.6,61,61.6,61c-2-0.3-2.1-2.3-2.1-2.3c0-0.1,0-0.1,0.1-0.1c0.1,0,0.1,0,0.1,0.1
			c0,0.1,0.1,1.9,1.9,2.2C61.6,60.9,61.7,60.9,61.6,61C61.7,61,61.6,61,61.6,61z"/>
		<path fill="#231917" d="M58,64.3c0,0,0.9,0.3,1.6,0.2c0,0-0.6,0.2-1.1,0C58.5,64.5,58.1,64.4,58,64.3z"/>
		<path fill="#F6A800" d="M60.4,63.6c0,0-0.2,0.8-0.3,1c0,0.2-0.7,1.1-2,0.8c0,0-0.6-0.2-0.8-0.5L57.2,65l0.4,0.5l0.8,0.3l1-0.1
			l0.8-0.7l0.2-0.6L60.4,63.6z"/>
		<g>
			<path fill="#FFFFFF" d="M57.4,65.2c0,0,0.3-0.3,0.5,0c0.2,0.3,0.1,0.5,0.1,0.5l-0.6-0.3V65.2z"/>
			<path fill="#231917" d="M58.1,65.7C58.1,65.7,58.1,65.7,58.1,65.7l-0.7-0.3c0,0,0,0,0,0v-0.2c0,0,0,0,0,0c0,0,0.1-0.1,0.3-0.1
				c0.1,0,0.2,0,0.2,0.1C58.2,65.5,58.1,65.7,58.1,65.7C58.1,65.7,58.1,65.7,58.1,65.7C58.1,65.7,58.1,65.7,58.1,65.7z M57.4,65.3
				l0.6,0.3c0-0.1,0-0.2-0.1-0.5c-0.1-0.1-0.1-0.1-0.2-0.1c-0.1,0-0.2,0.1-0.3,0.1V65.3z"/>
		</g>
		<g>
			<path fill="#FFFFFF" d="M58.3,65.7c0,0,0.2-0.5,0.5-0.4c0.3,0,0.5,0.5,0.5,0.5l-0.4,0.1L58.3,65.7L58.3,65.7z"/>
			<path fill="#231917" d="M58.9,65.8C58.9,65.8,58.9,65.8,58.9,65.8l-0.6,0c0,0,0,0,0,0l0-0.1c0,0,0,0,0,0c0,0,0.2-0.5,0.5-0.5
				c0.3,0,0.5,0.5,0.5,0.5c0,0,0,0,0,0c0,0,0,0,0,0L58.9,65.8C58.9,65.8,58.9,65.8,58.9,65.8z M58.3,65.7l0.5,0l0.4-0.1
				c-0.1-0.1-0.2-0.4-0.5-0.4C58.5,65.2,58.3,65.6,58.3,65.7L58.3,65.7z"/>
		</g>
		<g>
			<path fill="#FFFFFF" d="M59.5,65.6c0,0-0.1-0.3,0.1-0.6c0.2-0.2,0.5,0.1,0.5,0.1L60,65.3L59.5,65.6L59.5,65.6z"/>
			<path fill="#231917" d="M59.5,65.7C59.5,65.7,59.5,65.7,59.5,65.7L59.5,65.7C59.5,65.6,59.5,65.6,59.5,65.7
				c-0.1-0.1-0.2-0.4,0.1-0.7c0,0,0.1-0.1,0.2-0.1c0.2,0,0.4,0.2,0.4,0.2c0,0,0,0,0,0l-0.1,0.2c0,0,0,0,0,0L59.5,65.7
				C59.5,65.7,59.5,65.7,59.5,65.7z M59.5,65.6L59.5,65.6l0.5-0.3l0.1-0.2c0,0-0.2-0.1-0.3-0.1c0,0-0.1,0-0.1,0
				C59.4,65.3,59.5,65.5,59.5,65.6z"/>
		</g>
		<path fill="#231917" d="M58.7,65.9c-0.2,0-0.3,0-0.5,0c-0.5-0.1-0.8-0.4-1-0.8c-0.5-0.9,0-2.2,0-2.2c0.7-1.6,2.4-2.9,2.5-3
			c0,0,0.1,0,0.1,0c0,0,0,0.1,0,0.1c0,0-1.8,1.3-2.5,2.9c0,0-0.5,1.2-0.1,2.1c0.2,0.4,0.5,0.6,0.9,0.7c0.2,0,0.3,0,0.5,0
			c1.2,0,1.5-1,1.5-1.1c0-0.1,0.1-1.1,0.2-1.4c0,0,0-0.1,0-0.1c0.1-0.4,0.3-1.3,0.7-2.1c0,0,0.1-0.1,0.1,0c0,0,0.1,0.1,0,0.1
			c-0.4,0.8-0.6,1.7-0.7,2.1c0,0,0,0.1,0,0.1c-0.1,0.3-0.2,1.4-0.2,1.4c0,0,0,0,0,0C60.5,64.7,60.1,65.9,58.7,65.9z"/>
		<path fill="#231917" d="M64.9,60.5C64.9,60.5,64.9,60.5,64.9,60.5c-0.2-0.8-0.7-1.7-0.7-1.7c0,0,0-0.1,0-0.1c0,0,0.1,0,0.1,0
			C64.3,58.8,64.8,59.7,64.9,60.5C65,60.5,65,60.5,64.9,60.5C64.9,60.5,64.9,60.5,64.9,60.5z"/>
		<path fill="none" d="M62.3,63.9c0,0,0.6,0.5,1.2,0.6c0,0-0.6-0.1-1-0.4C62.5,64.2,62.3,64,62.3,63.9z"/>
		<path fill="#F6A901" d="M65.1,63c0,0-0.3,2.4-2.1,2.4c0,0-0.6,0-0.7-0.1c-0.1-0.2-0.2,0.2-0.2,0.2l0.7,0.3l1.1-0.3l0.7-0.6L65,64
			l0.1-0.7L65.1,63z"/>
		<g>
			<path fill="#FFFFFF" d="M62.9,65.6c0,0,0.1-0.4,0.4-0.4c0.3,0,0.4,0.4,0.4,0.4l-0.8,0.1L62.9,65.6z"/>
			<path fill="#231917" d="M62.9,65.7C62.9,65.7,62.9,65.7,62.9,65.7l-0.1-0.1c0,0,0,0,0,0c0,0,0.1-0.4,0.5-0.4c0,0,0,0,0,0
				c0.3,0,0.4,0.4,0.4,0.4c0,0,0,0,0,0s0,0,0,0L62.9,65.7C62.9,65.7,62.9,65.7,62.9,65.7z M62.9,65.6L62.9,65.6l0.8,0
				c0-0.1-0.1-0.3-0.4-0.3C63.1,65.2,62.9,65.5,62.9,65.6z"/>
		</g>
		<g>
			<path fill="#FFFFFF" d="M61.9,65.2c0,0,0.3-0.3,0.5-0.1c0.2,0.1,0.2,0.5,0.2,0.5l-0.5-0.1L61.9,65.2z"/>
			<path fill="#231917" d="M62.6,65.6C62.6,65.6,62.6,65.6,62.6,65.6l-0.5-0.1c0,0,0,0,0,0l-0.2-0.3c0,0,0,0,0,0
				c0,0,0.2-0.2,0.4-0.2c0.1,0,0.1,0,0.2,0C62.6,65.2,62.6,65.6,62.6,65.6C62.6,65.6,62.6,65.6,62.6,65.6
				C62.6,65.6,62.6,65.6,62.6,65.6z M62.1,65.4l0.5,0.1c0-0.1,0-0.4-0.2-0.5c0,0-0.1,0-0.1,0c-0.1,0-0.3,0.1-0.3,0.1L62.1,65.4z"/>
		</g>
		<g>
			<path fill="#FFFFFF" d="M61.6,64.4c0,0,0.3,0,0.3,0.2c0,0,0,0.3-0.2,0.4C61.5,65.1,61.6,64.4,61.6,64.4z"/>
			<path fill="#231917" d="M61.7,65C61.7,65,61.6,65,61.7,65c-0.2-0.1-0.1-0.6-0.1-0.6c0,0,0,0,0,0c0,0,0,0,0,0c0,0,0.3,0,0.3,0.2
				C61.9,64.6,61.9,64.9,61.7,65C61.7,65,61.7,65,61.7,65z M61.6,64.5c0,0.1,0,0.4,0.1,0.5c0,0,0,0,0,0c0.2-0.1,0.2-0.3,0.2-0.3
				C61.9,64.5,61.7,64.5,61.6,64.5z"/>
		</g>
		<path fill="#231917" d="M62.9,65.8c-0.4,0-0.8-0.1-1.1-0.4c-0.3-0.3-0.5-0.8-0.4-1.2c0,0,0,0,0,0c0,0,0.1-0.3,0.3-0.5
			c0.2-0.2,0.5-0.9,0.6-1.3c0-0.1,0.1-0.1,0.1-0.1c0.1,0,0.1,0.1,0.1,0.1c-0.1,0.4-0.4,1.1-0.6,1.3c-0.1,0.2-0.2,0.4-0.2,0.5
			c-0.1,0.3,0.1,0.7,0.4,1c0.3,0.3,0.8,0.4,1.4,0.3c1.1-0.3,1.3-0.8,1.6-1.7c0-0.1,0.1-0.2,0.1-0.3c0.4-1-0.2-3.3-0.2-3.3
			c0-0.1,0-0.1,0.1-0.1c0.1,0,0.1,0,0.1,0.1c0,0.1,0.6,2.4,0.2,3.4c0,0.1-0.1,0.2-0.1,0.3c-0.3,0.9-0.5,1.6-1.8,1.8
			C63.2,65.8,63,65.8,62.9,65.8z"/>
	</g>
</g>
<rect x="20" y="20" fill="none" width="80" height="80"/>
</svg>
