<?xml version="1.0" encoding="utf-8"?>
<!-- Generator: Adobe Illustrator 18.0.0, SVG Export Plug-In . SVG Version: 6.00 Build 0)  -->
<!DOCTYPE svg PUBLIC "-//W3C//DTD SVG 1.1//EN" "http://www.w3.org/Graphics/SVG/1.1/DTD/svg11.dtd">
<svg version="1.1" id="图层_1" xmlns="http://www.w3.org/2000/svg" xmlns:xlink="http://www.w3.org/1999/xlink" x="0px" y="0px"
	 viewBox="0 0 120 120" enable-background="new 0 0 120 120" xml:space="preserve">
<g>
	<g>
		<path fill="#34B87E" d="M104.1,19c2.6,2.7,4.5,5.7,5.7,9c1.3,3.3,1.9,6.8,1.9,10.3c0,3.5-0.6,6.9-1.9,10.3c-1.3,3.3-3.2,6.3-5.7,9
			L63,100.3c-2.6,2.7-5.7,4.9-9.5,6.7c-3.8,1.8-7.7,2.8-11.9,3.1c-4.2,0.3-8.5-0.3-12.8-1.8c-4.4-1.5-8.4-4.2-12.1-8.1
			C13,96.5,10.5,92.4,9,87.9C7.6,83.4,7,79,7.3,74.6c0.3-4.4,1.3-8.6,3-12.5c1.7-3.9,3.8-7.2,6.4-9.9l36.5-37.8
			c0.6-0.7,1.6-0.8,2.8-0.5c1.3,0.3,2.2,0.8,2.8,1.5c0.6,0.7,1,1.7,1.4,3c0.4,1.3,0.2,2.3-0.4,3L23.4,59.1c-1.9,2-3.5,4.4-4.8,7.1
			c-1.3,2.7-2,5.6-2.3,8.6c-0.2,3.1,0.2,6.2,1.3,9.3c1.1,3.1,3,6.2,5.8,9.1c2.5,2.6,5.3,4.5,8.3,5.6c3,1.1,6.1,1.5,9.1,1.3
			c3-0.2,5.9-0.9,8.6-2.1c2.7-1.2,5-2.8,7-4.8l41-42.5c1.9-2,3.3-4.1,4.1-6.3c0.8-2.2,1.2-4.3,1.2-6.5c0-2.1-0.5-4.2-1.4-6.2
			c-0.9-2-2.2-3.9-3.9-5.6c-3.1-3.1-6.5-4.6-10.4-4.4c-3.8,0.2-7.7,2.3-11.5,6.3l-37,38.5c-1.6,1.7-2.4,3.6-2.4,5.7
			c0,2.1,0.7,3.8,2,5.2c1.6,1.6,3.4,2.3,5.4,2c2-0.3,3.7-1.1,5-2.5L82,42.1c0.6-0.7,1.6-0.8,2.8-0.5c1.3,0.3,2.2,0.8,2.8,1.5
			c0.6,0.7,1.1,1.7,1.5,3c0.4,1.3,0.2,2.3-0.4,3L55.1,83.9c-2.6,2.7-5,4.6-7.4,5.6c-2.4,1-4.6,1.5-6.7,1.4c-2.1-0.1-4-0.7-5.8-1.7
			c-1.8-1-3.4-2.3-4.9-3.8c-1.2-1.2-2.3-2.7-3.3-4.6c-1-1.9-1.5-3.9-1.7-6.2c-0.1-2.2,0.2-4.6,1.1-7.2c0.9-2.5,2.6-5.1,5.2-7.7
			c1.3-1.3,2.4-2.6,3.4-3.7c0.9-1,1.7-1.8,2.4-2.6c0.8-0.7,1.2-1.2,1.2-1.2L68.7,21c2.6-2.7,5.4-4.8,8.4-6.3s6.1-2.4,9.3-2.6
			c3.1-0.2,6.2,0.2,9.3,1.3C98.7,14.4,101.5,16.4,104.1,19L104.1,19z M104.1,19"/>
	</g>
</g>
</svg>
