<?xml version="1.0" encoding="utf-8"?>
<!-- Generator: Adobe Illustrator 18.0.0, SVG Export Plug-In . SVG Version: 6.00 Build 0)  -->
<!DOCTYPE svg PUBLIC "-//W3C//DTD SVG 1.1//EN" "http://www.w3.org/Graphics/SVG/1.1/DTD/svg11.dtd">
<svg version="1.1" id="图层_1" xmlns="http://www.w3.org/2000/svg" xmlns:xlink="http://www.w3.org/1999/xlink" x="0px" y="0px"
	 viewBox="0 0 120 120" enable-background="new 0 0 120 120" xml:space="preserve">
<g>
	<path fill="#0093FE" d="M71.1,85.2c5,0.5,9.2,1.2,12.1,2.2c3.7,1.2,5.7,2.9,5.7,4.9c0,2.6-3.6,4.6-9.5,5.9c-5,1-11.9,1.7-19.5,1.7
		c-7.6,0-14.5-0.6-19.5-1.7c-5.9-1.2-9.5-3.3-9.5-5.9c0-2.1,2.1-3.7,5.7-4.9c2.9-0.9,7.1-1.7,12.1-2.2c1-0.1,1.9-0.2,2.1,1.7
		c0.2,1.9-0.8,2-1.7,2.1c-4.7,0.4-8.6,1.1-11.3,2c-1.9,0.6-3,1-3,1.2c0,0.5,2.5,1.3,6.4,2.1c4.8,1,11.4,1.6,18.7,1.6
		c7.3,0,14-0.6,18.7-1.6c4-0.8,6.4-1.6,6.4-2.1c0-0.2-1.1-0.6-3-1.2c-2.7-0.9-6.6-1.6-11.3-2c-1-0.1-1.9-0.2-1.7-2.1
		C69.1,85.1,70.1,85.1,71.1,85.2 M59.9,21.8c-13.4,0-24.4,11-24.4,24.5c0,5.2,1.6,10,4.3,13.9l20,31.8l20-31.8
		c2.7-4,4.3-8.8,4.3-13.9C84.2,32.9,73.3,21.8,59.9,21.8L59.9,21.8z M59.9,56.8c-5.7,0-10.4-4.7-10.4-10.4c0-5.8,4.7-10.4,10.4-10.4
		c5.7,0,10.4,4.7,10.4,10.4C70.2,52.1,65.6,56.8,59.9,56.8L59.9,56.8z M59.9,56.8"/>
</g>
</svg>
