<?xml version="1.0" encoding="utf-8"?>
<!-- Generator: Adobe Illustrator 18.0.0, SVG Export Plug-In . SVG Version: 6.00 Build 0)  -->
<!DOCTYPE svg PUBLIC "-//W3C//DTD SVG 1.1//EN" "http://www.w3.org/Graphics/SVG/1.1/DTD/svg11.dtd">
<svg version="1.1" id="图层_1" xmlns="http://www.w3.org/2000/svg" xmlns:xlink="http://www.w3.org/1999/xlink" x="0px" y="0px"
	 viewBox="0 0 120 120" enable-background="new 0 0 120 120" xml:space="preserve">
<path fill="#499DF2" d="M60,0.2C27.1,0.2,0.2,27.1,0.2,60c0,32.9,26.9,59.8,59.8,59.8c32.9,0,59.8-26.9,59.8-59.8
	C119.8,27.1,92.9,0.2,60,0.2L60,0.2z"/>
<path fill="#FFFFFF" d="M54,82.4c0,6-4.5,10.5-10.5,10.5c-6,0-10.5-4.5-10.5-10.5V37.6c0-6,4.5-10.5,10.5-10.5
	c6,0,10.5,4.5,10.5,10.5V82.4L54,82.4z"/>
<path fill="#FFFFFF" d="M86.9,82.4c0,6-4.5,10.5-10.5,10.5c-6,0-10.5-4.5-10.5-10.5V37.6c0-6,4.5-10.5,10.5-10.5
	c6,0,10.5,4.5,10.5,10.5V82.4L86.9,82.4z"/>
<path fill="#499DF2" d="M86.9,82.4"/>
</svg>
