<?xml version="1.0" encoding="utf-8"?>
<!-- Generator: Adobe Illustrator 18.0.0, SVG Export Plug-In . SVG Version: 6.00 Build 0)  -->
<!DOCTYPE svg PUBLIC "-//W3C//DTD SVG 1.1//EN" "http://www.w3.org/Graphics/SVG/1.1/DTD/svg11.dtd">
<svg version="1.1" id="图层_1" xmlns="http://www.w3.org/2000/svg" xmlns:xlink="http://www.w3.org/1999/xlink" x="0px" y="0px"
	 viewBox="0 0 40 40" enable-background="new 0 0 40 40" xml:space="preserve">
<g>
	<path fill="#C1272D" d="M32.4,31.5c-0.3,0-0.6-0.3-0.6-0.6c0-2.5-0.9-4.8-2.7-6.5c-0.2-0.2-0.2-0.6,0-0.9c0.2-0.2,0.6-0.2,0.9,0
		c2,2,3,4.6,3,7.4C33,31.2,32.7,31.5,32.4,31.5L32.4,31.5z M22.7,21.6c0,0-0.1,0-0.1,0c-5,0-9.1,4.2-9.1,9.3c0,0.3-0.3,0.6-0.6,0.6
		c-0.3,0-0.6-0.3-0.6-0.6c0-4.7,3.1-8.7,7.3-10c-2-1.1-3.4-3.3-3.4-5.8c0-3.6,2.9-6.6,6.5-6.6c3.6,0,6.5,2.9,6.5,6.6
		C29.1,18.6,26.2,21.6,22.7,21.6L22.7,21.6z M22.6,9.8c-2.9,0-5.2,2.4-5.2,5.3c0,2.9,2.4,5.3,5.2,5.3c2.9,0,5.2-2.4,5.2-5.3
		C27.9,12.1,25.5,9.8,22.6,9.8L22.6,9.8z M15.4,21.1c-4,0-7.2,3.5-7.2,7.7c0,0.3-0.3,0.6-0.6,0.6c-0.3,0-0.6-0.3-0.6-0.6
		c0-4,2.4-7.3,5.8-8.5c-1.6-1-2.6-2.8-2.6-4.9c0-3.1,2.4-5.7,5.3-5.7c0.3,0,0.6,0.3,0.6,0.6c0,0.3-0.3,0.6-0.6,0.6
		c-2.2,0-4.1,2-4.1,4.4c0,2.4,1.8,4.4,4.1,4.4c0.3,0,0.6,0.3,0.6,0.6c0,0,0,0,0,0c0,0,0,0,0,0C16.1,20.9,15.8,21.1,15.4,21.1
		L15.4,21.1z M15.4,21.1"/>
</g>
</svg>
