<?xml version="1.0" encoding="utf-8"?>
<!-- Generator: Adobe Illustrator 18.0.0, SVG Export Plug-In . SVG Version: 6.00 Build 0)  -->
<!DOCTYPE svg PUBLIC "-//W3C//DTD SVG 1.1//EN" "http://www.w3.org/Graphics/SVG/1.1/DTD/svg11.dtd">
<svg version="1.1" id="图层_1" xmlns="http://www.w3.org/2000/svg" xmlns:xlink="http://www.w3.org/1999/xlink" x="0px" y="0px"
	 viewBox="0 0 18 18" enable-background="new 0 0 18 18" xml:space="preserve">
<rect fill="none" width="18" height="18"/>
<g>
	<path fill="#4D4D4D" d="M3.9,10.3c-1.7,0-3.1,1.4-3.1,3.1c0,1.7,1.4,3.1,3.1,3.1c1.7,0,3.1-1.4,3.1-3.1C7,11.7,5.6,10.3,3.9,10.3
		L3.9,10.3z M3.9,15.4c-1.1,0-2-0.9-2-2s0.9-2,2-2c1.1,0,2,0.9,2,2S5,15.4,3.9,15.4L3.9,15.4z M14.1,10.3c-1.7,0-3.1,1.4-3.1,3.1
		c0,1.7,1.4,3.1,3.1,3.1c1.7,0,3.1-1.4,3.1-3.1C17.3,11.7,15.9,10.3,14.1,10.3L14.1,10.3z M14.1,15.4c-1.1,0-2-0.9-2-2s0.9-2,2-2
		c1.1,0,2,0.9,2,2S15.3,15.4,14.1,15.4L14.1,15.4z M13.5,5.6c1.1,0,2-0.9,2-2s-0.9-2-2-2s-2,0.9-2,2S12.3,5.6,13.5,5.6L13.5,5.6z
		 M10.2,10.3C9.7,9.9,8.9,9.1,8.4,8.7c0.6-0.5,1.7-1.2,2.7-1.6l1.7,1.4c0,0,0,0,0,0c0,0,0,0,0,0c0,0,0,0,0,0c0,0,0,0,0,0
		c0,0,0,0,0,0c0,0,0,0,0,0c0.1,0,0.1,0.1,0.2,0.1c0,0,0,0,0,0c0,0,0,0,0,0c0,0,0,0,0,0c0,0,0,0,0,0l0,0h2.4c0.3,0,0.5-0.2,0.5-0.5
		c0-0.3-0.2-0.5-0.5-0.5h-2.1l-2.3-2.6c-0.1-0.1-0.1-0.2-0.2-0.2c-0.2-0.2-0.4-0.4-0.7-0.4c0,0,0,0,0,0c0,0,0,0,0,0c0,0,0,0,0,0
		C9.2,4.4,8,5,7.2,5.6C6.3,6.2,5.5,7,5.1,7.7C4.7,8.1,4.8,8.5,4.8,8.8C4.9,9.1,5,9.3,5.5,9.7c0.3,0.2,0.7,0.5,1.2,0.9
		c0.6,0.4,1.2,0.8,1.5,1l0.5,3.8c0,0.3,0.3,0.5,0.5,0.5c0,0,0,0,0,0c0.3,0,0.5-0.2,0.5-0.5c0-0.2,0.6-3.9,0.6-4.8
		C10.4,10.5,10.3,10.4,10.2,10.3L10.2,10.3z M10.2,10.3"/>
</g>
</svg>
