<?xml version="1.0" encoding="utf-8"?>
<!-- Generator: Adobe Illustrator 18.0.0, SVG Export Plug-In . SVG Version: 6.00 Build 0)  -->
<!DOCTYPE svg PUBLIC "-//W3C//DTD SVG 1.1//EN" "http://www.w3.org/Graphics/SVG/1.1/DTD/svg11.dtd">
<svg version="1.1" id="图层_1" xmlns="http://www.w3.org/2000/svg" xmlns:xlink="http://www.w3.org/1999/xlink" x="0px" y="0px"
	 viewBox="20 20 80 80" enable-background="new 20 20 80 80" xml:space="preserve">
<g>
	<linearGradient id="SVGID_1_" gradientUnits="userSpaceOnUse" x1="60" y1="36.8463" x2="60" y2="86.3361">
		<stop  offset="0" style="stop-color:#FF3F4F"/>
		<stop  offset="0.1806" style="stop-color:#F53849"/>
		<stop  offset="0.4901" style="stop-color:#D9233A"/>
		<stop  offset="0.8888" style="stop-color:#AD0322"/>
		<stop  offset="0.9232" style="stop-color:#A90020"/>
	</linearGradient>
	<path fill="url(#SVGID_1_)" d="M47.1,70.5l12.1,12.9c0.4,0.4,1.1,0.4,1.6,0l12.1-12.8c4-3.8,6.6-8.8,6.6-14.6
		c0-10.9-8.7-19.7-19.5-19.7c-10.8,0-19.5,8.7-19.5,19.6c0,5.9,2.6,10.9,6.7,14.7L47.1,70.5L47.1,70.5z"/>
	<ellipse fill="#FFFFFF" cx="60" cy="55" rx="14.5" ry="14.7"/>
</g>
<rect x="20" y="20" fill="none" width="80" height="80"/>
<ellipse fill="#FFFFFF" cx="60" cy="55" rx="14.5" ry="14.7"/>
<g>
	<path fill="#2FA835" d="M58.8,61.8c-0.8,0-1.5,0.7-1.5,1.5c0,0.8,0.7,1.5,1.5,1.5c0.8,0,1.5-0.7,1.5-1.5S59.6,61.8,58.8,61.8
		L58.8,61.8z M65.9,61.8c-0.8,0-1.5,0.7-1.5,1.5c0,0.8,0.7,1.5,1.5,1.5s1.5-0.7,1.5-1.5C67.5,62.5,66.8,61.8,65.9,61.8L65.9,61.8z
		 M67.7,59H57.3l-3.6-10.7c-0.1-0.3-0.4-0.5-0.7-0.5h-3.2c-0.4,0-0.8,0.3-0.8,0.7c0,0.4,0.3,0.7,0.8,0.7h2.6L56,60
		c0.1,0.3,0.4,0.5,0.7,0.5h11c0.4,0,0.8-0.3,0.8-0.7C68.5,59.3,68.1,59,67.7,59L67.7,59z M69.3,50.7l-12.9-1.1
		c-0.4,0-0.6,0.2-0.5,0.6l2.3,6.8c0.1,0.4,0.6,0.8,1,0.8h9.4c0.4,0,0.8-0.4,0.8-0.8l0.6-5.5C70,51.1,69.8,50.7,69.3,50.7L69.3,50.7z
		"/>
</g>
</svg>
