<?xml version="1.0" encoding="utf-8"?>
<!-- Generator: Adobe Illustrator 18.0.0, SVG Export Plug-In . SVG Version: 6.00 Build 0)  -->
<!DOCTYPE svg PUBLIC "-//W3C//DTD SVG 1.1//EN" "http://www.w3.org/Graphics/SVG/1.1/DTD/svg11.dtd">
<svg version="1.1" id="图层_1" xmlns="http://www.w3.org/2000/svg" xmlns:xlink="http://www.w3.org/1999/xlink" x="0px" y="0px"
	 viewBox="0 0 14 14" enable-background="new 0 0 14 14" xml:space="preserve">
<g>
	<path fill="#B3B3B3" d="M12.8,13.5L8.7,9.4L9.1,9c1.7-1.7,1.7-4.6,0-6.3c-0.8-0.8-2-1.3-3.2-1.3c-1.2,0-2.3,0.5-3.2,1.3
		C1,4.5,1,7.3,2.7,9c1.4,1.4,3.6,1.7,5.4,0.7l0.5,0.8c-2.1,1.2-4.8,0.9-6.5-0.9C0,7.6,0,4.2,2.1,2.1c1-1,2.4-1.6,3.8-1.6
		c1.4,0,2.8,0.6,3.8,1.6c2,2,2.1,5.2,0.3,7.3l0.2,0.2l3.2,3.2L12.8,13.5L12.8,13.5z M12.8,13.5"/>
</g>
<rect fill="none" width="14" height="14"/>
</svg>
