<?xml version="1.0" encoding="utf-8"?>
<!-- Generator: Adobe Illustrator 18.0.0, SVG Export Plug-In . SVG Version: 6.00 Build 0)  -->
<!DOCTYPE svg PUBLIC "-//W3C//DTD SVG 1.1//EN" "http://www.w3.org/Graphics/SVG/1.1/DTD/svg11.dtd">
<svg version="1.1" id="图层_1" xmlns="http://www.w3.org/2000/svg" xmlns:xlink="http://www.w3.org/1999/xlink" x="0px" y="0px"
	 viewBox="0 0 120 120" enable-background="new 0 0 120 120" xml:space="preserve">
<g>
	<path fill="#0093FE" d="M73.1,31.8c-12-11.9-31.5-11.9-43.5,0c-12,11.9-12,31.4,0,43.3c12,11.9,31.5,11.9,43.5,0
		C85.1,63.1,85.1,43.7,73.1,31.8L73.1,31.8z M64.7,66.8c-7.4,7.4-19.4,7.4-26.8,0c-7.4-7.4-7.4-19.3,0-26.7c7.4-7.4,19.4-7.4,26.8,0
		C72.1,47.4,72.1,59.4,64.7,66.8L64.7,66.8z M96.9,88.8L83.7,75.6c-2.3-2.3-6-2.3-8.4,0c-2.3,2.3-2.3,6,0,8.3l13.2,13.1
		c2.3,2.3,6,2.3,8.4,0C99.2,94.8,99.2,91.1,96.9,88.8L96.9,88.8z M38.8,44.6c-1.9,2.7-2.9,5.8-2.8,9.1c0.1,2.3,0.6,4.5,1.6,6.5
		c0.4,0.7,1.3,1,2,0.7c0.1-0.1,0.3-0.2,0.4-0.3c0.4-0.4,0.6-1.1,0.3-1.7c-0.8-1.6-1.3-3.4-1.3-5.3c-0.1-2.7,0.7-5.2,2.2-7.4
		c0.5-0.7,0.3-1.6-0.4-2C40.2,43.8,39.3,44,38.8,44.6L38.8,44.6z M38.8,44.6"/>
</g>
</svg>
