<?xml version="1.0" encoding="utf-8"?>
<!-- Generator: Adobe Illustrator 18.0.0, SVG Export Plug-In . SVG Version: 6.00 Build 0)  -->
<!DOCTYPE svg PUBLIC "-//W3C//DTD SVG 1.1//EN" "http://www.w3.org/Graphics/SVG/1.1/DTD/svg11.dtd">
<svg version="1.1" id="图层_1" xmlns="http://www.w3.org/2000/svg" xmlns:xlink="http://www.w3.org/1999/xlink" x="0px" y="0px"
	 viewBox="20 20 80 80" enable-background="new 20 20 80 80" xml:space="preserve">
<g>
	<path fill="#39B54A" d="M58.2,73.6c-2,0-3.7,1.7-3.7,3.7c0,2.1,1.7,3.7,3.7,3.7c2,0,3.7-1.7,3.7-3.7S60.2,73.6,58.2,73.6L58.2,73.6
		z M75.8,73.6c-2,0-3.7,1.7-3.7,3.7c0,2.1,1.7,3.7,3.7,3.7c2,0,3.7-1.7,3.7-3.7C79.6,75.3,77.9,73.6,75.8,73.6L75.8,73.6z
		 M80.2,66.7H54.5l-8.9-26.5c-0.3-0.8-1-1.2-1.8-1.2h-7.9c-1,0-1.9,0.7-1.9,1.8c0,1,0.8,1.8,1.9,1.8h6.5l8.9,26.5
		c0.3,0.8,1,1.2,1.8,1.2h27.1c1,0,1.9-0.7,1.9-1.8C82.1,67.5,81.2,66.7,80.2,66.7L80.2,66.7z M84.2,46.1l-31.9-2.8
		c-1-0.1-1.6,0.6-1.3,1.6l5.7,16.9c0.3,1,1.5,1.9,2.5,1.9h23.4c1,0,2-1,2.1-2L86,48.2C86,47.2,85.3,46.2,84.2,46.1L84.2,46.1z"/>
</g>
<rect x="20.7" y="20.7" fill="none" width="78.7" height="78.7"/>
</svg>
