<?xml version="1.0" encoding="utf-8"?>
<!-- Generator: Adobe Illustrator 18.0.0, SVG Export Plug-In . SVG Version: 6.00 Build 0)  -->
<!DOCTYPE svg PUBLIC "-//W3C//DTD SVG 1.1//EN" "http://www.w3.org/Graphics/SVG/1.1/DTD/svg11.dtd">
<svg version="1.1" id="图层_1" xmlns="http://www.w3.org/2000/svg" xmlns:xlink="http://www.w3.org/1999/xlink" x="0px" y="0px"
	 viewBox="20 20 80 80" enable-background="new 20 20 80 80" xml:space="preserve">
<rect x="20" y="20" fill="none" width="80" height="80"/>
<g>
	<linearGradient id="SVGID_1_" gradientUnits="userSpaceOnUse" x1="60" y1="38.4713" x2="60" y2="87.9611">
		<stop  offset="0" style="stop-color:#4EB3FE"/>
		<stop  offset="0.17" style="stop-color:#4CA9FB"/>
		<stop  offset="0.4613" style="stop-color:#468DF3"/>
		<stop  offset="0.8364" style="stop-color:#3E61E5"/>
		<stop  offset="0.9749" style="stop-color:#3A4FE0"/>
	</linearGradient>
	<path fill="url(#SVGID_1_)" d="M47.1,70.5l12.1,12.9c0.4,0.4,1.1,0.4,1.6,0l12.1-12.8c4-3.8,6.6-8.8,6.6-14.6
		c0-10.9-8.7-19.7-19.5-19.7c-10.8,0-19.5,8.7-19.5,19.6c0,5.9,2.6,10.9,6.7,14.7L47.1,70.5L47.1,70.5z"/>
	<ellipse fill="#FFFFFF" cx="60" cy="55" rx="14.5" ry="14.7"/>
	<g>
		<path fill="#272636" d="M66.6,59.6V58H71v1.6H66.6L66.6,59.6z M64.2,59.6h-2.7c-0.3,0-0.6-0.2-0.7-0.5c-0.1,0-0.2-0.1-0.3-0.2
			l-0.9-0.9v1.8h-6v-3.5c0-0.9,0.7-1.6,1.6-1.6H58c0.7,0,1.3,0.4,1.5,1c0.1,0,0.2,0.1,0.2,0.2l1.9,1.9c0.1,0.1,0.1,0.1,0.1,0.2h2.4
			c0.4,0,0.8,0.4,0.8,0.8C65,59.2,64.6,59.6,64.2,59.6L64.2,59.6z M59,52c0,1.2-1,2.2-2.2,2.2c-1.2,0-2.2-1-2.2-2.2
			c0-1.2,1-2.2,2.2-2.2C58.1,49.8,59,50.8,59,52L59,52z M61.2,47.6H52v14.7h9.2v-2h1.1v3.1H50.9V46.6h11.4v3.8h-1.1V47.6L61.2,47.6z
			 M61.2,47.6"/>
	</g>
</g>
</svg>
