<?xml version="1.0" encoding="utf-8"?>
<!-- Generator: Adobe Illustrator 18.0.0, SVG Export Plug-In . SVG Version: 6.00 Build 0)  -->
<!DOCTYPE svg PUBLIC "-//W3C//DTD SVG 1.1//EN" "http://www.w3.org/Graphics/SVG/1.1/DTD/svg11.dtd">
<svg version="1.1" id="图层_1" xmlns="http://www.w3.org/2000/svg" xmlns:xlink="http://www.w3.org/1999/xlink" x="0px" y="0px"
	 viewBox="20 20 80 80" enable-background="new 20 20 80 80" xml:space="preserve">
<rect x="20" y="20" fill="none" width="80" height="80"/>
<g>
	<linearGradient id="SVGID_1_" gradientUnits="userSpaceOnUse" x1="60" y1="38.4713" x2="60" y2="87.9611">
		<stop  offset="0" style="stop-color:#4EB3FE"/>
		<stop  offset="0.17" style="stop-color:#4CA9FB"/>
		<stop  offset="0.4613" style="stop-color:#468DF3"/>
		<stop  offset="0.8364" style="stop-color:#3E61E5"/>
		<stop  offset="0.9749" style="stop-color:#3A4FE0"/>
	</linearGradient>
	<path fill="url(#SVGID_1_)" d="M47.1,70.5l12.1,12.9c0.4,0.4,1.1,0.4,1.6,0l12.1-12.8c4-3.8,6.6-8.8,6.6-14.6
		c0-10.9-8.7-19.7-19.5-19.7c-10.8,0-19.5,8.7-19.5,19.6c0,5.9,2.6,10.9,6.7,14.7L47.1,70.5L47.1,70.5z"/>
	<ellipse fill="#FFFFFF" cx="60" cy="55" rx="14.5" ry="14.7"/>
	<g>
		<path fill="#272636" d="M59,57.5c0.4,0.1,0.9,0.1,1.4,0.1c2.5,0,4.6-0.6,6.1-1.8c1.1-1,1.7-2.4,1.7-4.1c0-1.7-0.8-3.1-2-4
			c-1.2-1-3.1-1.4-5.7-1.4c-2.6,0-4.4,0.2-5.7,0.4v17.1H59V57.5L59,57.5z M59,49.4c0.3-0.1,0.9-0.1,1.7-0.1c2.1,0,3.3,1,3.3,2.5
			c0,1.7-1.4,2.8-3.6,2.8c-0.6,0-1.1,0-1.4-0.1V49.4L59,49.4z M59,49.4"/>
	</g>
</g>
</svg>
