<?xml version="1.0" encoding="utf-8"?>
<!-- Generator: Adobe Illustrator 18.0.0, SVG Export Plug-In . SVG Version: 6.00 Build 0)  -->
<!DOCTYPE svg PUBLIC "-//W3C//DTD SVG 1.1//EN" "http://www.w3.org/Graphics/SVG/1.1/DTD/svg11.dtd">
<svg version="1.1" id="图层_1" xmlns="http://www.w3.org/2000/svg" xmlns:xlink="http://www.w3.org/1999/xlink" x="0px" y="0px"
	 viewBox="0 0 24 24" enable-background="new 0 0 24 24" xml:space="preserve">
<g>
	<path fill="#FFFFFF" d="M14.8,16.1c-0.9,0.9-3.2,0.1-5.1-1.8c-2-2-2.6-4.3-1.8-5.1l1-1L4.9,4.3C3.2,6,2.9,8.5,3.9,10.6l0,0
		c1.1,2.4,1.7,3.9,3.7,5.8c2,2,3.4,2.7,5.8,3.7l0,0c2.1,1,4.6,0.6,6.3-1.1l-3.9-3.9L14.8,16.1L14.8,16.1z M9.3,5.1L8,3.8
		C7.2,3,6.2,3.2,5.4,3.9l3.9,3.9C9.9,6.9,10.1,6,9.3,5.1L9.3,5.1z M20.2,16l-1.3-1.3c-0.8-0.8-1.7-0.6-2.6,0l3.9,3.9
		C20.8,17.8,21,16.8,20.2,16L20.2,16z M20.2,16"/>
</g>
<rect fill="none" width="24" height="24"/>
</svg>
