<?xml version="1.0" encoding="utf-8"?>
<!-- Generator: Adobe Illustrator 18.0.0, SVG Export Plug-In . SVG Version: 6.00 Build 0)  -->
<!DOCTYPE svg PUBLIC "-//W3C//DTD SVG 1.1//EN" "http://www.w3.org/Graphics/SVG/1.1/DTD/svg11.dtd">
<svg version="1.1" id="图层_1" xmlns="http://www.w3.org/2000/svg" xmlns:xlink="http://www.w3.org/1999/xlink" x="0px" y="0px"
	 viewBox="0 0 44 19" enable-background="new 0 0 44 19" xml:space="preserve">
<g>
	<g>
		<path fill="#4D4D4D" d="M30.2,10.8c-1.7,0-3.1,1.4-3.1,3.1c0,1.7,1.4,3.1,3.1,3.1c1.7,0,3.1-1.4,3.1-3.1
			C33.3,12.2,31.9,10.8,30.2,10.8L30.2,10.8z M30.2,15.9c-1.1,0-2-0.9-2-2s0.9-2,2-2c1.1,0,2,0.9,2,2S31.3,15.9,30.2,15.9L30.2,15.9
			z M40.5,10.8c-1.7,0-3.1,1.4-3.1,3.1c0,1.7,1.4,3.1,3.1,3.1c1.7,0,3.1-1.4,3.1-3.1C43.6,12.2,42.2,10.8,40.5,10.8L40.5,10.8z
			 M40.5,15.9c-1.1,0-2-0.9-2-2s0.9-2,2-2c1.1,0,2,0.9,2,2S41.6,15.9,40.5,15.9L40.5,15.9z M39.8,6.1c1.1,0,2-0.9,2-2s-0.9-2-2-2
			c-1.1,0-2,0.9-2,2S38.7,6.1,39.8,6.1L39.8,6.1z M36.5,10.8c-0.5-0.4-1.3-1.1-1.8-1.6c0.6-0.5,1.7-1.2,2.7-1.6L39.2,9c0,0,0,0,0,0
			c0,0,0,0,0,0c0,0,0,0,0,0c0,0,0,0,0,0c0,0,0,0,0,0l0,0c0.1,0,0.1,0.1,0.2,0.1c0,0,0,0,0,0c0,0,0,0,0,0c0,0,0,0,0,0c0,0,0,0,0,0
			l0,0h2.4c0.3,0,0.5-0.2,0.5-0.5S42.2,8,41.9,8h-2.1l-2.3-2.6c-0.1-0.1-0.1-0.2-0.2-0.2C37.2,5,37,4.8,36.7,4.8c0,0,0,0,0,0
			c0,0,0,0,0,0c0,0,0,0,0,0c-1.1,0.1-2.3,0.8-3.1,1.3c-0.9,0.6-1.7,1.4-2.2,2.1c-0.3,0.5-0.3,0.8-0.2,1.1c0.1,0.2,0.1,0.5,0.6,0.9
			c0.3,0.2,0.7,0.5,1.2,0.9c0.6,0.4,1.2,0.8,1.5,1l0.5,3.8c0,0.3,0.3,0.5,0.5,0.5c0,0,0,0,0,0c0.3,0,0.5-0.2,0.5-0.5
			c0-0.2,0.6-3.9,0.6-4.8C36.7,11,36.6,10.9,36.5,10.8L36.5,10.8z M36.5,10.8"/>
	</g>
	<g>
		<g>
			<path fill="#4D4D4D" d="M11.7,8.9c-0.2-0.2-0.4-0.4-0.7-0.4c-0.8-0.2-1.9-0.8-2.4-2.2C8.4,5.6,8,5.2,7.5,4.8
				c1-0.2,1.8-1.1,1.8-2.2c0-1.2-1-2.2-2.1-2.2C5.9,0.5,5,1.5,5,2.7C5,3.4,5.3,4,5.8,4.4c0,0-0.1,0-0.1,0c-0.2,0-0.7,0-2.4,1.1
				C2.4,6.1,1.7,6.7,1.6,6.7c0,0,0,0,0,0C1.2,7,1,8,0.9,8.4c-0.2,0.8-0.2,1.6-0.1,2c0.1,0.4,0.3,0.5,0.4,0.5c0.1,0,0.1,0,0.2,0
				c0.3,0,0.5-0.2,0.7-0.5c0.1-0.3,0.2-0.6,0.3-1C2.5,9.3,2.5,9,2.6,8.8c0.2-0.7,1-1.3,1.5-1.6c0,0.4,0,1.1-0.2,1.6
				c-0.3,0.8-0.6,1.6-0.8,3.6c-0.1,1.3-0.5,1.7-1.2,2.4c-0.2,0.3-0.5,0.5-0.8,0.9c-0.8,0.9-0.7,1.6-0.6,1.9c0.2,0.4,0.6,0.6,0.9,0.6
				c0,0,0.1,0,0.1,0c0.1,0,0.4-0.1,0.9-0.6c0.3-0.3,0.7-0.7,1.1-1.2c0.7-0.8,1.5-1.8,1.7-2.3c0.2-0.5,0.3-1.1,0.3-1.6l0.8,0.7
				c0.9,0.8,1.1,2,1.4,3.3c0.1,0.3,0.1,0.6,0.2,0.9c0.1,0.4,0.2,0.6,0.3,0.8c0.2,0.3,0.4,0.3,0.6,0.3c0.6,0,1-0.9,1-1.5
				c0-0.1,0-0.2,0-0.4c0-1,0.1-2.9-0.6-3.8c-0.2-0.3-0.5-0.5-0.7-0.8c-0.6-0.6-1.3-1.3-1.3-2c0-0.5,0.2-1.1,0.4-1.4
				c0.3,0.4,0.7,0.6,1,0.8c0.6,0.3,1.4,0.6,2,0.7c0.1,0,0.2,0,0.3,0c0.6,0,0.9-0.4,1-0.7C11.9,9.4,11.9,9.1,11.7,8.9L11.7,8.9z
				 M5.6,2.7c0-0.9,0.7-1.6,1.6-1.6c0.9,0,1.6,0.7,1.6,1.6c0,0.9-0.7,1.6-1.6,1.6C6.3,4.3,5.6,3.6,5.6,2.7L5.6,2.7z M11.3,9.5
				c0,0.1-0.2,0.2-0.4,0.2c-0.1,0-0.1,0-0.2,0C9.5,9.5,8,8.7,7.9,8c0-0.1-0.1-0.2-0.2-0.2c-0.1,0-0.2,0-0.3,0.1c0,0-0.7,1.2-0.7,2.2
				c0,0.8,0.7,1.6,1.4,2.4c0.3,0.3,0.5,0.5,0.7,0.8c0.5,0.7,0.5,2.5,0.5,3.4c0,0.1,0,0.3,0,0.4c0,0.2-0.1,0.4-0.2,0.6
				c-0.1,0.2-0.2,0.2-0.2,0.3c0,0-0.2-0.1-0.3-0.7c-0.1-0.3-0.1-0.6-0.2-0.9c-0.3-1.4-0.5-2.7-1.6-3.6l-1.2-1
				c-0.1,0-0.1-0.1-0.2-0.1c0,0-0.1,0-0.1,0c-0.1,0-0.2,0.1-0.2,0.3c0,0-0.1,1.3-0.3,2C4.7,14.2,4,15.1,3.2,16
				c-1,1.1-1.6,1.6-1.7,1.6c-0.1,0-0.4-0.1-0.4-0.3c-0.1-0.3,0-0.8,0.5-1.3c0.3-0.4,0.6-0.6,0.8-0.9c0.7-0.8,1.2-1.3,1.4-2.8
				C3.9,10.6,4.2,9.8,4.5,9c0.4-0.8,0.2-2.2,0.2-2.3c0-0.1-0.1-0.2-0.1-0.2c-0.1,0-0.2-0.1-0.3,0c-0.1,0-1.8,0.9-2.2,2.1
				C2,8.9,1.9,9.1,1.9,9.4c-0.1,0.5-0.3,1.1-0.4,1.1c0,0,0,0,0,0c0-0.1-0.1-0.3-0.1-0.8c0.1-1,0.4-2.2,0.7-2.5
				c0.1-0.1,0.8-0.6,1.6-1.1c1.5-0.9,2-1,2.1-1c1.3,0,2,0.5,2.4,1.5c0.3,0.7,0.7,1.3,1.2,1.8c0.4,0.3,1,0.6,1.6,0.8
				C11.2,9.1,11.4,9.4,11.3,9.5L11.3,9.5z M11.3,9.5"/>
		</g>
		<circle fill="#4D4D4D" cx="7.2" cy="2.5" r="1.8"/>
		<polygon fill="#4D4D4D" points="5.3,4.9 1.8,6.9 1,9 1.1,10.6 1.6,10.6 2.4,8.2 4.1,6.9 4.5,6.8 4.3,8.8 3.5,11 3.3,13.3 
			2.5,14.5 0.8,16.5 0.7,17.3 1.2,17.9 1.8,17.7 4.9,14.5 5.3,12.8 5.5,11.9 7.2,13.7 8.1,16.5 8.5,17.9 8.9,18.2 9.4,17.9 
			9.5,13.8 9,13 7.2,10.9 6.9,10.2 7,9.5 7.6,8.1 8,8.8 10.1,9.8 11.5,9.9 11.5,9.1 9.9,8.4 8.9,7.4 8.1,5.8 7.5,5.1 6.3,4.7 		"/>
	</g>
	<g>
		<path fill="#CCCCCC" d="M17.7,17.3l4.9-15.7h1.1l-5,15.7H17.7z"/>
	</g>
</g>
<rect fill="none" width="44" height="19"/>
</svg>
