<?xml version="1.0" encoding="utf-8"?>
<!-- Generator: Adobe Illustrator 18.0.0, SVG Export Plug-In . SVG Version: 6.00 Build 0)  -->
<!DOCTYPE svg PUBLIC "-//W3C//DTD SVG 1.1//EN" "http://www.w3.org/Graphics/SVG/1.1/DTD/svg11.dtd">
<svg version="1.1" id="图层_1" xmlns="http://www.w3.org/2000/svg" xmlns:xlink="http://www.w3.org/1999/xlink" x="0px" y="0px"
	 viewBox="20 20 80 80" enable-background="new 20 20 80 80" xml:space="preserve">
<g>
	<linearGradient id="SVGID_1_" gradientUnits="userSpaceOnUse" x1="60" y1="34.6452" x2="60" y2="83.2513">
		<stop  offset="0" style="stop-color:#4EB3FE"/>
		<stop  offset="0.3653" style="stop-color:#49A9F6"/>
		<stop  offset="0.9893" style="stop-color:#3A8EE0"/>
		<stop  offset="1" style="stop-color:#3A8DE0"/>
	</linearGradient>
	<path fill="url(#SVGID_1_)" d="M47.1,66.1l12.1,12.6c0.4,0.4,1.1,0.4,1.6,0l12.1-12.6c4-3.7,6.6-8.6,6.6-14.4
		c0-10.7-8.7-19.3-19.5-19.3c-10.8,0-19.5,8.6-19.5,19.3c0,5.8,2.6,10.7,6.7,14.4L47.1,66.1L47.1,66.1z"/>
	<linearGradient id="SVGID_2_" gradientUnits="userSpaceOnUse" x1="44.8722" y1="83.7512" x2="75.1278" y2="83.7512">
		<stop  offset="0" style="stop-color:#4E9CFE"/>
		<stop  offset="0.248" style="stop-color:#4696F2"/>
		<stop  offset="0.6418" style="stop-color:#3D8FE4"/>
		<stop  offset="1" style="stop-color:#3A8DE0"/>
	</linearGradient>
	<path fill="url(#SVGID_2_)" d="M75.1,83.9c0,2-1.6,3.6-3.7,3.6H48.5c-2,0-3.7-1.6-3.7-3.6v-0.2c0-2,1.6-3.6,3.7-3.6h22.9
		c2,0,3.7,1.6,3.7,3.6V83.9L75.1,83.9z"/>
	<ellipse fill="#FFFFFF" cx="60" cy="50.9" rx="14.5" ry="14.4"/>
	<g>
		<g>
			<path fill="#067EBA" d="M56.6,53.8l-1.1-0.6c0,0,1.2-2.5,0-5.5c-1.3-3.3,0.4-6.2,0.4-6.4L57,42c0,0-1.4,2.6-0.4,5.3
				C58.1,50.8,56.6,53.8,56.6,53.8L56.6,53.8z M60.2,53.8l-1.1-0.6c0,0,1.2-2.5,0-5.5c-1.3-3.3,0.4-6.2,0.4-6.4l1.1,0.6
				c0,0-1.4,2.6-0.4,5.3C61.6,50.8,60.2,53.8,60.2,53.8L60.2,53.8z M63.9,53.8l-1.2-0.6c0,0,1.2-2.5,0-5.5c-1.3-3.3,0.4-6.2,0.4-6.4
				l1.1,0.6c0,0-1.4,2.6-0.4,5.3C65.3,50.8,63.9,53.8,63.9,53.8L63.9,53.8z M66,47.6l-0.4,1.2c1.8,1,2.9,2.5,2.9,4.2
				c0,3.1-3.8,5.6-8.4,5.6s-8.4-2.5-8.4-5.6c0-1.7,1.1-3.1,2.9-4.2L54,47.6c-2.2,1.3-3.7,3.2-3.7,5.3c0,3.8,4.4,6.8,9.7,6.8
				s9.7-3.1,9.7-6.8C69.7,50.8,68.3,48.8,66,47.6L66,47.6z"/>
			<path fill="#067EBA" d="M60,60.1c-5.6,0-10.1-3.2-10.1-7.2c0-2.2,1.4-4.3,3.9-5.7l0.4-0.2l0.7,1.9l-0.3,0.2
				c-1.7,1-2.7,2.4-2.7,3.8c0,2.9,3.6,5.2,8.1,5.2s8.1-2.3,8.1-5.2c0-1.4-1-2.8-2.7-3.8l-0.3-0.2l0.7-1.9l0.4,0.2
				c2.5,1.4,3.9,3.5,3.9,5.7C70.1,56.9,65.6,60.1,60,60.1z M53.8,48.1c-2,1.2-3.1,3-3.1,4.8c0,3.6,4.2,6.4,9.3,6.4s9.3-2.9,9.3-6.4
				c0-1.8-1.2-3.6-3.2-4.8L66,48.6c1.8,1.1,2.8,2.7,2.8,4.3c0,3.3-4,5.9-8.8,5.9c-4.9,0-8.8-2.7-8.8-5.9c0-1.7,1-3.2,2.8-4.3
				L53.8,48.1z M60.6,54.4l-1.9-0.9v-0.2c0-0.1,0-0.1,0-0.2c0.3-0.8,0.9-2.8-0.1-5.2c-1.2-3.1,0-5.9,0.5-6.7l0.2-0.3l0.3,0.2
				l1.3,0.7V42c0,0.1,0,0.1-0.1,0.2c-0.4,0.8-1.2,2.8-0.3,4.9c1.2,3.1,0.4,5.7,0,6.8V54.4z M59.5,53.1l0.5,0.2
				c0.3-1,0.9-3.3-0.1-5.9c-0.8-2.2-0.2-4.2,0.2-5.2l-0.5-0.3c-0.5,1-1.2,3.3-0.3,5.7C60.3,50,59.9,52.1,59.5,53.1z M57,54.4
				l-1.9-0.9v-0.2c0-0.1,0-0.1,0-0.2c0.3-0.8,0.9-2.8-0.1-5.2c-1.2-3.1,0-5.9,0.5-6.7l0.2-0.3l0.3,0.2l1.3,0.7V42
				c0,0.1,0,0.1-0.1,0.2C57,43,56.2,45,57,47.1c1.2,3.1,0.4,5.7,0,6.8V54.4z M56,53.1l0.5,0.2c0.3-1,0.9-3.3-0.1-5.9
				c-0.8-2.2-0.2-4.2,0.2-5.2l-0.5-0.3c-0.5,1-1.2,3.3-0.3,5.7C56.8,50,56.3,52.1,56,53.1z M64,54.3l-1.6-0.8v-0.2
				c0-0.1,0-0.1,0-0.2c0.3-0.8,0.9-2.8-0.1-5.2c-1.2-3.1,0-5.9,0.5-6.7l0.2-0.3l0.3,0.2l1.3,0.7V42c0,0.1,0,0.1-0.1,0.2
				c-0.4,0.8-1.2,2.8-0.3,4.9c1.5,3.7,0.1,6.8-0.1,7L64,54.3z M63.2,53.1l0.5,0.2c0.3-0.8,1-3.2-0.2-5.9c-0.8-2.2-0.2-4.2,0.2-5.3
				l-0.5-0.3c-0.5,1-1.2,3.3-0.3,5.7C64,50,63.5,52.1,63.2,53.1z"/>
		</g>
	</g>
</g>
</svg>
