<?xml version="1.0" encoding="utf-8"?>
<!-- Generator: Adobe Illustrator 18.0.0, SVG Export Plug-In . SVG Version: 6.00 Build 0)  -->
<!DOCTYPE svg PUBLIC "-//W3C//DTD SVG 1.1//EN" "http://www.w3.org/Graphics/SVG/1.1/DTD/svg11.dtd">
<svg version="1.1" id="图层_1" xmlns="http://www.w3.org/2000/svg" xmlns:xlink="http://www.w3.org/1999/xlink" x="0px" y="0px"
	 viewBox="20 20 80 80" enable-background="new 20 20 80 80" xml:space="preserve">
<rect x="20" y="20" fill="none" width="80" height="80"/>
<g>
	<linearGradient id="SVGID_1_" gradientUnits="userSpaceOnUse" x1="60" y1="38.4713" x2="60" y2="87.9611">
		<stop  offset="0" style="stop-color:#4EB3FE"/>
		<stop  offset="0.17" style="stop-color:#4CA9FB"/>
		<stop  offset="0.4613" style="stop-color:#468DF3"/>
		<stop  offset="0.8364" style="stop-color:#3E61E5"/>
		<stop  offset="0.9749" style="stop-color:#3A4FE0"/>
	</linearGradient>
	<path fill="url(#SVGID_1_)" d="M47.1,70.5l12.1,12.9c0.4,0.4,1.1,0.4,1.6,0l12.1-12.8c4-3.8,6.6-8.8,6.6-14.6
		c0-10.9-8.7-19.7-19.5-19.7c-10.8,0-19.5,8.7-19.5,19.6c0,5.9,2.6,10.9,6.7,14.7L47.1,70.5L47.1,70.5z"/>
	<ellipse fill="#FFFFFF" cx="60" cy="55" rx="14.5" ry="14.7"/>
	<g>
		<g>
			<path fill="#067EBA" d="M56.6,58.3l-1.1-0.6c0,0,1.2-2.5,0-5.5c-1.3-3.3,0.4-6.2,0.4-6.4l1.1,0.6c0,0-1.4,2.6-0.4,5.3
				C58.1,55.3,56.6,58.3,56.6,58.3L56.6,58.3z M60.2,58.3l-1.1-0.6c0,0,1.2-2.5,0-5.5c-1.3-3.3,0.4-6.2,0.4-6.4l1.1,0.6
				c0,0-1.4,2.6-0.4,5.3C61.6,55.3,60.2,58.3,60.2,58.3L60.2,58.3z M63.9,58.3l-1.2-0.6c0,0,1.2-2.5,0-5.5c-1.3-3.3,0.4-6.2,0.4-6.4
				l1.1,0.6c0,0-1.4,2.6-0.4,5.3C65.3,55.3,63.9,58.3,63.9,58.3L63.9,58.3z M66,52.1l-0.4,1.2c1.8,1,2.9,2.5,2.9,4.2
				c0,3.1-3.8,5.6-8.4,5.6s-8.4-2.5-8.4-5.6c0-1.7,1.1-3.1,2.9-4.2L54,52.1c-2.2,1.3-3.7,3.2-3.7,5.3c0,3.8,4.4,6.8,9.7,6.8
				s9.7-3.1,9.7-6.8C69.7,55.3,68.3,53.3,66,52.1L66,52.1z"/>
			<path fill="#067EBA" d="M60,64.6c-5.6,0-10.1-3.2-10.1-7.2c0-2.2,1.4-4.3,3.9-5.7l0.4-0.2l0.7,1.9l-0.3,0.2
				c-1.7,1-2.7,2.4-2.7,3.8c0,2.9,3.6,5.2,8.1,5.2s8.1-2.3,8.1-5.2c0-1.4-1-2.8-2.7-3.8l-0.3-0.2l0.7-1.9l0.4,0.2
				c2.5,1.4,3.9,3.5,3.9,5.7C70.1,61.4,65.6,64.6,60,64.6z M53.8,52.6c-2,1.2-3.1,3-3.1,4.8c0,3.6,4.2,6.4,9.3,6.4s9.3-2.9,9.3-6.4
				c0-1.8-1.2-3.6-3.2-4.8L66,53.1c1.8,1.1,2.8,2.7,2.8,4.3c0,3.3-4,5.9-8.8,5.9c-4.9,0-8.8-2.7-8.8-5.9c0-1.7,1-3.2,2.8-4.3
				L53.8,52.6z M60.6,58.9L58.7,58v-0.2c0-0.1,0-0.1,0-0.2c0.3-0.8,0.9-2.8-0.1-5.2c-1.2-3.1,0-5.9,0.5-6.7l0.2-0.3l0.3,0.2l1.3,0.7
				v0.2c0,0.1,0,0.1-0.1,0.2c-0.4,0.8-1.2,2.8-0.3,4.9c1.2,3.1,0.4,5.7,0,6.8V58.9z M59.5,57.6l0.5,0.2c0.3-1,0.9-3.3-0.1-5.9
				c-0.8-2.2-0.2-4.2,0.2-5.2l-0.5-0.3c-0.5,1-1.2,3.3-0.3,5.7C60.3,54.5,59.9,56.6,59.5,57.6z M57,58.9L55.1,58v-0.2
				c0-0.1,0-0.1,0-0.2c0.3-0.8,0.9-2.8-0.1-5.2c-1.2-3.1,0-5.9,0.5-6.7l0.2-0.3l0.3,0.2l1.3,0.7v0.2c0,0.1,0,0.1-0.1,0.2
				c-0.4,0.8-1.2,2.8-0.3,4.9c1.2,3.1,0.4,5.7,0,6.8V58.9z M56,57.6l0.5,0.2c0.3-1,0.9-3.3-0.1-5.9c-0.8-2.2-0.2-4.2,0.2-5.2
				l-0.5-0.3c-0.5,1-1.2,3.3-0.3,5.7C56.8,54.5,56.3,56.6,56,57.6z M64,58.8L62.4,58v-0.2c0-0.1,0-0.1,0-0.2
				c0.3-0.8,0.9-2.8-0.1-5.2c-1.2-3.1,0-5.9,0.5-6.7l0.2-0.3l0.3,0.2l1.3,0.7v0.2c0,0.1,0,0.1-0.1,0.2c-0.4,0.8-1.2,2.8-0.3,4.9
				c1.5,3.7,0.1,6.8-0.1,7L64,58.8z M63.2,57.6l0.5,0.2c0.3-0.8,1-3.2-0.2-5.9c-0.8-2.2-0.2-4.2,0.2-5.3l-0.5-0.3
				c-0.5,1-1.2,3.3-0.3,5.7C64,54.5,63.5,56.6,63.2,57.6z"/>
		</g>
	</g>
</g>
</svg>
