<?xml version="1.0" encoding="utf-8"?>
<!-- Generator: Adobe Illustrator 18.0.0, SVG Export Plug-In . SVG Version: 6.00 Build 0)  -->
<!DOCTYPE svg PUBLIC "-//W3C//DTD SVG 1.1//EN" "http://www.w3.org/Graphics/SVG/1.1/DTD/svg11.dtd">
<svg version="1.1" id="图层_1" xmlns="http://www.w3.org/2000/svg" xmlns:xlink="http://www.w3.org/1999/xlink" x="0px" y="0px"
	 viewBox="20 20 80 80" enable-background="new 20 20 80 80" xml:space="preserve">
<rect x="20" y="20" fill="none" width="80" height="80"/>
<g>
	<linearGradient id="SVGID_1_" gradientUnits="userSpaceOnUse" x1="60" y1="36.8463" x2="60" y2="86.3361">
		<stop  offset="0" style="stop-color:#FF3F4F"/>
		<stop  offset="0.1806" style="stop-color:#F53849"/>
		<stop  offset="0.4901" style="stop-color:#D9233A"/>
		<stop  offset="0.8888" style="stop-color:#AD0322"/>
		<stop  offset="0.9232" style="stop-color:#A90020"/>
	</linearGradient>
	<path fill="url(#SVGID_1_)" d="M47.1,70.5l12.1,12.9c0.4,0.4,1.1,0.4,1.6,0l12.1-12.8c4-3.8,6.6-8.8,6.6-14.6
		c0-10.9-8.7-19.7-19.5-19.7c-10.8,0-19.5,8.7-19.5,19.6c0,5.9,2.6,10.9,6.7,14.7L47.1,70.5L47.1,70.5z"/>
	<ellipse fill="#FFFFFF" cx="60" cy="55" rx="14.5" ry="14.7"/>
	<g>
		<g>
			<path fill="#067EBA" d="M56.6,57.7l-1.1-0.6c0,0,1.2-2.5,0-5.5c-1.3-3.3,0.4-6.2,0.4-6.4l1.1,0.6c0,0-1.4,2.6-0.4,5.3
				C58.1,54.7,56.6,57.6,56.6,57.7L56.6,57.7z M60.2,57.7l-1.1-0.6c0,0,1.2-2.5,0-5.5c-1.3-3.3,0.4-6.2,0.4-6.4l1.1,0.6
				c0,0-1.4,2.6-0.4,5.3C61.6,54.7,60.2,57.6,60.2,57.7L60.2,57.7z M63.9,57.7l-1.2-0.6c0,0,1.2-2.5,0-5.5c-1.3-3.3,0.4-6.2,0.4-6.4
				l1.1,0.6c0,0-1.4,2.6-0.4,5.3C65.3,54.7,63.9,57.6,63.9,57.7L63.9,57.7z M66,51.5l-0.4,1.2c1.8,1,2.9,2.5,2.9,4.2
				c0,3.1-3.8,5.6-8.4,5.6s-8.4-2.5-8.4-5.6c0-1.7,1.1-3.1,2.9-4.2L54,51.5c-2.2,1.3-3.7,3.2-3.7,5.3c0,3.8,4.4,6.8,9.7,6.8
				s9.7-3.1,9.7-6.8C69.7,54.7,68.3,52.7,66,51.5L66,51.5z"/>
			<path fill="#067EBA" d="M60,64c-5.6,0-10.1-3.2-10.1-7.2c0-2.2,1.4-4.3,3.9-5.7l0.4-0.2l0.7,1.9l-0.3,0.2c-1.7,1-2.7,2.4-2.7,3.8
				c0,2.9,3.6,5.2,8.1,5.2s8.1-2.3,8.1-5.2c0-1.4-1-2.8-2.7-3.8l-0.3-0.2l0.7-1.9l0.4,0.2c2.5,1.4,3.9,3.5,3.9,5.7
				C70.1,60.8,65.6,64,60,64z M53.8,52c-2,1.2-3.1,3-3.1,4.8c0,3.6,4.2,6.4,9.3,6.4s9.3-2.9,9.3-6.4c0-1.8-1.2-3.6-3.2-4.8L66,52.5
				c1.8,1.1,2.8,2.7,2.8,4.3c0,3.3-4,5.9-8.8,5.9c-4.9,0-8.8-2.7-8.8-5.9c0-1.7,1-3.2,2.8-4.3L53.8,52z M60.6,58.3l-1.9-0.9v-0.2
				c0-0.1,0-0.1,0-0.2c0.3-0.8,0.9-2.8-0.1-5.2c-1.2-3.1,0-5.9,0.5-6.7l0.2-0.3l0.3,0.2l1.3,0.7v0.2c0,0.1,0,0.1-0.1,0.2
				c-0.4,0.8-1.2,2.8-0.3,4.9c1.2,3.1,0.4,5.7,0,6.8V58.3z M59.5,56.9l0.5,0.2c0.3-1,0.9-3.3-0.1-5.9C59,49.1,59.7,47,60.1,46
				l-0.5-0.3c-0.5,1-1.2,3.3-0.3,5.7C60.3,53.9,59.9,55.9,59.5,56.9z M57,58.3l-1.9-0.9v-0.2c0-0.1,0-0.1,0-0.2
				c0.3-0.8,0.9-2.8-0.1-5.2c-1.2-3.1,0-5.9,0.5-6.7l0.2-0.3l0.3,0.2l1.3,0.7v0.2c0,0.1,0,0.1-0.1,0.2C57,46.8,56.2,48.9,57,51
				c1.2,3.1,0.4,5.7,0,6.8V58.3z M56,56.9l0.5,0.2c0.3-1,0.9-3.3-0.1-5.9c-0.8-2.2-0.2-4.2,0.2-5.2l-0.5-0.3c-0.5,1-1.2,3.3-0.3,5.7
				C56.8,53.9,56.3,55.9,56,56.9z M64,58.1l-1.6-0.8v-0.2c0-0.1,0-0.1,0-0.2c0.3-0.8,0.9-2.8-0.1-5.2c-1.2-3.1,0-5.9,0.5-6.7
				l0.2-0.3l0.3,0.2l1.3,0.7v0.2c0,0.1,0,0.1-0.1,0.2c-0.4,0.8-1.2,2.8-0.3,4.9c1.5,3.7,0.1,6.8-0.1,7L64,58.1z M63.2,56.9l0.5,0.2
				c0.3-0.8,1-3.2-0.2-5.9c-0.8-2.2-0.2-4.2,0.2-5.3l-0.5-0.3c-0.5,1-1.2,3.3-0.3,5.7C64,53.9,63.5,55.9,63.2,56.9z"/>
		</g>
	</g>
</g>
</svg>
