<?xml version="1.0" encoding="utf-8"?>
<!-- Generator: Adobe Illustrator 18.0.0, SVG Export Plug-In . SVG Version: 6.00 Build 0)  -->
<!DOCTYPE svg PUBLIC "-//W3C//DTD SVG 1.1//EN" "http://www.w3.org/Graphics/SVG/1.1/DTD/svg11.dtd">
<svg version="1.1" id="图层_1" xmlns="http://www.w3.org/2000/svg" xmlns:xlink="http://www.w3.org/1999/xlink" x="0px" y="0px"
	 viewBox="20 20 80 80" enable-background="new 20 20 80 80" xml:space="preserve">
<g>
	<linearGradient id="SVGID_1_" gradientUnits="userSpaceOnUse" x1="60" y1="38.4713" x2="60" y2="87.9611">
		<stop  offset="0" style="stop-color:#4EB3FE"/>
		<stop  offset="0.17" style="stop-color:#4CA9FB"/>
		<stop  offset="0.4613" style="stop-color:#468DF3"/>
		<stop  offset="0.8364" style="stop-color:#3E61E5"/>
		<stop  offset="0.9749" style="stop-color:#3A4FE0"/>
	</linearGradient>
	<path fill="url(#SVGID_1_)" d="M47.1,70.5l12.1,12.9c0.4,0.4,1.1,0.4,1.6,0l12.1-12.8c4-3.8,6.6-8.8,6.6-14.6
		c0-10.9-8.7-19.7-19.5-19.7c-10.8,0-19.5,8.7-19.5,19.6c0,5.9,2.6,10.9,6.7,14.7L47.1,70.5L47.1,70.5z"/>
	<ellipse fill="#FFFFFF" cx="60" cy="55" rx="14.5" ry="14.7"/>
	<g>
		<path fill="#272636" d="M52.1,48.6c0-0.8,0.7-1.5,1.5-1.5c0.8,0,1.5,0.7,1.5,1.5c0,0.8-0.7,1.5-1.5,1.5
			C52.7,50.1,52.1,49.3,52.1,48.6 M53.6,50.4L53.6,50.4c-1,0-1.9,0.4-2.6,1.1c-0.7,0.7-1.1,1.6-1,2.5v1.6c0,0.4,0.3,0.8,0.8,0.8
			c0.4,0,0.8-0.3,0.8-0.8V54c0-0.5,0.2-1,0.5-1.4v3.6l0,0v6.3c0,0.4,0.3,0.8,0.8,0.8c0.4,0,0.8-0.3,0.8-0.8V57H54v5.5
			c0,0.4,0.3,0.8,0.8,0.8c0.4,0,0.8-0.3,0.8-0.8v-6.3l0,0v-3.6C55.8,53,56,53.5,56,54v1.7c0,0.4,0.3,0.8,0.8,0.8
			c0.4,0,0.8-0.3,0.8-0.8V54C57.2,52,55.6,50.4,53.6,50.4 M70,55.4c-0.1-0.2-0.2-0.5-0.3-0.7c-0.7-1.7-1.8-4.2-4.3-4.2
			c-2.5,0-3.6,2.5-4.3,4.2c-0.1,0.2-0.2,0.5-0.3,0.7c-0.2,0.4,0,0.8,0.4,1c0.1,0.1,0.2,0.1,0.3,0.1c0.3,0,0.5-0.2,0.7-0.5
			c0.1-0.2,0.2-0.5,0.3-0.8c0.5-1.3,1-2.3,1.8-2.9l-1.9,4.7c-0.3,0.7,0.1,1.2,0.8,1.2h0.6v4.3c0,0.4,0.3,0.8,0.8,0.8
			c0.4,0,0.8-0.3,0.8-0.8v-4.3h0.4v4.3c0,0.4,0.3,0.8,0.8,0.8c0.4,0,0.8-0.3,0.8-0.8v-4.3h0.6c0.7,0,1.1-0.5,0.8-1.2l-1.9-4.7
			c0.7,0.5,1.2,1.6,1.8,2.9c0.1,0.2,0.2,0.5,0.3,0.8c0.2,0.3,0.4,0.5,0.7,0.5c0.1,0,0.2,0,0.3-0.1C70,56.1,70.1,55.7,70,55.4
			 M65.4,50c0.8,0,1.5-0.7,1.5-1.5S66.3,47,65.4,47c-0.8,0-1.5,0.7-1.5,1.5S64.6,50,65.4,50 M59.1,46.6c-0.2,0-0.4,0.2-0.4,0.4v15.7
			c0,0.2,0.2,0.4,0.4,0.4c0.2,0,0.4-0.2,0.4-0.4V47C59.5,46.8,59.3,46.6,59.1,46.6"/>
	</g>
</g>
<rect x="20" y="20" fill="none" width="80" height="80"/>
</svg>
