<?xml version="1.0" encoding="utf-8"?>
<!-- Generator: Adobe Illustrator 18.0.0, SVG Export Plug-In . SVG Version: 6.00 Build 0)  -->
<!DOCTYPE svg PUBLIC "-//W3C//DTD SVG 1.1//EN" "http://www.w3.org/Graphics/SVG/1.1/DTD/svg11.dtd">
<svg version="1.1" id="图层_1" xmlns="http://www.w3.org/2000/svg" xmlns:xlink="http://www.w3.org/1999/xlink" x="0px" y="0px"
	 viewBox="20 20 80 80" enable-background="new 20 20 80 80" xml:space="preserve">
<g>
	<linearGradient id="SVGID_1_" gradientUnits="userSpaceOnUse" x1="60" y1="39.7302" x2="60" y2="89.2201">
		<stop  offset="2.415459e-002" style="stop-color:#4E69B1"/>
		<stop  offset="0.2135" style="stop-color:#4862A7"/>
		<stop  offset="0.538" style="stop-color:#394E8B"/>
		<stop  offset="0.956" style="stop-color:#1F2E5F"/>
		<stop  offset="0.9749" style="stop-color:#1E2C5D"/>
	</linearGradient>
	<path fill="url(#SVGID_1_)" d="M47.1,71.8l12.1,12.9c0.4,0.4,1.1,0.4,1.6,0l12.1-12.8c4-3.8,6.6-8.8,6.6-14.6
		c0-10.9-8.7-19.7-19.5-19.7c-10.8,0-19.5,8.7-19.5,19.6c0,5.9,2.6,10.9,6.7,14.7L47.1,71.8L47.1,71.8z"/>
	<ellipse fill="#FFFFFF" cx="60" cy="56.3" rx="14.5" ry="14.7"/>
	<g>
		<polygon fill="#EF8201" points="62.5,58 63.1,58.8 63.9,59.2 64.7,59 65.7,58.6 66,58.6 66.2,59 65.5,60.4 64.8,61.1 65.1,62.3 
			65.2,63.8 65,65.4 64.5,66.3 63.1,66.9 62.5,66.8 61.7,66.4 61.5,65.7 61.9,64.8 62.3,63.9 62.3,63.4 62.1,63.3 61.7,63.1 
			61.7,62.5 61.5,62.2 61.3,62.2 60.7,63.9 60.4,65.2 60.4,66 59.9,66.7 59.3,67 58.6,67 57.8,66.8 57.1,66.1 57.1,65 57.4,64 
			57.9,63 58.6,62.2 59.1,61.8 59.6,61.4 59.8,61.1 59.7,60.3 59.4,58.7 		"/>
		<path fill="#F5AB00" d="M65.1,52.9"/>
		<g>
			<polygon fill="#EF8201" points="57.7,58.9 57.3,59.9 57.5,60.7 58.4,61.1 59.1,60.6 59.1,60 59.8,59.5 59.6,58.4 58.4,58.6 			
				"/>
			<g>
				<path fill="#F7AA02" d="M57.7,60.7c0,0,0.3,0,0.5-0.2l0.2,0.1l-0.2,0.2l-0.3,0.1L57.7,60.7L57.7,60.7z"/>
				<path fill="#F7AA02" d="M58.3,60.5c0,0,0.2,0,0.2-0.2l0,0.1l-0.1,0.1L58.3,60.5L58.3,60.5z"/>
				<path fill="#F7AA02" d="M58.3,60.8c0,0,0.3,0,0.4-0.2l0,0.2l-0.3,0.2l-0.3,0l0-0.1L58.3,60.8z"/>
				<path fill="#F7AA02" d="M58.9,60.5c0,0,0.1-0.1,0.1-0.2s0.1,0.1,0.1,0.1L59,60.6h-0.2L58.9,60.5z"/>
			</g>
			<g>
				<path fill="#231917" d="M57.9,61c-0.1,0-0.2,0-0.3-0.1c-0.5-0.3-0.4-0.9-0.4-1.2c0-0.3,0.3-0.7,0.3-0.7c0,0,0.1,0,0.1,0
					c0,0,0,0.1,0,0.1c0,0-0.2,0.3-0.3,0.6c0,0.3-0.1,0.8,0.3,1c0.1,0.1,0.2,0.1,0.3,0.1c0.2,0,0.3-0.2,0.3-0.2c0,0,0.1-0.1,0.1,0
					s0.1,0.1,0,0.1c0,0-0.2,0.3-0.4,0.3C58,61,57.9,61,57.9,61z"/>
				<path fill="#231917" d="M58.4,61.1C58.2,61.1,58,61,58,61c0,0-0.1-0.1,0-0.1c0,0,0.1-0.1,0.1,0c0.1,0,0.3,0.1,0.5,0
					c0.1-0.1,0.1-0.2,0.2-0.3c0-0.2-0.1-0.2-0.1-0.2c0,0-0.1-0.1,0-0.1c0,0,0.1-0.1,0.1,0c0,0,0.2,0.1,0.2,0.4c0,0,0,0,0,0
					c0,0.2-0.1,0.4-0.2,0.5C58.6,61.1,58.5,61.1,58.4,61.1z"/>
				<path fill="#231917" d="M58.9,60.8C58.8,60.8,58.8,60.8,58.9,60.8c-0.1-0.1-0.1-0.2,0-0.2c0,0,0.2-0.1,0.2-0.2
					c0-0.4-0.3-0.4-0.3-0.4c0,0-0.1,0-0.1-0.1c0-0.1,0-0.1,0.1-0.1c0,0,0.2,0,0.3,0.1c0.1,0.1,0.2,0.2,0.2,0.4c0,0,0,0,0,0
					C59.2,60.7,58.9,60.8,58.9,60.8C58.9,60.8,58.9,60.8,58.9,60.8z"/>
				<path fill="#231917" d="M58.4,60.7c-0.2,0-0.2-0.1-0.3-0.3l0-0.1c0-0.1-0.1-0.1-0.1-0.1c-0.1,0-0.1,0-0.1,0c0,0-0.1,0-0.1,0
					c0,0,0-0.1,0-0.1c0,0,0.1-0.1,0.3,0c0.1,0,0.2,0.1,0.2,0.2l0,0.1c0.1,0.2,0.1,0.2,0.2,0.1c0,0,0.1,0,0.1-0.1
					c0-0.2,0-0.4-0.1-0.6c0,0,0-0.1,0-0.1c0,0,0.1,0,0.1,0c0.1,0.2,0.2,0.5,0.1,0.8c0,0.1-0.1,0.2-0.2,0.2
					C58.5,60.7,58.5,60.7,58.4,60.7z"/>
				<path fill="#231917" d="M59.1,60.2C59.1,60.2,59.1,60.2,59.1,60.2c-0.1,0-0.1-0.1-0.1-0.1c0.1-0.3,0.5-0.6,0.5-0.6
					c0,0,0.1,0,0.1,0c0,0,0,0.1,0,0.1C59.7,59.6,59.3,59.9,59.1,60.2C59.2,60.1,59.2,60.2,59.1,60.2z"/>
			</g>
			<path fill="#EF8201" d="M60.3,48.4c1.5,0,2.6,0.4,3.3,1c0.2,0.2,0.6,0.2,0.8,0.4c0.2,0.2,0.2,0.7,0.3,1c0.4,0.7,0.5,1.5,0.5,2
				c0,1.7-0.7,4.3-4,5.7c-1.5,0.5-2.6,0.6-2.6,0.6s-1.3,0.2-1.8-0.2c-0.3-0.2-0.8-0.1-0.8-0.1s-0.6-0.2-0.7-0.6c0,0-1.4-0.7-0.4-1.9
				c0,0-0.7-1.7-0.6-3.5c0,0-1-1.5-0.1-2.3c0.8-0.6,1.5-0.2,1.5-0.2S56.7,48.5,60.3,48.4z"/>
			<g>
				<path fill="#F5AB00" d="M54.1,52.1c0,0-0.4-1.7,1.5-1.6l0.1-0.3h-0.8l-0.7,0.3l-0.3,0.6l0,0.8L54.1,52.1z"/>
				<path fill="#F5AB00" d="M55.7,50.4c0,0,2.1-1.7,4.4-1.7c0,0,1.3-0.1,2.7,0.7c1,0,0.3-0.3,0.3-0.3l-0.8-0.5l-1.3-0.3l-1.5,0.1
					l-1.6,0.4l-1.1,0.6l-0.5,0.4L55.7,50.4L55.7,50.4z"/>
				<path fill="#F5AB00" d="M60.4,50.7c0,0,1.4-1,2.8-0.9c1.3,0.1,1.5,0.4,1.5,0.4l-0.4-0.5l-0.7-0.4l-1,0.1l-1.2,0.4l-0.8,0.5
					L60.4,50.7z"/>
				<path fill="#F5AB00" d="M65.2,53c0,0-0.2,4.5-5.8,5.9V59l0.9-0.1l1.3-0.5l1.3-0.8l0.8-0.6l0.7-0.9l0.5-1l0.2-0.8l0.2-0.9
					L65.2,53z"/>
				<path fill="#F5AB00" d="M54.7,57.5c0,0,0.3,0.2,0.5,0.4l0.1,0.3v0.1L55,58L54.7,57.5L54.7,57.5z"/>
				<path fill="#F5AB00" d="M55.6,58.5c0,0,0.2,0.2,0.8,0.1s0.8,0.2,1,0.3c0.2,0,0.9,0.4,2-0.2l-0.3,0.3l-0.7,0.2l-0.7,0l-0.6-0.1
					l-0.5-0.2l-0.5-0.1h-0.3l-0.3-0.2L55.6,58.5z"/>
			</g>
			<g>
				<path fill="#241917" d="M62.3,54.3l0.7-0.6c0,0-0.7-1.5-1.7-1.3s-1.4,1.4-1.5,1.6s-0.1,1.2,0,1.9c0.1,0.7,0.5,1,0.5,1
					S60.1,56.9,60,57c0,0,1-0.4,2.2-0.5c0,0-0.1,0-0.2,0C61.9,56.5,62.6,55.8,62.3,54.3z"/>
				<path fill="#FFFFFF" d="M60.9,53.4c0,0-0.6,0.1-1.1,1.2c0,0,0,0.5,0,1s0.3,1,0.5,1.2c0,0,0.5-0.3,1.4-0.3c0,0,0.4-0.3,0.5-1.1
					c0.1-0.9-0.1-1.6-0.1-1.6l-0.4-0.6L60.9,53.4z"/>
				<path fill="#241917" d="M59.4,53.4c0,0-0.1,0.5,0.1,1.5c0,0-0.4-0.2-0.2-1.1C59.2,53.8,59.3,53.5,59.4,53.4z"/>
				<g>
					<path fill="#231917" d="M62.3,54.8c0,0.4-0.1,0.8-0.3,1c-0.2,0.3-0.5,0.5-0.7,0.5c-0.3,0-0.5-0.1-0.7-0.3
						c-0.2-0.3-0.3-0.8-0.3-1.2c0-0.9,0.5-1.5,1-1.5S62.3,54,62.3,54.8z"/>
					<g>
						<path fill="#76A32E" d="M61,53.4c0,0-1.1,0.5-0.6,2.2c0,0.1,0,0.1,0.1,0.2c0.2,0.6,0.9,0.5,0.9,0.5c0,0,0.1,0,0.2-0.1
							c0.3-0.2,0.7-0.6,0.7-1.7C62.1,53.1,61,53.4,61,53.4z"/>
						<ellipse fill="#231917" cx="61.4" cy="54.6" rx="0.7" ry="1.3"/>
						
							<ellipse transform="matrix(0.9477 0.3192 -0.3192 0.9477 20.4224 -16.6206)" fill="#FFFFFF" cx="60.9" cy="54" rx="0.2" ry="0.4"/>
					</g>
				</g>
			</g>
			<g>
				<path fill="#231917" d="M54.2,52.6c0,0,0.2,0.3,0.2,0.3c0.1,0,0.8,1.2,0.9,1.7c0.1,0.6,0.4,1.2,0.2,2c0,0,0.1,0.1,0.1,0.1
					c0,0-0.5-0.4-0.8-0.4l-0.6-1.9l-0.1-1V52.6L54.2,52.6z"/>
				<path fill="#FFFFFF" d="M54.7,53.9c0,0-0.1,0-0.1,0c0,0-0.1,0.1,0,0.6s0.4,1.5,0.5,1.8c0,0,0.3,0,0.5,0.2c0,0,0.1-0.1,0-0.2
					c0,0-0.1,0.1-0.3-0.1c-0.2-0.2-0.4-0.8-0.5-0.9c-0.1-0.2-0.2-0.7-0.2-1.1C54.6,53.8,54.7,53.9,54.7,53.9"/>
				<path fill="#76A32E" d="M54.8,53.9l0.1,0.1c0,0-0.1,0.1-0.1,0.7c0.1,0.6,0.4,1,0.4,1s0.2,0.3,0.3-0.1l0,0c0,0,0,0.4,0,0.5
					c0,0.1-0.1,0.1-0.2-0.1c-0.1-0.2-0.4-0.9-0.5-1.3C54.7,54.3,54.7,54.2,54.8,53.9z"/>
				
					<ellipse transform="matrix(0.9859 -0.1671 0.1671 0.9859 -8.3293 9.9401)" fill="#FFFFFF" cx="54.9" cy="54.5" rx="0.1" ry="0.2"/>
			</g>
			<path fill="#23191A" d="M56.1,57.3C56.1,57.3,56.1,57.2,56.1,57.3c0.2,0,0.2,0.2,0.2,0.2s0,0.1-0.1,0
				C56.1,57.4,56.1,57.3,56.1,57.3z"/>
			<path fill="#23191A" d="M56.6,57.3C56.6,57.3,56.6,57.2,56.6,57.3c0.2,0,0.2,0.2,0.2,0.2c0,0-0.1,0.1-0.1,0
				C56.6,57.4,56.6,57.3,56.6,57.3z"/>
			<g>
				<path fill="#231917" d="M57.8,59.3c-0.3,0-0.7-0.1-1-0.3c-0.3-0.2-0.7-0.1-0.7-0.1c0,0,0,0-0.1,0c0,0-0.6-0.2-0.7-0.6
					c-0.2-0.1-0.7-0.4-0.8-1c-0.1-0.3,0-0.7,0.3-1.1c-0.1-0.3-0.6-1.9-0.5-3.5c-0.1-0.2-0.9-1.5,0-2.4c0,0,0,0,0,0
					c0.7-0.5,1.3-0.3,1.5-0.2c0.2-0.4,1.4-1.9,4.7-1.9c1.3,0,2.4,0.3,3.2,1c0,0,0,0.1,0,0.1c0,0-0.1,0-0.1,0c-0.8-0.7-1.9-1-3.1-1
					c-3.5,0.1-4.6,1.9-4.6,1.9c0,0,0,0-0.1,0c0,0-0.1,0-0.1,0c0,0-0.6-0.3-1.4,0.2c-0.8,0.8,0.1,2.1,0.1,2.1c0,0,0,0,0,0.1
					c-0.1,1.7,0.5,3.4,0.5,3.5c0,0,0,0.1,0,0.1c-0.3,0.3-0.4,0.6-0.3,0.9c0.1,0.5,0.8,0.8,0.8,0.8c0,0,0,0,0.1,0.1
					c0.1,0.3,0.5,0.5,0.6,0.5c0.1,0,0.5-0.1,0.9,0.1c0.5,0.4,1.5,0.2,1.6,0.1c0.3-0.1,1-0.5,1.1-0.8c0,0,0.1-0.1,0.1,0
					c0,0,0.1,0.1,0,0.1c-0.2,0.4-1.1,0.8-1.2,0.8c0,0,0,0,0,0C58.6,59.2,58.2,59.3,57.8,59.3z"/>
				<path fill="#231917" d="M58.9,59.2C58.9,59.2,58.8,59.2,58.9,59.2c-0.1-0.1-0.1-0.2,0-0.2c0.5,0,2.2-0.5,2.3-0.6
					c3.5-1.5,3.9-4.4,3.9-5.6c0-0.5-0.3-1.5-0.7-2.2c0,0,0-0.1,0-0.1c0,0,0.1,0,0.1,0c0.4,0.7,0.7,1.7,0.7,2.3c0,1.2-0.4,4.2-4,5.8
					l0,0c0,0,0,0,0,0l0,0c0,0,0,0,0,0c-0.1,0-0.3,0.1-1,0.3C59.6,59.1,59.2,59.2,58.9,59.2z"/>
				<path fill="#231917" d="M64.8,51C64.8,51,64.8,51,64.8,51C64.8,51,64.7,51,64.8,51c-0.1-0.1-0.1-1.3-1.1-1.5
					c-1.9-0.3-3.4,1.2-3.4,1.2c0,0-0.1,0-0.1,0c0,0,0-0.1,0-0.1c0.1-0.1,1.6-1.6,3.6-1.3c0,0,0,0,0,0C64.9,49.6,64.9,50.9,64.8,51
					C64.9,51,64.9,51,64.8,51z"/>
			</g>
			<path fill="#231917" d="M55.4,58.3C55.3,58.3,55.3,58.3,55.4,58.3c-0.2-0.3-0.3-0.7-0.3-0.7c0-0.1,0-0.1,0.1-0.1
				c0.1,0,0.1,0,0.1,0.1c0,0,0.1,0.4,0.2,0.6C55.5,58.2,55.5,58.3,55.4,58.3C55.4,58.3,55.4,58.3,55.4,58.3z"/>
			<g>
				<path fill="#FFFFFF" d="M59.2,58.9c0,0,0.1,0.4-0.2,0.4c-0.2,0-0.3-0.2-0.3-0.2"/>
				<path fill="#231917" d="M59.1,59.3C59.1,59.3,59.1,59.3,59.1,59.3c-0.3,0-0.3-0.2-0.3-0.2c0,0,0-0.1,0-0.1c0,0,0.1,0,0.1,0
					C58.9,59,58.9,59.2,59.1,59.3c0.1-0.1,0.1-0.1,0.1-0.1c0.1-0.1,0-0.2,0-0.3c0,0,0-0.1,0-0.1c0,0,0.1,0,0.1,0c0,0,0.1,0.2,0,0.4
					C59.2,59.3,59.2,59.3,59.1,59.3z"/>
			</g>
			<path fill="#231917" d="M55.6,50.9C55.6,50.9,55.5,50.9,55.6,50.9c-0.1,0-0.1-0.1-0.1-0.1c0,0,0.1-0.4,0.3-0.7c0,0,0.1-0.1,0.1,0
				c0,0,0.1,0.1,0,0.1C55.7,50.5,55.7,50.8,55.6,50.9C55.6,50.9,55.6,50.9,55.6,50.9z"/>
			<g>
				<path fill="#C9181E" d="M58.6,45.5c0,0-2.1,0-2.7,2c0,0,0.7,0.5,1.1,0.6c0,0,0.1,0,0,0.2c-0.1,0.2-0.5,1-0.3,2.4
					c0,0,0.5-1.7,1.9-2.6c0,0-0.1-0.3-1.3-1c0,0-0.1,0,0-0.2S57.5,46.2,58.6,45.5z"/>
				<path fill="#231917" d="M56.6,50.9C56.6,50.9,56.6,50.9,56.6,50.9C56.6,50.9,56.5,50.9,56.6,50.9c-0.2-1.4,0.1-2.3,0.3-2.6
					c0,0,0,0,0,0c-0.4-0.1-1.1-0.6-1.1-0.6c0,0-0.1-0.1,0-0.1c0.7-2.2,2.8-2.2,2.9-2.2c0,0,0.1,0,0.1,0.1s0,0.1,0,0.1
					c-1,0.6-1.3,1.2-1.4,1.5c0,0,0,0.1,0,0.1c1.2,0.7,1.3,1,1.4,1c0,0,0,0.1,0,0.1C57.2,49,56.7,50.8,56.6,50.9
					C56.7,50.9,56.7,50.9,56.6,50.9z M57,48c0,0,0.1,0,0.1,0.1c0,0.1,0,0.2,0,0.2c-0.1,0.3-0.4,0.9-0.4,2c0.2-0.6,0.8-1.6,1.8-2.2
					c-0.1-0.1-0.4-0.4-1.3-0.9c0,0-0.1-0.1-0.1-0.3c0.1-0.3,0.4-0.8,1.1-1.4c-0.6,0.1-1.9,0.5-2.3,1.9C56.1,47.6,56.7,48,57,48z"/>
			</g>
		</g>
		<g>
			<g>
				<path fill="#F5AA01" d="M61.8,63.1c0,0,0.4,0.2,0.8,0.1l0,0.1l-0.5,0l-0.3-0.2L61.8,63.1z"/>
				<path fill="#F5AA01" d="M62.5,63.3c0,0,0.4,0.2,0.8,0l-0.1,0.2l-0.4,0.1l-0.4-0.1l-0.2-0.2L62.5,63.3z"/>
				<path fill="#F5AA01" d="M63.5,63.3c0,0,0.4-0.1,0.5-0.2l0,0.1l-0.3,0.2l-0.3,0.1l0-0.1L63.5,63.3z"/>
			</g>
			<polygon fill="#76A32E" points="62.1,61.5 62.1,61.2 62.3,60.7 62.8,60.5 63.6,60.5 64,60.7 64.3,61 64.4,61.5 64.3,62 64.2,62 
				63.8,61.7 63.4,61.5 63,61.4 62.6,61.4 			"/>
			<path fill="#C4C801" d="M64.2,61.2c0,0,0,0.4-0.1,0.5c0,0-0.5-0.3-1-0.4c-0.5-0.1-1,0.2-1,0.2l0.1,0.1l0.5-0.1l0.6,0l0.5,0.1
				l0.3,0.2l0.2,0.1l0.1-0.2l0-0.4L64.2,61.2L64.2,61.2z"/>
			<g>
				<path fill="#231917" d="M64,60.7C63.9,60.7,63.9,60.7,64,60.7c-0.6-1.2-1.7-2-1.7-2c0,0-0.1-0.1,0-0.1c0,0,0.1-0.1,0.1,0
					c0,0,1.2,0.9,1.7,2.1C64.1,60.7,64.1,60.7,64,60.7C64,60.7,64,60.7,64,60.7z"/>
				<path fill="#231917" d="M62.2,60.8C62.1,60.8,62.1,60.8,62.2,60.8c-0.2-0.8-0.5-1.2-0.5-1.2c0,0,0-0.1,0-0.1c0,0,0.1,0,0.1,0
					c0,0,0.4,0.5,0.5,1.2C62.3,60.8,62.3,60.8,62.2,60.8C62.2,60.8,62.2,60.8,62.2,60.8z"/>
				<path fill="#231917" d="M64.2,62.1C64.2,62.1,64.2,62.1,64.2,62.1c-0.1,0-0.1-0.1-0.1-0.1c0.2-0.5,0.1-0.9-0.1-1.1
					c-0.3-0.3-0.8-0.4-1.3-0.2c-0.3,0.1-0.4,0.2-0.5,0.4c-0.1,0.3,0.1,0.5,0.1,0.5c0,0,0,0.1,0,0.1c0,0-0.1,0-0.1,0
					c0,0-0.2-0.3-0.1-0.7c0.1-0.2,0.3-0.4,0.6-0.5c0.6-0.2,1.2-0.1,1.5,0.3C64.5,61,64.5,61.5,64.2,62.1
					C64.3,62.1,64.3,62.1,64.2,62.1z"/>
				<path fill="#231917" d="M64.2,62C64.2,62,64.1,62,64.2,62c-0.7-0.7-1.9-0.4-1.9-0.4c-0.1,0-0.1,0-0.1-0.1c0-0.1,0-0.1,0.1-0.1
					c0.1,0,1.3-0.3,2.1,0.5C64.3,61.9,64.3,62,64.2,62C64.2,62,64.2,62,64.2,62z"/>
				<path fill="#231917" d="M61.7,62.6C61.7,62.6,61.6,62.5,61.7,62.6c-0.2-0.3-0.2-0.5-0.1-0.7c0.2-0.3,0.7-0.3,0.8-0.3
					c0,0,0,0,0,0c0.1,0,0.1,0,0.1,0.1c0,0.1,0,0.1-0.1,0.1c0,0-0.4,0-0.6,0.3c-0.1,0.1-0.1,0.3,0,0.5C61.8,62.5,61.8,62.5,61.7,62.6
					C61.7,62.6,61.7,62.6,61.7,62.6z"/>
				<path fill="#231917" d="M63.4,63.6C63.4,63.6,63.4,63.6,63.4,63.6c-0.1-0.1-0.1-0.2,0-0.2c0.3,0,0.5-0.2,0.6-0.4
					c0.2-0.4,0.1-0.9,0.1-0.9c0-0.1,0-0.1,0.1-0.1c0.1,0,0.1,0,0.1,0.1c0,0,0.1,0.6-0.2,1C64,63.4,63.8,63.5,63.4,63.6
					C63.5,63.6,63.4,63.6,63.4,63.6z"/>
				<path fill="#231917" d="M62.8,63.7c-0.2,0-0.4,0-0.6-0.1c0,0-0.1-0.1-0.1-0.1c0,0,0.1-0.1,0.1-0.1c0.4,0.1,0.7,0.1,0.9,0
					c0.3-0.2,0.4-0.5,0.4-0.5c0-0.1,0.1-0.1,0.1-0.1c0.1,0,0.1,0.1,0.1,0.1c0,0-0.1,0.4-0.5,0.7C63.2,63.7,63,63.7,62.8,63.7z"/>
				<path fill="#231917" d="M62,62.7C62,62.7,61.9,62.7,62,62.7c-0.1-0.1-0.1-0.2,0-0.2c0.1,0,0.1-0.2,0.1-0.3c0-0.1,0-0.1,0.1-0.1
					h0c0.1,0,0.1,0,0.1,0.1C62.3,62.3,62.3,62.6,62,62.7C62,62.7,62,62.7,62,62.7z"/>
				<path fill="#231917" d="M62.2,63.5c-0.2,0-0.3-0.1-0.4-0.1c-0.2-0.2-0.3-0.5-0.2-0.8c0.1-0.2,0.2-0.3,0.3-0.3
					c0.1,0,0.2,0,0.3,0.1c0,0,0,0.1,0,0.1c0,0-0.1,0-0.1,0c0,0,0,0-0.1,0c-0.1,0-0.1,0.1-0.2,0.2c-0.1,0.2,0,0.4,0.2,0.5
					c0.2,0.2,0.5,0.1,0.9-0.2c0,0,0.1,0,0.1,0c0,0,0,0.1,0,0.1C62.6,63.4,62.4,63.5,62.2,63.5z"/>
			</g>
		</g>
		<g>
			<path fill="#FEFEFF" d="M61.1,59.7C61.1,59.7,61.1,59.7,61.1,59.7c0,0.2,0.2,0.7,0.3,0.9c0.2,0.3,0.4,0.5,0.2,0.8
				s-0.8,0.2-1.1-0.1s-0.3-0.2-0.3-0.2s-0.3-0.3-0.4-0.7c-0.1-0.4,0.8-0.7,0.8-0.7H61.1"/>
			<path fill="#231917" d="M61.2,61.6c-0.2,0-0.5-0.1-0.7-0.3c-0.3-0.2-0.6-0.5-0.6-1c-0.1-0.5,0.8-0.8,0.9-0.8c0,0,0,0,0,0l0.3,0
				c0,0,0,0,0,0c0,0,0.1,0,0.1,0l0,0c0,0.1,0.2,0.7,0.3,0.9l0,0.1c0.2,0.2,0.4,0.5,0.2,0.8c-0.1,0.1-0.2,0.2-0.3,0.2
				C61.3,61.6,61.2,61.6,61.2,61.6z M60.7,59.7c-0.2,0.1-0.8,0.4-0.8,0.7c0.1,0.4,0.3,0.7,0.6,0.9c0.2,0.2,0.5,0.3,0.7,0.2
				c0.1,0,0.2,0,0.3-0.2c0.2-0.3,0-0.5-0.2-0.7l0-0.1c-0.2-0.2-0.3-0.7-0.3-0.9L60.7,59.7z"/>
		</g>
		<g>
			<path fill="#76A32E" d="M59.5,59.1c0,0,1.1-0.1,2.2-0.7c0,0-0.2,0.9-1.6,2.1C60.1,60.5,59.6,60.4,59.5,59.1z"/>
			<path fill="#231917" d="M60.1,60.6C60.1,60.6,60.1,60.6,60.1,60.6c0,0-0.6-0.2-0.7-1.5c0,0,0-0.1,0.1-0.1c0,0,1.1-0.1,2.2-0.7
				c0,0,0.1,0,0.1,0c0,0,0,0,0,0.1C61.8,58.5,61.6,59.5,60.1,60.6C60.1,60.6,60.1,60.6,60.1,60.6z M59.6,59.2
				c0.1,0.9,0.4,1.2,0.5,1.2c1-0.8,1.4-1.5,1.5-1.8C60.7,59,59.8,59.2,59.6,59.2z"/>
			<g>
				<polygon fill="#C2C901" points="60.3,59.2 59.8,59.6 60.1,59.9 59.8,60.1 59.9,60.3 60.1,60.5 60.5,60.2 60.5,59.8 60.2,59.6 
									"/>
				<path fill="#231917" d="M60.1,60.6C60.1,60.6,60.1,60.6,60.1,60.6l-0.3-0.3c0,0,0,0,0,0l-0.1-0.2c0,0,0,0,0-0.1l0.2-0.2
					l-0.2-0.2c0,0,0,0,0,0c0,0,0,0,0,0l0.5-0.4c0,0,0,0,0.1,0c0,0,0,0,0,0.1l-0.1,0.3l0.3,0.2c0,0,0,0,0,0l-0.1,0.5c0,0,0,0,0,0
					L60.1,60.6C60.1,60.6,60.1,60.6,60.1,60.6z M59.9,60.3l0.2,0.2l0.3-0.3l0.1-0.4l-0.3-0.2c0,0,0,0,0-0.1l0.1-0.2l-0.4,0.3
					l0.2,0.2c0,0,0,0,0,0c0,0,0,0,0,0l-0.2,0.2L59.9,60.3z"/>
			</g>
		</g>
		<g>
			<path fill="#231917" d="M64.8,61.3C64.8,61.3,64.8,61.3,64.8,61.3c-0.1-0.1-0.1-0.1-0.1-0.2c0.5-0.3,1.1-1.4,1.2-2.2
				c0-0.1,0-0.2,0-0.3c-0.1-0.1-0.4,0-0.6,0.1c-0.6,0.4-1.2,0.5-1.8,0.4c-0.8-0.2-1.2-1-1.2-1.1c0,0,0-0.1,0-0.1c0,0,0.1,0,0.1,0
				c0,0,0.3,0.7,1.1,1c0.5,0.1,1,0,1.6-0.4c0.1,0,0.5-0.3,0.8-0.1c0.1,0.1,0.2,0.2,0.1,0.5C66,59.8,65.4,60.9,64.8,61.3
				C64.9,61.3,64.9,61.3,64.8,61.3z"/>
			<g>
				<path fill="#FFFFFF" d="M63.5,59.2c0,0,0.3,0.4,0.8,0.1c0,0,0-0.7-0.3-0.8C63.6,58.4,63.5,59.2,63.5,59.2z"/>
				<path fill="#231917" d="M63.9,59.5L63.9,59.5c-0.3,0-0.5-0.2-0.5-0.2c0,0,0,0,0-0.1c0-0.1,0.1-0.8,0.5-0.8c0,0,0.1,0,0.1,0
					c0.4,0.1,0.4,0.8,0.4,0.9c0,0,0,0.1,0,0.1C64.2,59.4,64.1,59.5,63.9,59.5z M63.6,59.2c0,0,0.2,0.1,0.3,0.1l0,0
					c0.1,0,0.2,0,0.3-0.1c0-0.2,0-0.6-0.3-0.6c0,0,0,0,0,0C63.8,58.6,63.7,58.9,63.6,59.2z"/>
			</g>
			<g>
				<path fill="#FFFFFF" d="M64.7,59.3c0,0,0.6,0.1,0.7-0.3c0,0-0.1-0.4-0.5-0.5C64.5,58.5,64.7,59.3,64.7,59.3z"/>
				<path fill="#231917" d="M64.8,59.4L64.8,59.4c-0.1,0-0.2,0-0.2,0c0,0-0.1,0-0.1-0.1c0-0.1-0.1-0.9,0.2-1c0,0,0,0,0,0
					c0.5,0.1,0.6,0.6,0.6,0.6c0,0,0,0,0,0C65.4,59.2,65.2,59.4,64.8,59.4z M64.8,59.2C64.8,59.2,64.8,59.2,64.8,59.2L64.8,59.2
					c0.3,0,0.4-0.1,0.5-0.2c0-0.1-0.1-0.3-0.4-0.4C64.7,58.6,64.7,58.9,64.8,59.2z"/>
			</g>
		</g>
		<path fill="#F6AB00" d="M60.4,61.6c0,0,0.8,0.4,1.2,0.4l0,0.2l-0.3,0L60.8,62l-0.3-0.2L60.4,61.6z"/>
		<path fill="#231917" d="M61.6,62.3C61.6,62.3,61.6,62.3,61.6,62.3c-2-0.3-2.1-2.3-2.1-2.3c0-0.1,0-0.1,0.1-0.1
			c0.1,0,0.1,0,0.1,0.1c0,0.1,0.1,1.9,1.9,2.2C61.6,62.1,61.7,62.2,61.6,62.3C61.7,62.3,61.6,62.3,61.6,62.3z"/>
		<path fill="#231917" d="M58,65.5c0,0,0.9,0.3,1.6,0.2c0,0-0.6,0.2-1.1,0C58.5,65.7,58.1,65.6,58,65.5z"/>
		<path fill="#F6A800" d="M60.4,64.8c0,0-0.2,0.8-0.3,1c0,0.2-0.7,1.1-2,0.8c0,0-0.6-0.2-0.8-0.5l-0.1,0.1l0.4,0.5l0.8,0.3l1-0.1
			l0.8-0.7l0.2-0.6L60.4,64.8z"/>
		<g>
			<path fill="#FFFFFF" d="M57.4,66.4c0,0,0.3-0.3,0.5,0c0.2,0.3,0.1,0.5,0.1,0.5l-0.6-0.3V66.4z"/>
			<path fill="#231917" d="M58.1,66.9C58.1,66.9,58.1,66.9,58.1,66.9l-0.7-0.3c0,0,0,0,0,0v-0.2c0,0,0,0,0,0c0,0,0.1-0.1,0.3-0.1
				c0.1,0,0.2,0,0.2,0.1C58.2,66.7,58.1,66.9,58.1,66.9C58.1,66.9,58.1,66.9,58.1,66.9C58.1,66.9,58.1,66.9,58.1,66.9z M57.4,66.6
				l0.6,0.3c0-0.1,0-0.2-0.1-0.5c-0.1-0.1-0.1-0.1-0.2-0.1c-0.1,0-0.2,0.1-0.3,0.1V66.6z"/>
		</g>
		<g>
			<path fill="#FFFFFF" d="M58.3,66.9c0,0,0.2-0.5,0.5-0.4c0.3,0,0.5,0.5,0.5,0.5l-0.4,0.1L58.3,66.9L58.3,66.9z"/>
			<path fill="#231917" d="M58.9,67.1L58.9,67.1l-0.6,0c0,0,0,0,0,0l0-0.1c0,0,0,0,0,0c0,0,0.2-0.5,0.5-0.5c0.3,0,0.5,0.5,0.5,0.5
				c0,0,0,0,0,0c0,0,0,0,0,0L58.9,67.1C58.9,67.1,58.9,67.1,58.9,67.1z M58.3,67l0.5,0l0.4-0.1c-0.1-0.1-0.2-0.4-0.5-0.4
				C58.5,66.5,58.3,66.9,58.3,67L58.3,67z"/>
		</g>
		<g>
			<path fill="#FFFFFF" d="M59.5,66.9c0,0-0.1-0.3,0.1-0.6c0.2-0.2,0.5,0.1,0.5,0.1L60,66.6L59.5,66.9L59.5,66.9z"/>
			<path fill="#231917" d="M59.5,66.9C59.5,66.9,59.5,66.9,59.5,66.9L59.5,66.9C59.5,66.9,59.5,66.9,59.5,66.9
				c-0.1-0.1-0.2-0.4,0.1-0.7c0,0,0.1-0.1,0.2-0.1c0.2,0,0.4,0.2,0.4,0.2c0,0,0,0,0,0l-0.1,0.2c0,0,0,0,0,0L59.5,66.9
				C59.5,66.9,59.5,66.9,59.5,66.9z M59.5,66.8L59.5,66.8l0.5-0.3l0.1-0.2c0,0-0.2-0.1-0.3-0.1c0,0-0.1,0-0.1,0
				C59.4,66.5,59.5,66.8,59.5,66.8z"/>
		</g>
		<path fill="#231917" d="M58.7,67.2c-0.2,0-0.3,0-0.5,0c-0.5-0.1-0.8-0.4-1-0.8c-0.5-0.9,0-2.2,0-2.2c0.7-1.6,2.4-2.9,2.5-3
			c0,0,0.1,0,0.1,0c0,0,0,0.1,0,0.1c0,0-1.8,1.3-2.5,2.9c0,0-0.5,1.2-0.1,2.1c0.2,0.4,0.5,0.6,0.9,0.7c0.2,0,0.3,0,0.5,0
			c1.2,0,1.5-1,1.5-1.1c0-0.1,0.1-1.1,0.2-1.4c0,0,0-0.1,0-0.1c0.1-0.4,0.3-1.3,0.7-2.1c0,0,0.1-0.1,0.1,0c0,0,0.1,0.1,0,0.1
			c-0.4,0.8-0.6,1.7-0.7,2.1c0,0,0,0.1,0,0.1c-0.1,0.3-0.2,1.4-0.2,1.4c0,0,0,0,0,0C60.5,66,60.1,67.2,58.7,67.2z"/>
		<path fill="#231917" d="M64.9,61.8C64.9,61.8,64.9,61.8,64.9,61.8c-0.2-0.8-0.7-1.7-0.7-1.7c0,0,0-0.1,0-0.1c0,0,0.1,0,0.1,0
			C64.3,60,64.8,60.9,64.9,61.8C65,61.7,65,61.8,64.9,61.8C64.9,61.8,64.9,61.8,64.9,61.8z"/>
		<path fill="none" d="M62.3,65.2c0,0,0.6,0.5,1.2,0.6c0,0-0.6-0.1-1-0.4C62.5,65.4,62.3,65.3,62.3,65.2z"/>
		<path fill="#F6A901" d="M65.1,64.2c0,0-0.3,2.4-2.1,2.4c0,0-0.6,0-0.7-0.1S62,66.6,62,66.6l0.7,0.3l1.1-0.3l0.7-0.6l0.5-0.8
			l0.1-0.7L65.1,64.2z"/>
		<g>
			<path fill="#FFFFFF" d="M62.9,66.8c0,0,0.1-0.4,0.4-0.4c0.3,0,0.4,0.4,0.4,0.4l-0.8,0.1L62.9,66.8z"/>
			<path fill="#231917" d="M62.9,67C62.9,67,62.9,67,62.9,67l-0.1-0.1c0,0,0,0,0,0c0,0,0.1-0.4,0.5-0.4c0,0,0,0,0,0
				c0.3,0,0.4,0.4,0.4,0.4c0,0,0,0,0,0c0,0,0,0,0,0L62.9,67C62.9,67,62.9,67,62.9,67z M62.9,66.8L62.9,66.8l0.8,0
				c0-0.1-0.1-0.3-0.4-0.3C63.1,66.5,62.9,66.8,62.9,66.8z"/>
		</g>
		<g>
			<path fill="#FFFFFF" d="M61.9,66.4c0,0,0.3-0.3,0.5-0.1c0.2,0.1,0.2,0.5,0.2,0.5l-0.5-0.1L61.9,66.4z"/>
			<path fill="#231917" d="M62.6,66.9C62.6,66.9,62.6,66.9,62.6,66.9l-0.5-0.1c0,0,0,0,0,0l-0.2-0.3c0,0,0,0,0,0
				c0,0,0.2-0.2,0.4-0.2c0.1,0,0.1,0,0.2,0C62.6,66.4,62.6,66.8,62.6,66.9C62.6,66.8,62.6,66.8,62.6,66.9
				C62.6,66.8,62.6,66.9,62.6,66.9z M62.1,66.7l0.5,0.1c0-0.1,0-0.4-0.2-0.5c0,0-0.1,0-0.1,0c-0.1,0-0.3,0.1-0.3,0.1L62.1,66.7z"/>
		</g>
		<g>
			<path fill="#FFFFFF" d="M61.6,65.7c0,0,0.3,0,0.3,0.2c0,0,0,0.3-0.2,0.4C61.5,66.3,61.6,65.7,61.6,65.7z"/>
			<path fill="#231917" d="M61.7,66.3C61.7,66.3,61.6,66.3,61.7,66.3c-0.2-0.1-0.1-0.6-0.1-0.6c0,0,0,0,0,0c0,0,0,0,0,0
				c0,0,0.3,0,0.3,0.2C61.9,65.9,61.9,66.2,61.7,66.3C61.7,66.3,61.7,66.3,61.7,66.3z M61.6,65.7c0,0.1,0,0.4,0.1,0.5c0,0,0,0,0,0
				c0.2-0.1,0.2-0.3,0.2-0.3C61.9,65.8,61.7,65.7,61.6,65.7z"/>
		</g>
		<path fill="#231917" d="M62.9,67c-0.4,0-0.8-0.1-1.1-0.4c-0.3-0.3-0.5-0.8-0.4-1.2c0,0,0,0,0,0c0,0,0.1-0.3,0.3-0.5
			c0.2-0.2,0.5-0.9,0.6-1.3c0-0.1,0.1-0.1,0.1-0.1c0.1,0,0.1,0.1,0.1,0.1C62.3,64,62,64.8,61.8,65c-0.1,0.2-0.2,0.4-0.2,0.5
			c-0.1,0.3,0.1,0.7,0.4,1c0.3,0.3,0.8,0.4,1.4,0.3c1.1-0.3,1.3-0.8,1.6-1.7c0-0.1,0.1-0.2,0.1-0.3c0.4-1-0.2-3.3-0.2-3.3
			c0-0.1,0-0.1,0.1-0.1c0.1,0,0.1,0,0.1,0.1c0,0.1,0.6,2.4,0.2,3.4c0,0.1-0.1,0.2-0.1,0.3c-0.3,0.9-0.5,1.6-1.8,1.8
			C63.2,67,63,67,62.9,67z"/>
	</g>
</g>
</svg>
