<?xml version="1.0" encoding="utf-8"?>
<!-- Generator: Adobe Illustrator 18.0.0, SVG Export Plug-In . SVG Version: 6.00 Build 0)  -->
<!DOCTYPE svg PUBLIC "-//W3C//DTD SVG 1.1//EN" "http://www.w3.org/Graphics/SVG/1.1/DTD/svg11.dtd">
<svg version="1.1" id="图层_1" xmlns="http://www.w3.org/2000/svg" xmlns:xlink="http://www.w3.org/1999/xlink" x="0px" y="0px"
	 viewBox="20 20 80 80" enable-background="new 20 20 80 80" xml:space="preserve">
<g>
	<linearGradient id="SVGID_1_" gradientUnits="userSpaceOnUse" x1="60" y1="34.1842" x2="60" y2="83.674">
		<stop  offset="0" style="stop-color:#4EB3FE"/>
		<stop  offset="0.3653" style="stop-color:#49A9F6"/>
		<stop  offset="0.9893" style="stop-color:#3A8EE0"/>
		<stop  offset="1" style="stop-color:#3A8DE0"/>
	</linearGradient>
	<path fill="url(#SVGID_1_)" d="M47.1,66.2l12.1,12.9c0.4,0.4,1.1,0.4,1.6,0l12.1-12.8c4-3.8,6.6-8.8,6.6-14.6
		C79.5,40.8,70.8,32,60,32c-10.8,0-19.5,8.7-19.5,19.6c0,5.9,2.6,10.9,6.7,14.7L47.1,66.2L47.1,66.2z"/>
	<linearGradient id="SVGID_2_" gradientUnits="userSpaceOnUse" x1="44.875" y1="84.1831" x2="75.1251" y2="84.1831">
		<stop  offset="0" style="stop-color:#4E9CFE"/>
		<stop  offset="0.248" style="stop-color:#4696F2"/>
		<stop  offset="0.6418" style="stop-color:#3D8FE4"/>
		<stop  offset="1" style="stop-color:#3A8DE0"/>
	</linearGradient>
	<path fill="url(#SVGID_2_)" d="M75.1,84.3c0,2-1.6,3.7-3.7,3.7H48.5c-2,0-3.7-1.7-3.7-3.7v-0.2c0-2,1.6-3.7,3.7-3.7h22.9
		c2,0,3.7,1.7,3.7,3.7V84.3L75.1,84.3z"/>
	<ellipse fill="#FFFFFF" cx="60" cy="50.7" rx="14.5" ry="14.7"/>
	<g>
		<path fill="#2E2E82" d="M51.6,59.6h9.2V41h-9.2V59.6L51.6,59.6z M57.3,43.3h2.3v2.3h-2.3V43.3L57.3,43.3z M57.3,48h2.3v2.3h-2.3
			V48L57.3,48z M57.3,52.6h2.3V55h-2.3V52.6L57.3,52.6z M52.7,43.3H55v2.3h-2.3V43.3L52.7,43.3z M52.7,48H55v2.3h-2.3V48L52.7,48z
			 M52.7,52.6H55V55h-2.3V52.6L52.7,52.6z M62,46.9H70V48H62V46.9L62,46.9z M62,59.6h2.3v-4.1h3.5v4.1H70V49.3H62V59.6z M62,59.6"/>
	</g>
</g>
<rect x="20" y="20" fill="none" width="80" height="80"/>
</svg>
