<?xml version="1.0" encoding="utf-8"?>
<!-- Generator: Adobe Illustrator 18.0.0, SVG Export Plug-In . SVG Version: 6.00 Build 0)  -->
<!DOCTYPE svg PUBLIC "-//W3C//DTD SVG 1.1//EN" "http://www.w3.org/Graphics/SVG/1.1/DTD/svg11.dtd">
<svg version="1.1" id="图层_1" xmlns="http://www.w3.org/2000/svg" xmlns:xlink="http://www.w3.org/1999/xlink" x="0px" y="0px"
	 viewBox="20 20 80 80" enable-background="new 20 20 80 80" xml:space="preserve">
<g>
	<linearGradient id="SVGID_1_" gradientUnits="userSpaceOnUse" x1="60" y1="36.8463" x2="60" y2="86.3361">
		<stop  offset="0" style="stop-color:#FF3F4F"/>
		<stop  offset="0.1806" style="stop-color:#F53849"/>
		<stop  offset="0.4901" style="stop-color:#D9233A"/>
		<stop  offset="0.8888" style="stop-color:#AD0322"/>
		<stop  offset="0.9232" style="stop-color:#A90020"/>
	</linearGradient>
	<path fill="url(#SVGID_1_)" d="M47.1,70.5l12.1,12.9c0.4,0.4,1.1,0.4,1.6,0l12.1-12.8c4-3.8,6.6-8.8,6.6-14.6
		c0-10.9-8.7-19.7-19.5-19.7c-10.8,0-19.5,8.7-19.5,19.6c0,5.9,2.6,10.9,6.7,14.7L47.1,70.5L47.1,70.5z"/>
	<ellipse fill="#FFFFFF" cx="60" cy="55" rx="14.5" ry="14.7"/>
</g>
<rect x="20" y="20" fill="none" width="80" height="80"/>
<ellipse fill="#FFFFFF" cx="60" cy="55" rx="14.5" ry="14.7"/>
<g>
	<path fill="#272636" d="M65.4,50.9c-0.1,0.2-0.2,0.5-0.3,0.7c-0.1,0.2-0.2,0.4-0.3,0.7c-0.1,0.2-0.3,0.5-0.4,0.6
		c-0.2,0.2-0.3,0.4-0.4,0.6c-0.1,0.2-0.1,0.3-0.1,0.4c0,0.1,0,0.2,0.1,0.3c0,0.1,0.1,0.2,0.2,0.3c0.1,0.1,0.2,0.2,0.2,0.3
		c0.1,0.1,0.2,0.2,0.3,0.4c0.1,0.2,0.2,0.5,0.4,0.8c0.1,0.4,0.3,0.8,0.5,1.5c0.1,0.4,0.3,0.8,0.4,1.1c0.1,0.3,0.2,0.6,0.3,0.9
		c0.4-0.2,0.8-0.5,1-0.7c0.3-0.3,0.7-0.5,1-0.5c0.3,0,0.6,0.1,0.8,0.3c0.2,0.2,0.3,0.5,0.3,0.8c0,0.3-0.1,0.7-0.4,1
		c-0.3,0.4-0.7,0.7-1.2,1.1c-0.5,0.4-1.2,0.7-2,1C65,62.9,64,63.2,63,63.4c-1.1,0.2-2.3,0.3-3.7,0.3c-1.8,0-3.3-0.2-4.6-0.5
		c-1.3-0.3-2.3-0.7-3.1-1.1c-1-0.5-1.8-1-2.4-1.6c-0.2-0.2-0.4-0.3-0.5-0.5c-0.1-0.2-0.1-0.4-0.1-0.6c0-0.2,0.1-0.4,0.2-0.6
		c0.1-0.2,0.3-0.3,0.5-0.4c0.2-0.1,0.4-0.1,0.7-0.1c0.3,0,0.5,0.1,0.8,0.3c0.1-0.3,0.2-0.7,0.3-1.1c0.1-0.4,0.2-0.8,0.3-1.2
		c0.1-0.4,0.2-0.8,0.3-1.1c0.1-0.4,0.2-0.6,0.2-0.9c-0.3-0.1-0.6-0.3-0.9-0.6c-0.2-0.3-0.3-0.6-0.3-1c0-0.2,0-0.5,0.1-0.7
		c0.1-0.2,0.2-0.4,0.4-0.6c0.2-0.2,0.3-0.3,0.6-0.4c0.2-0.1,0.4-0.1,0.7-0.1h0.1c0.2-0.2,0.4-0.4,0.7-0.5c0.3-0.1,0.7-0.3,1.1-0.4
		c0.4-0.1,1-0.2,1.6-0.2c0.6,0,1.3-0.1,2.2-0.1c0.6,0,1.1,0,1.6,0.1c0.5,0,0.9,0.1,1.2,0.1c0.4,0.1,0.7,0.1,1,0.2
		c0.2-0.7,0.6-1.4,1.2-1.9c0.3-0.2,0.6-0.5,0.9-0.7c0.4-0.2,0.8-0.4,1.3-0.6c0.5-0.2,1.1-0.3,1.7-0.4c0.6-0.1,1.3-0.2,2.1-0.2v6.9
		H67c0-0.1,0-0.1-0.1-0.2c0-0.1-0.1-0.2-0.1-0.4c-0.1,0-0.3-0.1-0.4-0.3c-0.2-0.2-0.3-0.4-0.4-0.6C65.8,51.5,65.6,51.2,65.4,50.9
		L65.4,50.9z M67.6,47.4c-0.2,0-0.3,0.1-0.4,0.2C67.1,47.7,67,47.9,67,48c0,0.2,0.1,0.3,0.2,0.4c0.1,0.1,0.3,0.2,0.4,0.2
		c0.2,0,0.3-0.1,0.4-0.2c0.1-0.1,0.2-0.3,0.2-0.4c0-0.2-0.1-0.3-0.2-0.4C68,47.5,67.8,47.4,67.6,47.4L67.6,47.4z M64.2,60.4
		c-0.2-0.4-0.4-0.8-0.7-1.2c-0.3-0.4-0.6-0.8-1-1.2c-0.4-0.4-0.9-0.7-1.5-0.9c-0.6-0.2-1.2-0.4-2-0.4c-0.9,0-1.6,0.1-2.3,0.4
		c-0.6,0.3-1.2,0.6-1.6,0.9s-0.8,0.8-1.1,1.2c-0.3,0.4-0.5,0.8-0.6,1.1c0.9,0.4,1.8,0.6,2.8,0.8c1,0.2,1.9,0.3,2.9,0.3
		c0.8,0,1.6-0.1,2.5-0.3C62.6,60.9,63.4,60.7,64.2,60.4L64.2,60.4z M64.2,60.4"/>
</g>
</svg>
