<?xml version="1.0" encoding="utf-8"?>
<!-- Generator: Adobe Illustrator 18.0.0, SVG Export Plug-In . SVG Version: 6.00 Build 0)  -->
<!DOCTYPE svg PUBLIC "-//W3C//DTD SVG 1.1//EN" "http://www.w3.org/Graphics/SVG/1.1/DTD/svg11.dtd">
<svg version="1.1" id="图层_1" xmlns="http://www.w3.org/2000/svg" xmlns:xlink="http://www.w3.org/1999/xlink" x="0px" y="0px"
	 viewBox="20 20 80 80" enable-background="new 20 20 80 80" xml:space="preserve">
<g>
	<linearGradient id="SVGID_1_" gradientUnits="userSpaceOnUse" x1="60" y1="36.8463" x2="60" y2="86.3361">
		<stop  offset="0" style="stop-color:#FF3F4F"/>
		<stop  offset="0.1806" style="stop-color:#F53849"/>
		<stop  offset="0.4901" style="stop-color:#D9233A"/>
		<stop  offset="0.8888" style="stop-color:#AD0322"/>
		<stop  offset="0.9232" style="stop-color:#A90020"/>
	</linearGradient>
	<path fill="url(#SVGID_1_)" d="M47.1,70.5l12.1,12.9c0.4,0.4,1.1,0.4,1.6,0l12.1-12.8c4-3.8,6.6-8.8,6.6-14.6
		c0-10.9-8.7-19.7-19.5-19.7c-10.8,0-19.5,8.7-19.5,19.6c0,5.9,2.6,10.9,6.7,14.7L47.1,70.5L47.1,70.5z"/>
	<ellipse fill="#FFFFFF" cx="60" cy="55" rx="14.5" ry="14.7"/>
</g>
<rect x="20" y="20" fill="none" width="80" height="80"/>
<ellipse fill="#FFFFFF" cx="60" cy="55" rx="14.5" ry="14.7"/>
<g>
	<polygon fill="#EF8201" points="62.8,56.4 63.5,57.3 64.4,57.8 65.4,57.6 66.4,57.1 66.8,57.1 67,57.6 66.2,59.1 65.4,59.9 
		65.7,61.3 65.9,63 65.7,64.7 65.1,65.8 63.5,66.4 62.8,66.3 61.9,65.9 61.7,65.2 62.1,64.1 62.6,63 62.7,62.5 62.3,62.4 61.9,62.2 
		61.9,61.5 61.7,61.2 61.5,61.2 60.8,63.1 60.5,64.6 60.5,65.5 59.9,66.2 59.2,66.5 58.4,66.6 57.5,66.4 56.7,65.6 56.7,64.4 
		57,63.2 57.7,62 58.4,61.2 58.9,60.6 59.5,60.2 59.8,60 59.6,59.1 59.3,57.2 	"/>
	<path fill="#F5AB00" d="M65.8,50.7"/>
	<g>
		<polygon fill="#EF8201" points="57.4,57.5 56.9,58.5 57.2,59.5 58.2,59.9 59,59.3 59,58.7 59.8,58.1 59.5,56.9 58.2,57.1 		"/>
		<g>
			<path fill="#F7AA02" d="M57.4,59.5c0,0,0.4,0.1,0.6-0.2l0.2,0.1l-0.2,0.2l-0.3,0.1L57.4,59.5L57.4,59.5z"/>
			<path fill="#F7AA02" d="M58.1,59.2c0,0,0.2,0,0.3-0.2l0.1,0.2l-0.1,0.1L58.1,59.2L58.1,59.2z"/>
			<path fill="#F7AA02" d="M58.1,59.6c0,0,0.4,0,0.5-0.2l0,0.2l-0.3,0.2l-0.3,0l0-0.1L58.1,59.6z"/>
			<path fill="#F7AA02" d="M58.7,59.2c0,0,0.1-0.1,0.1-0.2c0-0.1,0.2,0.1,0.2,0.1l-0.2,0.2h-0.2L58.7,59.2z"/>
		</g>
		<g>
			<path fill="#231917" d="M57.6,59.8c-0.1,0-0.2,0-0.3-0.1c-0.6-0.4-0.5-1.1-0.4-1.3c0-0.3,0.4-0.7,0.4-0.8c0,0,0.1-0.1,0.2,0
				c0,0,0.1,0.1,0,0.2c0,0-0.3,0.4-0.3,0.7c-0.1,0.4-0.1,0.8,0.3,1.1c0.1,0.1,0.2,0.1,0.3,0.1c0.2,0,0.3-0.3,0.3-0.3
				c0-0.1,0.1-0.1,0.1,0s0.1,0.1,0,0.1c0,0-0.2,0.3-0.5,0.4C57.7,59.8,57.7,59.8,57.6,59.8z"/>
			<path fill="#231917" d="M58.2,59.9c-0.2,0-0.4-0.1-0.4-0.1c-0.1,0-0.1-0.1-0.1-0.1c0-0.1,0.1-0.1,0.1-0.1c0.1,0,0.4,0.1,0.6,0
				c0.1-0.1,0.2-0.2,0.2-0.4c0-0.2-0.1-0.3-0.1-0.3c0,0-0.1-0.1,0-0.1c0,0,0.1-0.1,0.1,0c0,0,0.2,0.1,0.2,0.4c0,0,0,0,0,0
				c0,0.3-0.1,0.4-0.3,0.5C58.4,59.9,58.3,59.9,58.2,59.9z"/>
			<path fill="#231917" d="M58.7,59.6c0,0-0.1,0-0.1-0.1c0-0.1,0-0.1,0.1-0.1c0,0,0.2-0.1,0.2-0.3c0-0.4-0.3-0.4-0.4-0.4
				c-0.1,0-0.1,0-0.1-0.1s0-0.1,0.1-0.1c0,0,0.2,0,0.4,0.1c0.1,0.1,0.2,0.3,0.2,0.5c0,0,0,0,0,0C59.1,59.5,58.8,59.6,58.7,59.6
				C58.7,59.6,58.7,59.6,58.7,59.6z"/>
			<path fill="#231917" d="M58.2,59.4c-0.2,0-0.3-0.1-0.3-0.3l0-0.1c0-0.1-0.1-0.1-0.1-0.1c-0.1,0-0.1,0-0.2,0c-0.1,0-0.1,0-0.1,0
				c0-0.1,0-0.1,0-0.1c0,0,0.2-0.1,0.3-0.1c0.1,0,0.2,0.1,0.2,0.2l0,0.1c0.1,0.2,0.1,0.2,0.3,0.2c0,0,0.1,0,0.1-0.1
				c0.1-0.2,0-0.5-0.1-0.7c0,0,0-0.1,0-0.2c0,0,0.1,0,0.2,0c0.1,0.2,0.2,0.6,0.2,0.9c0,0.2-0.1,0.2-0.2,0.2
				C58.3,59.4,58.3,59.4,58.2,59.4z"/>
			<path fill="#231917" d="M59,58.9C59,58.9,59,58.8,59,58.9c-0.1,0-0.1-0.1-0.1-0.2c0.1-0.3,0.6-0.6,0.6-0.7c0,0,0.1,0,0.2,0
				c0,0,0,0.1,0,0.2C59.6,58.2,59.3,58.5,59,58.9C59.1,58.8,59.1,58.9,59,58.9z"/>
		</g>
		<path fill="#EF8201" d="M60.4,45.6c1.6,0,2.9,0.4,3.8,1.2c0.3,0.2,0.7,0.2,0.9,0.5c0.2,0.3,0.2,0.8,0.3,1.1
			c0.4,0.8,0.5,1.6,0.5,2.3c0,1.9-0.8,4.8-4.5,6.4c-1.7,0.5-3,0.7-3,0.7s-1.5,0.2-2-0.2c-0.3-0.3-0.9-0.1-0.9-0.1s-0.7-0.2-0.8-0.7
			c0,0-1.6-0.8-0.5-2.1c0,0-0.8-2-0.7-3.9c0,0-1.1-1.7-0.1-2.6c0.9-0.6,1.7-0.2,1.7-0.2S56.3,45.6,60.4,45.6z"/>
		<g>
			<path fill="#F5AB00" d="M53.3,49.8c0,0-0.4-1.9,1.7-1.8l0.1-0.3h-0.9L53.4,48l-0.4,0.7l0.1,0.9L53.3,49.8z"/>
			<path fill="#F5AB00" d="M55.2,47.8c0,0,2.4-2,4.9-1.9c0,0,1.4-0.1,3,0.8c1.1,0,0.3-0.3,0.3-0.3l-1-0.5L61,45.5l-1.7,0.1L57.5,46
				l-1.3,0.7l-0.6,0.5l-0.6,0.7L55.2,47.8z"/>
			<path fill="#F5AB00" d="M60.4,48.1c0,0,1.6-1.1,3.1-1c1.5,0.1,1.7,0.5,1.7,0.5L64.9,47l-0.8-0.4l-1.1,0.1l-1.4,0.5l-0.9,0.6
				L60.4,48.1z"/>
			<path fill="#F5AB00" d="M65.8,50.7c0,0-0.2,5.1-6.6,6.7v0.1l1-0.1l1.5-0.6l1.5-0.9l0.9-0.7l0.8-1l0.6-1.1l0.3-0.9l0.2-1.1
				L65.8,50.7z"/>
			<path fill="#F5AB00" d="M54,55.8c0,0,0.3,0.3,0.5,0.4l0.1,0.3v0.1l-0.3-0.3L54,55.8L54,55.8z"/>
			<path fill="#F5AB00" d="M55,57c0,0,0.3,0.2,1,0.2c0.7,0,1,0.2,1.2,0.3s1,0.4,2.2-0.2l-0.3,0.3l-0.8,0.3l-0.8,0.1l-0.6-0.1
				l-0.6-0.2l-0.6-0.1h-0.4l-0.3-0.2L55,57z"/>
		</g>
		<g>
			<path fill="#241917" d="M62.6,52.2l0.7-0.7c0,0-0.8-1.7-2-1.5c-1.2,0.2-1.6,1.6-1.7,1.8c-0.1,0.2-0.2,1.4,0,2.1s0.6,1.2,0.6,1.2
				s-0.2,0.1-0.3,0.2c0,0,1.2-0.4,2.5-0.6c0,0-0.1,0-0.3,0C62.1,54.7,62.9,53.9,62.6,52.2z"/>
			<path fill="#FFFFFF" d="M61,51.2c0,0-0.7,0.1-1.2,1.3c0,0,0,0.6,0,1.2c0.1,0.5,0.3,1.1,0.6,1.4c0,0,0.6-0.3,1.5-0.3
				c0,0,0.5-0.3,0.6-1.3s-0.2-1.8-0.2-1.8L61.9,51L61,51.2z"/>
			<path fill="#241917" d="M59.3,51.2c0,0-0.2,0.6,0.1,1.7c0,0-0.5-0.2-0.3-1.3C59.1,51.7,59.2,51.3,59.3,51.2z"/>
			<g>
				<path fill="#231917" d="M62.6,52.8c0,0.5-0.2,0.9-0.4,1.2c-0.2,0.3-0.5,0.6-0.8,0.6c-0.3,0-0.5-0.1-0.7-0.4
					c-0.3-0.3-0.4-0.9-0.4-1.4c0-1,0.5-1.7,1.2-1.7S62.6,51.9,62.6,52.8z"/>
				<g>
					<path fill="#76A32E" d="M61.2,51.2c0,0-1.2,0.5-0.7,2.5c0,0.1,0,0.1,0.1,0.2c0.3,0.7,1,0.6,1,0.6c0,0,0.1,0,0.2-0.1
						c0.3-0.2,0.8-0.7,0.7-1.9C62.4,50.9,61.2,51.2,61.2,51.2z"/>
					<ellipse fill="#231917" cx="61.6" cy="52.5" rx="0.8" ry="1.4"/>
					
						<ellipse transform="matrix(0.9477 0.3192 -0.3192 0.9477 19.7537 -16.7692)" fill="#FFFFFF" cx="61" cy="51.9" rx="0.3" ry="0.4"/>
				</g>
			</g>
		</g>
		<g>
			<path fill="#231917" d="M53.5,50.3c0,0,0.2,0.3,0.3,0.3c0.1,0,0.9,1.3,1.1,2s0.4,1.4,0.2,2.3c0,0,0.1,0.1,0.1,0.1
				c0,0-0.6-0.4-0.9-0.4l-0.7-2.2l-0.1-1.1l-0.1-0.9L53.5,50.3z"/>
			<path fill="#FFFFFF" d="M54,51.7c0,0-0.1-0.1-0.1,0c0,0.1-0.1,0.1,0,0.7c0.1,0.6,0.5,1.7,0.6,2c0,0,0.3,0.1,0.5,0.2
				c0,0,0.1-0.1,0.1-0.2c0,0-0.1,0.1-0.3-0.1s-0.5-0.8-0.5-1.1c-0.1-0.2-0.2-0.8-0.2-1.2C53.9,51.7,54,51.7,54,51.7"/>
			<path fill="#76A32E" d="M54.1,51.8l0.1,0.1c0,0-0.1,0.1-0.1,0.8c0.1,0.7,0.4,1.2,0.4,1.2s0.3,0.3,0.3-0.1l0,0c0,0,0,0.5,0,0.6
				c0,0.1-0.1,0.1-0.3-0.1c-0.2-0.2-0.5-1-0.6-1.5S54,52.1,54.1,51.8z"/>
			
				<ellipse transform="matrix(0.9859 -0.1671 0.1671 0.9859 -7.9958 9.8009)" fill="#FFFFFF" cx="54.3" cy="52.4" rx="0.1" ry="0.3"/>
		</g>
		<path fill="#23191A" d="M55.6,55.6c0,0,0-0.1,0.1-0.1c0.1,0,0.1,0.3,0.1,0.3s0,0.1-0.1,0C55.6,55.7,55.6,55.6,55.6,55.6z"/>
		<path fill="#23191A" d="M56.1,55.6c0,0,0-0.1,0.1,0s0.1,0.3,0.1,0.3c0,0.1-0.1,0.1-0.1,0C56.1,55.8,56.1,55.6,56.1,55.6z"/>
		<g>
			<path fill="#231917" d="M57.5,57.9c-0.4,0-0.8-0.1-1.1-0.3c-0.4-0.3-0.8-0.1-0.8-0.1c0,0,0,0-0.1,0c0,0-0.7-0.2-0.8-0.7
				c-0.2-0.1-0.8-0.5-1-1.1c-0.1-0.4,0-0.8,0.3-1.2c-0.1-0.3-0.7-2.2-0.6-3.9c-0.1-0.2-1-1.7,0-2.7c0,0,0,0,0,0
				c0.8-0.6,1.4-0.4,1.7-0.3c0.3-0.4,1.6-2.1,5.3-2.2c1.5,0,2.7,0.4,3.7,1.1c0,0,0.1,0.1,0,0.2c0,0-0.1,0.1-0.2,0
				c-0.9-0.7-2.1-1.1-3.5-1.1c-4,0.1-5.2,2.1-5.2,2.2c0,0,0,0-0.1,0.1c0,0-0.1,0-0.1,0c0,0-0.7-0.4-1.5,0.2
				c-0.9,0.9,0.1,2.4,0.1,2.4c0,0,0,0,0,0.1c-0.1,1.9,0.6,3.9,0.6,3.9c0,0,0,0.1,0,0.1c-0.3,0.4-0.4,0.7-0.3,1.1
				c0.1,0.6,0.9,1,0.9,1c0,0,0.1,0,0.1,0.1c0.1,0.4,0.6,0.6,0.7,0.6c0.1,0,0.6-0.1,1,0.2c0.6,0.5,1.7,0.2,1.9,0.1
				c0.3-0.1,1.1-0.6,1.2-0.9c0-0.1,0.1-0.1,0.1,0c0.1,0,0.1,0.1,0,0.1c-0.2,0.4-1.2,0.9-1.3,1c0,0,0,0,0,0
				C58.4,57.8,58,57.9,57.5,57.9z"/>
			<path fill="#231917" d="M58.8,57.8c-0.1,0-0.1,0-0.1-0.1s0-0.1,0.1-0.1c0.6,0,2.5-0.6,2.6-0.6c3.9-1.7,4.4-5,4.4-6.3
				c0-0.6-0.3-1.7-0.8-2.4c0-0.1,0-0.1,0-0.1c0.1,0,0.1,0,0.1,0c0.5,0.8,0.8,1.9,0.8,2.6c0,1.4-0.5,4.8-4.5,6.5l0,0c0,0,0,0,0,0l0,0
				c0,0,0,0,0,0c-0.1,0-0.4,0.1-1.1,0.3C59.6,57.6,59.1,57.8,58.8,57.8z"/>
			<path fill="#231917" d="M65.4,48.5C65.4,48.5,65.4,48.5,65.4,48.5c-0.1,0-0.1-0.1-0.1-0.1c0-0.1,0-1.3-1.1-1.6
				c-2.2-0.3-3.9,1.4-3.9,1.4c0,0-0.1,0-0.2,0c0,0,0-0.1,0-0.2c0.1-0.1,1.8-1.8,4.1-1.5c0,0,0,0,0,0c1.3,0.4,1.3,1.8,1.3,1.8
				C65.5,48.5,65.5,48.5,65.4,48.5z"/>
		</g>
		<path fill="#231917" d="M54.8,56.8C54.7,56.8,54.7,56.8,54.8,56.8c-0.3-0.3-0.4-0.8-0.4-0.8c0-0.1,0-0.1,0.1-0.1
			c0.1,0,0.1,0,0.1,0.1c0,0,0.1,0.5,0.2,0.7C54.9,56.7,54.9,56.7,54.8,56.8C54.8,56.8,54.8,56.8,54.8,56.8z"/>
		<g>
			<path fill="#FFFFFF" d="M59.1,57.4c0,0,0.1,0.4-0.2,0.4c-0.3,0-0.3-0.2-0.3-0.2"/>
			<path fill="#231917" d="M59,57.9C59,57.9,59,57.9,59,57.9c-0.3-0.1-0.4-0.2-0.4-0.3c0,0,0-0.1,0-0.1c0,0,0.1,0,0.1,0
				c0,0,0,0.1,0.3,0.2c0.1,0,0.1,0,0.1-0.1c0.1-0.1,0-0.2,0-0.3c0,0,0-0.1,0-0.1c0,0,0.1,0,0.1,0c0,0,0.1,0.3,0,0.4
				C59.1,57.8,59.1,57.9,59,57.9z"/>
		</g>
		<path fill="#231917" d="M55,48.4C55,48.4,55,48.4,55,48.4c-0.1,0-0.1-0.1-0.1-0.1c0,0,0.1-0.4,0.3-0.8c0-0.1,0.1-0.1,0.1,0
			c0,0,0.1,0.1,0,0.1c-0.2,0.3-0.3,0.7-0.3,0.7C55.1,48.3,55,48.4,55,48.4z"/>
		<g>
			<path fill="#C9181E" d="M58.4,42.3c0,0-2.4,0-3.1,2.3c0,0,0.8,0.6,1.2,0.7c0,0,0.1,0,0,0.2s-0.5,1.1-0.4,2.7c0,0,0.5-2,2.1-2.9
				c0,0-0.1-0.3-1.4-1.1c0,0-0.1,0,0-0.2C56.9,43.8,57.2,43.1,58.4,42.3z"/>
			<path fill="#231917" d="M56.2,48.4C56.2,48.4,56.2,48.4,56.2,48.4c-0.1,0-0.1,0-0.1-0.1c-0.1-1.5,0.2-2.5,0.4-2.9c0,0,0,0,0,0
				c-0.4-0.1-1.2-0.7-1.3-0.7c0,0-0.1-0.1,0-0.1c0.7-2.4,3.2-2.5,3.3-2.5c0,0,0.1,0,0.1,0.1c0,0,0,0.1,0,0.1
				c-1.1,0.6-1.4,1.3-1.6,1.7c0,0,0,0.1,0,0.1c1.3,0.8,1.5,1.1,1.5,1.2c0,0.1,0,0.1,0,0.1c-1.6,0.9-2.2,3-2.2,3
				C56.3,48.3,56.2,48.4,56.2,48.4z M56.6,45.2c0,0,0.1,0,0.1,0.1c0.1,0.1,0,0.2,0,0.3c-0.1,0.3-0.4,1.1-0.4,2.2
				c0.3-0.7,0.9-1.8,2-2.5c-0.1-0.1-0.5-0.4-1.4-1c0,0-0.1-0.1-0.1-0.3c0.1-0.3,0.4-0.9,1.3-1.5c-0.7,0.1-2.1,0.5-2.7,2.2
				C55.6,44.7,56.3,45.1,56.6,45.2z"/>
		</g>
	</g>
	<g>
		<g>
			<path fill="#F5AA01" d="M62,62.1c0,0,0.5,0.2,0.9,0.2l0,0.1l-0.6,0l-0.4-0.2L62,62.1z"/>
			<path fill="#F5AA01" d="M62.9,62.4c0,0,0.4,0.2,0.9,0l-0.1,0.2l-0.4,0.1l-0.4-0.1l-0.3-0.2L62.9,62.4z"/>
			<path fill="#F5AA01" d="M64,62.4c0,0,0.4-0.1,0.5-0.2l0,0.2l-0.3,0.2l-0.3,0.1l0-0.1L64,62.4z"/>
		</g>
		<polygon fill="#76A32E" points="62.4,60.4 62.3,60 62.5,59.5 63.2,59.3 64.1,59.3 64.5,59.4 64.8,59.8 64.9,60.3 64.9,60.9 
			64.8,61 64.3,60.5 63.8,60.3 63.3,60.3 63,60.3 		"/>
		<path fill="#C4C801" d="M64.8,60c0,0,0,0.4-0.1,0.5c0,0-0.5-0.4-1.2-0.5s-1.1,0.2-1.1,0.2l0.1,0.1l0.6-0.1l0.6,0l0.5,0.2l0.3,0.3
			l0.2,0.2l0.1-0.2l0-0.4L64.8,60L64.8,60z"/>
		<g>
			<path fill="#231917" d="M64.5,59.5C64.5,59.5,64.4,59.5,64.5,59.5c-0.7-1.4-1.9-2.3-2-2.3c0,0-0.1-0.1,0-0.2c0,0,0.1-0.1,0.2,0
				c0.1,0,1.4,1,1.9,2.3C64.6,59.4,64.6,59.5,64.5,59.5C64.5,59.5,64.5,59.5,64.5,59.5z"/>
			<path fill="#231917" d="M62.5,59.6c-0.1,0-0.1,0-0.1-0.1c-0.1-0.8-0.5-1.3-0.5-1.3c0,0,0-0.1,0-0.2c0,0,0.1,0,0.2,0
				c0,0,0.4,0.5,0.5,1.4C62.6,59.6,62.5,59.6,62.5,59.6C62.5,59.6,62.5,59.6,62.5,59.6z"/>
			<path fill="#231917" d="M64.8,61.1C64.8,61.1,64.8,61.1,64.8,61.1c-0.1,0-0.1-0.1-0.1-0.1c0.2-0.5,0.1-1-0.1-1.3
				c-0.3-0.3-0.9-0.4-1.5-0.2c-0.3,0.1-0.5,0.3-0.6,0.5c-0.1,0.3,0.1,0.6,0.1,0.6c0,0,0,0.1,0,0.2c0,0-0.1,0-0.2,0
				c0,0-0.3-0.4-0.1-0.8c0.1-0.3,0.3-0.5,0.7-0.6c0.7-0.2,1.3-0.1,1.7,0.3c0.4,0.4,0.4,0.9,0.2,1.5C64.9,61,64.8,61.1,64.8,61.1z"/>
			<path fill="#231917" d="M64.7,61C64.7,61,64.7,61,64.7,61c-0.8-0.8-2.2-0.5-2.2-0.5c-0.1,0-0.1,0-0.1-0.1c0-0.1,0-0.1,0.1-0.1
				c0.1,0,1.5-0.4,2.3,0.5C64.8,60.8,64.8,60.9,64.7,61C64.8,61,64.8,61,64.7,61z"/>
			<path fill="#231917" d="M61.9,61.6C61.9,61.6,61.9,61.5,61.9,61.6c-0.2-0.4-0.2-0.6-0.1-0.8c0.2-0.4,0.8-0.4,0.9-0.4c0,0,0,0,0,0
				c0.1,0,0.1,0,0.1,0.1c0,0.1,0,0.1-0.1,0.1c0,0-0.5,0-0.7,0.3c-0.1,0.1-0.1,0.3,0,0.5C62.1,61.5,62,61.5,61.9,61.6
				C62,61.6,61.9,61.6,61.9,61.6z"/>
			<path fill="#231917" d="M63.9,62.7c-0.1,0-0.1,0-0.1-0.1c0-0.1,0-0.1,0.1-0.1c0.3-0.1,0.5-0.2,0.7-0.4c0.3-0.4,0.1-1,0.1-1
				c0-0.1,0-0.1,0.1-0.1c0.1,0,0.1,0,0.1,0.1c0,0,0.1,0.7-0.2,1.1C64.5,62.5,64.3,62.7,63.9,62.7C63.9,62.7,63.9,62.7,63.9,62.7z"/>
			<path fill="#231917" d="M63.2,62.9c-0.2,0-0.4,0-0.7-0.1c-0.1,0-0.1-0.1-0.1-0.1c0-0.1,0.1-0.1,0.1-0.1c0.4,0.2,0.7,0.2,1,0
				c0.3-0.2,0.4-0.6,0.4-0.6c0-0.1,0.1-0.1,0.1-0.1c0.1,0,0.1,0.1,0.1,0.1c0,0-0.1,0.5-0.5,0.7C63.6,62.8,63.4,62.9,63.2,62.9z"/>
			<path fill="#231917" d="M62.3,61.8C62.2,61.8,62.2,61.7,62.3,61.8c-0.1-0.1-0.1-0.2,0-0.2c0.1,0,0.1-0.2,0.1-0.3
				c0-0.1,0-0.1,0.1-0.1c0,0,0,0,0,0c0.1,0,0.1,0,0.1,0.1C62.6,61.2,62.6,61.6,62.3,61.8C62.3,61.7,62.3,61.8,62.3,61.8z"/>
			<path fill="#231917" d="M62.5,62.6c-0.2,0-0.3-0.1-0.4-0.1c-0.3-0.2-0.3-0.6-0.2-0.9c0.1-0.2,0.2-0.3,0.3-0.3
				c0.2,0,0.3,0.1,0.3,0.1c0,0,0.1,0.1,0,0.2c0,0-0.1,0.1-0.2,0c0,0,0,0-0.1,0c-0.1,0-0.1,0.1-0.2,0.2c-0.1,0.2,0,0.5,0.2,0.6
				c0.2,0.2,0.6,0.1,1.1-0.2c0,0,0.1,0,0.2,0c0,0,0,0.1,0,0.2C63,62.5,62.7,62.6,62.5,62.6z"/>
		</g>
	</g>
	<g>
		<path fill="#FEFEFF" d="M61.2,58.3C61.2,58.3,61.2,58.3,61.2,58.3c0,0.2,0.2,0.8,0.4,1.1c0.2,0.3,0.4,0.6,0.2,0.9
			c-0.2,0.3-0.9,0.2-1.2-0.1c-0.3-0.3-0.3-0.3-0.3-0.3s-0.3-0.3-0.4-0.8s0.9-0.8,0.9-0.8H61.2"/>
		<path fill="#231917" d="M61.3,60.5c-0.3,0-0.6-0.1-0.8-0.3c-0.3-0.3-0.6-0.6-0.7-1.1c-0.1-0.5,0.9-0.9,1-0.9c0,0,0,0,0,0l0.3,0
			c0,0,0,0,0,0c0,0,0.1,0,0.1,0l0,0c0,0.1,0.2,0.8,0.3,1l0,0.1c0.2,0.3,0.4,0.6,0.2,0.9c-0.1,0.1-0.2,0.2-0.4,0.2
			C61.4,60.5,61.4,60.5,61.3,60.5z M60.8,58.3c-0.3,0.1-0.9,0.4-0.9,0.8c0.1,0.5,0.4,0.7,0.7,1c0.2,0.2,0.6,0.3,0.8,0.2
			c0.1,0,0.2-0.1,0.3-0.2c0.2-0.3,0-0.5-0.2-0.8l0-0.1c-0.2-0.2-0.3-0.8-0.4-1L60.8,58.3z"/>
	</g>
	<g>
		<path fill="#76A32E" d="M59.5,57.7c0,0,1.3-0.1,2.5-0.8c0,0-0.2,1.1-1.8,2.3C60.1,59.3,59.5,59.1,59.5,57.7z"/>
		<path fill="#231917" d="M60.1,59.4C60.1,59.4,60.1,59.4,60.1,59.4c-0.1,0-0.7-0.2-0.8-1.7c0,0,0-0.1,0.1-0.1c0,0,1.3-0.1,2.4-0.7
			c0,0,0.1,0,0.1,0c0,0,0,0.1,0,0.1C62,57,61.8,58.1,60.1,59.4C60.2,59.4,60.1,59.4,60.1,59.4z M59.5,57.8c0.1,1,0.5,1.3,0.6,1.4
			c1.1-0.9,1.5-1.7,1.7-2.1C60.8,57.6,59.8,57.7,59.5,57.8z"/>
		<g>
			<polygon fill="#C2C901" points="60.4,57.8 59.8,58.3 60.1,58.5 59.8,58.8 59.8,59 60.1,59.3 60.5,58.9 60.6,58.4 60.3,58.2 			
				"/>
			<path fill="#231917" d="M60.1,59.3C60.1,59.3,60.1,59.3,60.1,59.3L59.8,59c0,0,0,0,0,0l-0.1-0.2c0,0,0,0,0-0.1l0.3-0.2l-0.2-0.2
				c0,0,0,0,0,0c0,0,0,0,0,0l0.6-0.5c0,0,0,0,0.1,0c0,0,0,0,0,0.1l-0.1,0.4l0.3,0.2c0,0,0,0,0,0.1l-0.1,0.5c0,0,0,0,0,0L60.1,59.3
				C60.1,59.3,60.1,59.3,60.1,59.3z M59.9,58.9l0.2,0.2l0.4-0.3l0.1-0.5l-0.3-0.2c0,0,0,0,0-0.1l0.1-0.3l-0.4,0.3l0.2,0.2
				c0,0,0,0,0,0s0,0,0,0l-0.3,0.2L59.9,58.9z"/>
		</g>
	</g>
	<g>
		<path fill="#231917" d="M65.5,60.1C65.4,60.1,65.4,60.1,65.5,60.1c-0.1-0.1-0.1-0.2-0.1-0.2c0.5-0.4,1.2-1.6,1.4-2.4
			c0-0.1,0-0.3,0-0.3c-0.1-0.1-0.4,0-0.6,0.1c-0.7,0.5-1.4,0.6-2,0.4c-0.9-0.3-1.3-1.2-1.3-1.2c0-0.1,0-0.1,0.1-0.1
			c0.1,0,0.1,0,0.1,0.1c0,0,0.4,0.8,1.2,1.1c0.5,0.2,1.2,0,1.8-0.4c0.1,0,0.6-0.3,0.9-0.1c0.1,0.1,0.2,0.3,0.1,0.5
			C66.8,58.4,66.1,59.7,65.5,60.1C65.5,60.1,65.5,60.1,65.5,60.1z"/>
		<g>
			<path fill="#FFFFFF" d="M64,57.8c0,0,0.3,0.4,0.9,0.1c0,0,0-0.8-0.4-0.9S64,57.8,64,57.8z"/>
			<path fill="#231917" d="M64.4,58.1L64.4,58.1c-0.3,0-0.5-0.2-0.5-0.2c0,0,0-0.1,0-0.1c0-0.2,0.1-0.9,0.5-0.9c0,0,0.1,0,0.1,0
				c0.5,0.1,0.4,0.9,0.4,1c0,0,0,0.1,0,0.1C64.7,58,64.6,58.1,64.4,58.1z M64.1,57.7c0.1,0,0.2,0.1,0.3,0.1l0,0c0.1,0,0.2,0,0.3-0.1
				c0-0.2-0.1-0.6-0.3-0.7c0,0,0,0,0,0C64.3,57,64.1,57.4,64.1,57.7z"/>
		</g>
		<g>
			<path fill="#FFFFFF" d="M65.3,57.8c0,0,0.7,0.1,0.8-0.4c0,0-0.1-0.4-0.6-0.6C65.1,56.9,65.3,57.8,65.3,57.8z"/>
			<path fill="#231917" d="M65.5,58L65.5,58c-0.1,0-0.2,0-0.2,0c0,0-0.1,0-0.1-0.1c0-0.2-0.1-1,0.3-1.1c0,0,0,0,0,0
				c0.5,0.2,0.6,0.6,0.7,0.7c0,0,0,0,0,0.1C66.1,57.8,65.8,58,65.5,58z M65.4,57.7C65.4,57.7,65.4,57.7,65.4,57.7L65.4,57.7
				c0.3,0,0.5-0.1,0.6-0.3c0-0.1-0.1-0.4-0.5-0.5C65.4,57.1,65.3,57.4,65.4,57.7z"/>
		</g>
	</g>
	<path fill="#F6AB00" d="M60.5,60.5c0,0,0.9,0.4,1.4,0.4l0,0.2l-0.3,0L61,60.9l-0.4-0.2L60.5,60.5z"/>
	<path fill="#231917" d="M61.8,61.3C61.8,61.3,61.8,61.3,61.8,61.3c-2.2-0.3-2.3-2.6-2.3-2.7c0-0.1,0-0.1,0.1-0.1
		c0.1,0,0.1,0,0.1,0.1c0,0.1,0.1,2.2,2.1,2.4c0.1,0,0.1,0.1,0.1,0.1C61.9,61.2,61.8,61.3,61.8,61.3z"/>
	<path fill="#231917" d="M57.7,64.9c0,0,1.1,0.3,1.8,0.2c0,0-0.6,0.2-1.2,0C58.3,65.1,57.9,65,57.7,64.9z"/>
	<path fill="#F6A800" d="M60.5,64.1c0,0-0.3,0.9-0.3,1.1c0,0.2-0.8,1.3-2.3,0.9c0,0-0.6-0.2-1-0.6l-0.1,0.1l0.5,0.6l0.9,0.4l1.2-0.1
		l0.9-0.8l0.2-0.7L60.5,64.1z"/>
	<g>
		<path fill="#FFFFFF" d="M57.1,65.9c0,0,0.4-0.3,0.6,0s0.1,0.6,0.1,0.6l-0.7-0.4V65.9z"/>
		<path fill="#231917" d="M57.8,66.5C57.8,66.5,57.8,66.5,57.8,66.5l-0.7-0.4c0,0,0,0,0,0v-0.2c0,0,0,0,0,0c0,0,0.2-0.2,0.3-0.2
			c0.1,0,0.2,0.1,0.3,0.2C57.9,66.3,57.8,66.5,57.8,66.5C57.8,66.5,57.8,66.5,57.8,66.5C57.8,66.5,57.8,66.5,57.8,66.5z M57.1,66.1
			l0.7,0.3c0-0.1,0-0.3-0.1-0.5c-0.1-0.1-0.1-0.1-0.2-0.1c-0.1,0-0.3,0.1-0.3,0.1V66.1z"/>
	</g>
	<g>
		<path fill="#FFFFFF" d="M58.1,66.5c0,0,0.2-0.5,0.6-0.5c0.3,0,0.6,0.5,0.6,0.5l-0.5,0.1L58.1,66.5L58.1,66.5z"/>
		<path fill="#231917" d="M58.7,66.7C58.7,66.7,58.7,66.7,58.7,66.7l-0.6,0c0,0,0,0,0,0l0-0.1c0,0,0,0,0,0c0,0,0.2-0.6,0.6-0.5
			c0.3,0,0.6,0.5,0.6,0.6c0,0,0,0,0,0c0,0,0,0,0,0L58.7,66.7C58.7,66.7,58.7,66.7,58.7,66.7z M58.1,66.6l0.6,0l0.4-0.1
			c-0.1-0.1-0.3-0.5-0.5-0.5C58.3,66,58.1,66.4,58.1,66.6L58.1,66.6z"/>
	</g>
	<g>
		<path fill="#FFFFFF" d="M59.4,66.4c0,0-0.1-0.4,0.2-0.6c0.2-0.2,0.5,0.1,0.5,0.1L60,66.1L59.4,66.4L59.4,66.4z"/>
		<path fill="#231917" d="M59.5,66.5C59.5,66.5,59.5,66.5,59.5,66.5L59.5,66.5C59.4,66.4,59.4,66.4,59.5,66.5
			c-0.1-0.1-0.2-0.5,0.1-0.8c0,0,0.1-0.1,0.2-0.1c0.2,0,0.4,0.2,0.4,0.2c0,0,0,0,0,0l-0.1,0.2c0,0,0,0,0,0L59.5,66.5
			C59.5,66.5,59.5,66.5,59.5,66.5z M59.4,66.4L59.4,66.4l0.6-0.3l0.1-0.2c-0.1,0-0.2-0.2-0.4-0.2c-0.1,0-0.1,0-0.1,0.1
			C59.4,66,59.4,66.4,59.4,66.4z"/>
	</g>
	<path fill="#231917" d="M58.6,66.8c-0.2,0-0.4,0-0.6-0.1c-0.6-0.2-1-0.5-1.2-0.9c-0.5-1,0-2.5,0.1-2.5c0.8-1.9,2.8-3.3,2.8-3.4
		c0,0,0.1,0,0.2,0c0,0,0,0.1,0,0.2c0,0-2,1.5-2.8,3.3c0,0-0.5,1.4-0.1,2.4c0.2,0.4,0.5,0.7,1,0.8c0.2,0,0.4,0.1,0.5,0.1
		c1.4,0,1.7-1.1,1.7-1.2c0-0.1,0.2-1.3,0.2-1.6c0,0,0-0.1,0-0.1c0.1-0.4,0.3-1.4,0.8-2.4c0-0.1,0.1-0.1,0.1,0c0.1,0,0.1,0.1,0,0.1
		c-0.5,0.9-0.7,1.9-0.8,2.4c0,0.1,0,0.1,0,0.1c-0.1,0.3-0.2,1.6-0.2,1.6c0,0,0,0,0,0C60.5,65.4,60.1,66.8,58.6,66.8z"/>
	<path fill="#231917" d="M65.6,60.7C65.5,60.7,65.5,60.7,65.6,60.7c-0.2-0.9-0.8-1.9-0.8-1.9c0,0,0-0.1,0-0.1c0,0,0.1,0,0.1,0
		C64.9,58.7,65.5,59.7,65.6,60.7C65.6,60.6,65.6,60.7,65.6,60.7C65.6,60.7,65.6,60.7,65.6,60.7z"/>
	<path fill="none" d="M62.6,64.5c0,0,0.6,0.6,1.3,0.7c0,0-0.6-0.1-1.1-0.4C62.8,64.8,62.6,64.7,62.6,64.5z"/>
	<path fill="#F6A901" d="M65.8,63.4c0,0-0.3,2.7-2.4,2.7c0,0-0.7,0-0.8-0.1c-0.1-0.2-0.2,0.2-0.2,0.2l0.8,0.4l1.3-0.3l0.8-0.7
		l0.5-0.9l0.1-0.8L65.8,63.4z"/>
	<g>
		<path fill="#FFFFFF" d="M63.3,66.4c0,0,0.1-0.4,0.5-0.4c0.4,0,0.5,0.4,0.5,0.4l-0.9,0.2L63.3,66.4z"/>
		<path fill="#231917" d="M63.3,66.5C63.3,66.5,63.3,66.5,63.3,66.5l-0.1-0.1c0,0,0,0,0,0c0,0,0.1-0.4,0.5-0.4c0,0,0,0,0,0
			c0.3,0,0.5,0.4,0.5,0.4c0,0,0,0,0,0c0,0,0,0,0,0L63.3,66.5C63.3,66.5,63.3,66.5,63.3,66.5z M63.3,66.4L63.3,66.4l0.9-0.1
			c0-0.1-0.2-0.4-0.4-0.3C63.4,66,63.3,66.3,63.3,66.4z"/>
	</g>
	<g>
		<path fill="#FFFFFF" d="M62.1,65.9c0,0,0.3-0.3,0.6-0.1s0.2,0.6,0.2,0.6l-0.6-0.1L62.1,65.9z"/>
		<path fill="#231917" d="M62.9,66.4C62.9,66.4,62.9,66.4,62.9,66.4l-0.6-0.1c0,0,0,0,0,0l-0.2-0.3c0,0,0,0,0,0c0,0,0.2-0.2,0.4-0.2
			c0.1,0,0.1,0,0.2,0C63,65.9,62.9,66.4,62.9,66.4C62.9,66.4,62.9,66.4,62.9,66.4C62.9,66.4,62.9,66.4,62.9,66.4z M62.3,66.2
			l0.5,0.1c0-0.1,0-0.4-0.2-0.5c0,0-0.1,0-0.1,0c-0.2,0-0.3,0.1-0.4,0.2L62.3,66.2z"/>
	</g>
	<g>
		<path fill="#FFFFFF" d="M61.8,65.1c0,0,0.4,0,0.4,0.2c0,0,0,0.3-0.2,0.4C61.7,65.8,61.8,65.1,61.8,65.1z"/>
		<path fill="#231917" d="M61.9,65.8C61.9,65.8,61.8,65.8,61.9,65.8c-0.2-0.1-0.2-0.6-0.2-0.7c0,0,0,0,0,0c0,0,0,0,0,0
			c0,0,0.4,0,0.4,0.3C62.2,65.3,62.2,65.7,61.9,65.8C61.9,65.8,61.9,65.8,61.9,65.8z M61.8,65.1c0,0.2,0,0.5,0.1,0.6c0,0,0,0,0,0
			c0.2-0.1,0.2-0.4,0.2-0.4C62.1,65.2,61.9,65.1,61.8,65.1z"/>
	</g>
	<path fill="#231917" d="M63.3,66.6c-0.5,0-0.9-0.2-1.2-0.5c-0.4-0.4-0.6-0.9-0.5-1.3c0,0,0,0,0,0c0,0,0.1-0.3,0.3-0.6
		c0.2-0.2,0.5-1,0.6-1.5c0-0.1,0.1-0.1,0.1-0.1c0.1,0,0.1,0.1,0.1,0.1c-0.1,0.4-0.5,1.2-0.7,1.5c-0.2,0.2-0.3,0.5-0.3,0.5
		c-0.1,0.4,0.1,0.8,0.4,1.1c0.4,0.4,0.9,0.5,1.5,0.4c1.3-0.3,1.5-0.9,1.8-1.9c0-0.1,0.1-0.2,0.1-0.3c0.4-1.2-0.3-3.7-0.3-3.7
		c0-0.1,0-0.1,0.1-0.1c0.1,0,0.1,0,0.1,0.1c0,0.1,0.7,2.7,0.3,3.9c0,0.1-0.1,0.2-0.1,0.3c-0.3,1-0.6,1.8-2,2.1
		C63.6,66.6,63.4,66.6,63.3,66.6z"/>
</g>
</svg>
