<?xml version="1.0" encoding="UTF-8" standalone="no"?>
<!-- Generator: Adobe Illustrator 16.0.0, SVG Export Plug-In . SVG Version: 6.00 Build 0)  -->

<svg
   xmlns:dc="http://purl.org/dc/elements/1.1/"
   xmlns:cc="http://creativecommons.org/ns#"
   xmlns:rdf="http://www.w3.org/1999/02/22-rdf-syntax-ns#"
   xmlns:svg="http://www.w3.org/2000/svg"
   xmlns="http://www.w3.org/2000/svg"
   xmlns:sodipodi="http://sodipodi.sourceforge.net/DTD/sodipodi-0.dtd"
   xmlns:inkscape="http://www.inkscape.org/namespaces/inkscape"
   version="1.1"
   id="Layer_1"
   x="0px"
   y="0px"
   width="21"
   height="21"
   viewBox="-315.5 -35.5 21 21"
   enable-background="new -315.5 -35.5 50 50"
   xml:space="preserve"
   inkscape:version="0.91 r13725"
   sodipodi:docname="android.svg"><metadata
     id="metadata9"><rdf:RDF><cc:Work
         rdf:about=""><dc:format>image/svg+xml</dc:format><dc:type
           rdf:resource="http://purl.org/dc/dcmitype/StillImage" /><dc:title /></cc:Work></rdf:RDF></metadata><defs
     id="defs7" /><sodipodi:namedview
     pagecolor="#ffffff"
     bordercolor="#666666"
     borderopacity="1"
     objecttolerance="10"
     gridtolerance="10"
     guidetolerance="10"
     inkscape:pageopacity="0"
     inkscape:pageshadow="2"
     inkscape:window-width="1366"
     inkscape:window-height="705"
     id="namedview5"
     showgrid="false"
     inkscape:zoom="4.72"
     inkscape:cx="-6.25"
     inkscape:cy="25"
     inkscape:window-x="-8"
     inkscape:window-y="-8"
     inkscape:window-maximized="1"
     inkscape:current-layer="Layer_1" /><path
     d="m -299.64346,-35.090204 -10.67465,0 c -0.40497,0 -0.73274,0.287441 -0.73274,0.642564 l 0,15.703381 c 0,0.355123 0.32777,0.642564 0.73274,0.642564 l 10.67465,0 c 0.40496,0 0.73274,-0.287441 0.73274,-0.642564 l 0,-15.703381 c 0,-0.355123 -0.32827,-0.642564 -0.73274,-0.642564 z m -7.20974,0.783499 3.74532,0 c 0.13485,0 0.24425,0.09595 0.24425,0.214188 0,0.118236 -0.10947,0.214186 -0.24425,0.214186 l -3.74532,0 c -0.13486,0 -0.24424,-0.09595 -0.24424,-0.214186 0,-0.118225 0.10891,-0.214188 0.24424,-0.214188 z m 1.87241,15.49305 c -0.35952,0 -0.65115,-0.25574 -0.65115,-0.571025 0,-0.315283 0.29163,-0.571452 0.65115,-0.571452 0.35954,0 0.65117,0.25574 0.65117,0.571024 0,0.315285 -0.29163,0.571453 -0.65117,0.571453 z m 4.60458,-1.78504 -9.20914,0 0,-12.708611 9.20914,0 0,12.708611 z"
     id="path3"
     inkscape:connector-curvature="0"
     style="fill:#333333" /></svg>