<?xml version="1.0" encoding="UTF-8" standalone="no"?>
<!-- Generator: Adobe Illustrator 16.0.0, SVG Export Plug-In . SVG Version: 6.00 Build 0)  -->

<svg
   xmlns:dc="http://purl.org/dc/elements/1.1/"
   xmlns:cc="http://creativecommons.org/ns#"
   xmlns:rdf="http://www.w3.org/1999/02/22-rdf-syntax-ns#"
   xmlns:svg="http://www.w3.org/2000/svg"
   xmlns="http://www.w3.org/2000/svg"
   xmlns:sodipodi="http://sodipodi.sourceforge.net/DTD/sodipodi-0.dtd"
   xmlns:inkscape="http://www.inkscape.org/namespaces/inkscape"
   version="1.1"
   id="Layer_1"
   x="0px"
   y="0px"
   width="30"
   height="30"
   viewBox="314.5 244.5 30 30"
   enable-background="new 314.5 244.5 50 50"
   xml:space="preserve"
   inkscape:version="0.91 r13725"
   sodipodi:docname="info.svg"><metadata
     id="metadata9"><rdf:RDF><cc:Work
         rdf:about=""><dc:format>image/svg+xml</dc:format><dc:type
           rdf:resource="http://purl.org/dc/dcmitype/StillImage" /><dc:title></dc:title></cc:Work></rdf:RDF></metadata><defs
     id="defs7" /><sodipodi:namedview
     pagecolor="#ffffff"
     bordercolor="#666666"
     borderopacity="1"
     objecttolerance="10"
     gridtolerance="10"
     guidetolerance="10"
     inkscape:pageopacity="0"
     inkscape:pageshadow="2"
     inkscape:window-width="1366"
     inkscape:window-height="705"
     id="namedview5"
     showgrid="false"
     inkscape:zoom="4.72"
     inkscape:cx="25"
     inkscape:cy="25"
     inkscape:window-x="-8"
     inkscape:window-y="-8"
     inkscape:window-maximized="1"
     inkscape:current-layer="Layer_1" /><path
     d="m 329.50847,248.02543 c -6.55548,0 -11.88983,5.23872 -11.88983,11.67796 0,6.43924 5.33435,11.67796 11.88983,11.67796 6.55665,0 11.88983,-5.23872 11.88983,-11.67796 0,-6.43924 -5.33318,-11.67796 -11.88983,-11.67796 z m 2.04446,18.5382 c 0,0.61192 -0.50532,1.10704 -1.12717,1.10704 l -1.83458,0 c -0.62363,0 -1.12716,-0.49572 -1.12716,-1.10704 l 0,-6.01125 c 0,-0.61132 0.50413,-1.10707 1.12716,-1.10707 l 1.83458,0 c 0.62246,0 1.12717,0.49631 1.12717,1.10707 l 0,6.01125 z m 0,-9.33363 c 0,0.61192 -0.50532,1.10706 -1.12717,1.10706 l -1.83458,0 c -0.62363,0 -1.12716,-0.49573 -1.12716,-1.10706 l 0,-1.89827 c 0,-0.61191 0.50413,-1.10706 1.12716,-1.10706 l 1.83458,0 c 0.62246,0 1.12717,0.49573 1.12717,1.10706 l 0,1.89827 z"
     id="path3"
     inkscape:connector-curvature="0"
     style="fill:#333333" /></svg>