<?xml version="1.0" encoding="UTF-8" standalone="no"?>
<!-- Generator: Adobe Illustrator 16.0.0, SVG Export Plug-In . SVG Version: 6.00 Build 0)  -->

<svg
   xmlns:dc="http://purl.org/dc/elements/1.1/"
   xmlns:cc="http://creativecommons.org/ns#"
   xmlns:rdf="http://www.w3.org/1999/02/22-rdf-syntax-ns#"
   xmlns:svg="http://www.w3.org/2000/svg"
   xmlns="http://www.w3.org/2000/svg"
   xmlns:sodipodi="http://sodipodi.sourceforge.net/DTD/sodipodi-0.dtd"
   xmlns:inkscape="http://www.inkscape.org/namespaces/inkscape"
   version="1.1"
   id="Layer_1"
   x="0px"
   y="0px"
   width="17"
   height="20"
   viewBox="174.5 -315.5 17 20"
   enable-background="new 174.5 -315.5 50 50"
   xml:space="preserve"
   inkscape:version="0.91 r13725"
   sodipodi:docname="link.svg"><metadata
     id="metadata9"><rdf:RDF><cc:Work
         rdf:about=""><dc:format>image/svg+xml</dc:format><dc:type
           rdf:resource="http://purl.org/dc/dcmitype/StillImage" /><dc:title></dc:title></cc:Work></rdf:RDF></metadata><defs
     id="defs7" /><sodipodi:namedview
     pagecolor="#ffffff"
     bordercolor="#666666"
     borderopacity="1"
     objecttolerance="10"
     gridtolerance="10"
     guidetolerance="10"
     inkscape:pageopacity="0"
     inkscape:pageshadow="2"
     inkscape:window-width="640"
     inkscape:window-height="480"
     id="namedview5"
     showgrid="false"
     inkscape:zoom="4.72"
     inkscape:cx="25"
     inkscape:cy="25"
     inkscape:window-x="521"
     inkscape:window-y="62"
     inkscape:window-maximized="0"
     inkscape:current-layer="Layer_1" /><path
     d="m 189.94398,-305.25 -2.17483,-2.5012 c -0.3608,-0.41527 -0.85907,-0.64409 -1.4019,-0.64409 -0.446,0 -0.89618,0.15566 -1.29972,0.43475 l -0.0858,-0.0982 c 0.5446,-1.04639 0.50065,-2.32296 -0.18204,-3.10775 l -2.17424,-2.50121 c -0.3614,-0.4156 -0.85967,-0.64443 -1.40248,-0.64443 -0.66396,0 -1.33865,0.33844 -1.85177,0.92892 l -0.0683,0.0783 c -0.96507,1.11059 -1.07584,2.78912 -0.24706,3.74226 l 2.17484,2.50121 c 0.36138,0.41562 0.85906,0.64443 1.40189,0.64443 0.44602,0 0.8962,-0.15565 1.29974,-0.43508 l 0.0858,0.0987 c -0.5446,1.04607 -0.50065,2.32261 0.18205,3.10775 l 2.17425,2.50088 c 0.36139,0.41561 0.85966,0.64476 1.40248,0.64476 0.66397,0 1.33923,-0.33844 1.85294,-0.93027 l 0.0669,-0.0771 c 0.96537,-1.10989 1.07614,-2.78876 0.24735,-3.74226 z m -7.31172,-2.87446 c -0.10327,0 -0.24884,-0.025 -0.35219,-0.14405 l -2.17484,-2.50121 c -0.21469,-0.24658 -0.16604,-0.85275 0.24706,-1.32777 l 0.0683,-0.0783 c 0.2331,-0.26808 0.53302,-0.42859 0.80206,-0.42859 0.10391,0 0.24884,0.025 0.35278,0.14404 l 2.17424,2.50122 c 0.11132,0.1276 0.14965,0.35243 0.1054,0.60482 l -1.19315,-1.37216 c -0.2901,-0.33366 -0.75988,-0.33366 -1.0497,0 -0.29013,0.33331 -0.29013,0.87391 0,1.20722 l 1.19195,1.37048 c -0.0576,0.0132 -0.11552,0.0241 -0.17195,0.0241 z m 6.01318,5.41086 -0.0667,0.0777 c -0.23311,0.26809 -0.53304,0.42859 -0.80207,0.42859 -0.10328,0 -0.24883,-0.0252 -0.35276,-0.14448 l -2.17425,-2.50086 c -0.11133,-0.12781 -0.14965,-0.35245 -0.1054,-0.60482 l 1.19313,1.37218 c 0.14487,0.16662 0.33467,0.24997 0.52499,0.24997 0.18968,0 0.37982,-0.0833 0.52503,-0.24997 0.2901,-0.33366 0.2901,-0.87426 0,-1.20724 l -1.19195,-1.37047 c 0.0579,-0.0132 0.11609,-0.0241 0.17233,-0.0241 0.10338,0 0.24883,0.025 0.35218,0.14382 l 2.17483,2.50122 c 0.21441,0.24655 0.16509,0.85272 -0.24913,1.3288 z"
     id="path3"
     inkscape:connector-curvature="0"
     style="fill:#333333" /></svg>