<?xml version="1.0" standalone="no"?>
<!DOCTYPE svg PUBLIC "-//W3C//DTD SVG 20010904//EN"
 "http://www.w3.org/TR/2001/REC-SVG-20010904/DTD/svg10.dtd">
<svg version="1.0" xmlns="http://www.w3.org/2000/svg"
 width="127.963168pt" height="127.908277pt" viewBox="0 0 127.963168 127.908277"
 preserveAspectRatio="xMidYMid meet">
<metadata>
Created by Potrace Professional 1.0-eval
</metadata>
<g transform="translate(-0.036832,127.957381) rotate(-360.00) scale(0.100000,-0.100000)"
fill="#000000" stroke="none">
<path d="M583 1255 l-23 -24 0 -111 0 -111 25 -24 c15 -16 36 -25 55 -25 19 0
40 9 55 25 l25 24 0 111 0 111 -25 24 c-32 33 -82 33 -112 0z"/>
<path d="M203 1107 c-24 -12 -43 -47 -43 -78 0 -11 36 -55 85 -104 96 -96 122
-105 169 -59 46 47 37 73 -59 169 -87 87 -104 95 -152 72z"/>
<path d="M923 1034 c-94 -95 -103 -122 -57 -168 47 -46 73 -37 169 59 49 49
85 93 85 104 0 50 -44 92 -94 90 -12 0 -56 -36 -103 -85z"/>
<path d="M23 695 c-31 -33 -30 -79 2 -110 l24 -25 111 0 111 0 24 25 c33 32
33 78 0 110 l-24 25 -113 -1 -113 0 -22 -24z"/>
<path d="M983 695 c-31 -33 -30 -79 2 -110 l24 -25 111 0 111 0 24 25 c16 15
25 36 25 55 0 19 -9 40 -25 55 l-24 25 -113 -1 -113 0 -22 -24z"/>
<path d="M243 354 c-47 -47 -83 -92 -83 -103 0 -49 43 -91 92 -91 10 0 56 38
103 85 67 67 85 91 85 113 0 40 -43 82 -84 81 l-31 -1 -82 -84z"/>
<path d="M866 414 c-46 -47 -37 -73 59 -169 47 -47 93 -85 103 -85 49 0 92 42
92 91 0 11 -36 55 -85 104 -96 96 -122 105 -169 59z"/>
<path d="M583 295 l-23 -24 0 -111 0 -111 25 -24 c32 -33 78 -33 110 0 l25 24
0 111 0 111 -25 24 c-32 33 -82 33 -112 0z"/>
</g>
</svg>
