<?xml version="1.0" standalone="no"?>
<!DOCTYPE svg PUBLIC "-//W3C//DTD SVG 20010904//EN"
 "http://www.w3.org/TR/2001/REC-SVG-20010904/DTD/svg10.dtd">
<svg version="1.0" xmlns="http://www.w3.org/2000/svg"
 width="299.178416pt" height="327.074013pt" viewBox="0 0 299.178416 327.074013"
 preserveAspectRatio="xMidYMid meet">
<metadata>
Created by Potrace Professional 1.0-eval
</metadata>
<g transform="translate(-36.821584,369.818983) rotate(-360.00) scale(0.100000,-0.100000)"
fill="#000000" stroke="none">
<path d="M1939 3696 c-4 -4 -53 -11 -110 -16 -143 -13 -192 -21 -204 -31 -5
-5 -24 -9 -41 -9 -18 0 -36 -4 -39 -10 -3 -5 -19 -10 -36 -10 -16 0 -29 -4
-29 -10 0 -5 -13 -10 -30 -10 -16 0 -30 -4 -30 -10 0 -5 -9 -10 -20 -10 -11 0
-35 -9 -55 -20 -20 -11 -42 -20 -50 -20 -8 0 -15 -4 -15 -10 0 -5 -9 -10 -20
-10 -11 0 -20 -4 -20 -10 0 -5 -7 -10 -15 -10 -9 0 -25 -9 -37 -20 -12 -11
-28 -20 -35 -20 -7 0 -13 -4 -13 -10 0 -5 -9 -10 -20 -10 -11 0 -20 -4 -20 -8
0 -4 -12 -15 -27 -24 -16 -9 -41 -28 -58 -42 -16 -14 -34 -26 -38 -26 -14 0
-277 -269 -277 -283 0 -7 -9 -19 -20 -27 -11 -8 -20 -19 -20 -25 0 -6 -8 -20
-17 -31 -10 -10 -24 -31 -32 -46 -8 -16 -18 -28 -23 -28 -4 0 -8 -9 -8 -19 0
-11 -3 -21 -7 -23 -11 -4 -53 -87 -53 -104 0 -8 -4 -14 -10 -14 -5 0 -10 -9
-10 -20 0 -11 -4 -20 -8 -20 -5 0 -15 -23 -22 -51 -8 -27 -18 -52 -22 -55 -4
-3 -8 -16 -8 -30 0 -13 -4 -24 -10 -24 -5 0 -10 -15 -10 -34 0 -19 -4 -38 -10
-41 -5 -3 -10 -21 -10 -39 0 -17 -4 -36 -9 -41 -15 -16 -23 -128 -23 -325 0
-197 8 -309 23 -324 5 -6 9 -25 9 -42 0 -18 5 -36 10 -39 6 -3 10 -22 10 -41
0 -19 5 -34 10 -34 6 0 10 -11 10 -24 0 -14 5 -28 10 -31 6 -3 10 -17 10 -30
0 -13 5 -27 10 -30 6 -3 10 -15 10 -26 0 -10 5 -19 10 -19 6 0 10 -9 10 -20 0
-11 5 -20 10 -20 6 0 10 -6 10 -14 0 -17 42 -100 53 -104 4 -2 7 -10 7 -18 0
-8 9 -24 20 -36 11 -12 20 -28 20 -35 0 -7 4 -13 9 -13 5 0 13 -9 16 -20 4
-11 17 -32 31 -45 13 -13 24 -29 24 -34 0 -12 265 -281 277 -281 4 0 22 -12
38 -26 17 -14 42 -33 58 -42 15 -9 27 -20 27 -24 0 -4 9 -8 20 -8 11 0 20 -4
20 -10 0 -5 6 -10 13 -10 7 0 23 -9 35 -20 12 -11 28 -20 37 -20 8 0 15 -4 15
-10 0 -5 9 -10 20 -10 11 0 20 -4 20 -10 0 -5 6 -10 13 -10 7 0 32 -9 55 -20
22 -11 48 -20 56 -20 8 0 18 -5 21 -10 3 -6 17 -10 31 -10 13 0 24 -4 24 -10
0 -5 14 -10 30 -10 17 0 30 -4 30 -10 0 -5 17 -10 38 -10 21 0 42 -4 47 -9 10
-9 35 -13 215 -33 133 -14 169 -14 310 1 191 20 210 23 210 32 0 5 18 9 39 9
22 0 43 5 46 10 3 6 17 10 30 10 13 0 27 5 30 10 3 6 17 10 31 10 13 0 24 5
24 10 0 6 11 10 24 10 14 0 28 5 31 10 3 6 15 10 26 10 10 0 19 5 19 10 0 6 9
10 20 10 11 0 20 5 20 10 0 6 7 10 15 10 14 0 53 18 65 30 10 10 65 41 83 47
9 3 17 9 17 14 0 5 6 9 14 9 7 0 27 14 44 30 18 17 35 30 40 30 8 0 109 88
161 141 40 39 55 61 69 100 14 42 16 145 2 154 -5 3 -10 15 -10 26 0 10 -4 19
-10 19 -5 0 -10 6 -10 13 0 35 -80 92 -167 118 l-43 12 -42 -13 c-79 -23 -109
-41 -163 -96 -30 -30 -58 -54 -63 -54 -5 0 -23 -13 -40 -30 -18 -16 -37 -30
-42 -30 -6 0 -20 -9 -32 -20 -12 -11 -28 -20 -35 -20 -7 0 -13 -4 -13 -10 0
-5 -9 -10 -20 -10 -11 0 -20 -4 -20 -10 0 -5 -9 -10 -20 -10 -11 0 -20 -4 -20
-8 0 -4 -21 -14 -47 -21 -27 -8 -55 -18 -63 -22 -8 -4 -35 -12 -60 -19 -25 -6
-61 -16 -80 -22 -47 -15 -418 -14 -433 1 -6 6 -26 11 -43 11 -18 0 -36 5 -39
10 -3 6 -17 10 -31 10 -13 0 -32 4 -42 9 -9 5 -28 13 -42 19 -14 5 -54 24 -90
42 -36 18 -75 38 -87 44 -13 6 -23 14 -23 19 0 4 -6 7 -14 7 -7 0 -27 14 -44
30 -18 17 -35 30 -40 30 -12 0 -123 109 -157 155 -17 22 -38 49 -47 59 -10 11
-18 24 -18 28 0 5 -9 18 -20 30 -11 12 -20 28 -20 35 0 7 -4 13 -10 13 -5 0
-10 9 -10 20 0 11 -4 20 -10 20 -5 0 -10 9 -10 20 0 11 -4 20 -10 20 -5 0 -10
9 -10 20 0 11 -4 20 -10 20 -5 0 -10 11 -10 24 0 14 -4 28 -10 31 -5 3 -10 17
-10 30 0 13 -4 26 -9 29 -5 3 -12 23 -15 43 -4 21 -12 65 -18 98 -14 77 -14
293 0 370 6 33 14 77 18 98 3 20 10 40 15 43 5 3 9 16 9 29 0 13 5 27 10 30 6
3 10 17 10 31 0 13 5 24 10 24 6 0 10 9 10 20 0 11 5 20 10 20 6 0 10 9 10 20
0 11 5 20 10 20 6 0 10 9 10 20 0 11 5 20 10 20 6 0 10 6 10 13 0 7 9 23 20
35 11 12 20 25 20 30 0 4 8 17 18 28 9 10 29 35 44 55 38 51 97 110 138 139
19 14 48 37 64 52 16 16 35 28 42 28 8 0 14 3 14 8 0 4 10 12 23 18 12 6 51
26 87 44 76 38 92 45 145 61 22 6 48 15 57 20 10 5 29 9 44 9 14 0 35 5 46 11
13 7 93 11 215 11 128 0 199 -4 206 -11 6 -6 22 -11 36 -11 24 0 80 -15 111
-30 8 -3 36 -13 63 -21 26 -7 47 -17 47 -21 0 -4 9 -8 20 -8 11 0 20 -4 20
-10 0 -5 9 -10 20 -10 11 0 20 -4 20 -10 0 -5 6 -10 13 -10 7 0 23 -9 35 -20
12 -11 25 -20 30 -20 4 0 17 -8 28 -18 10 -10 34 -28 52 -40 17 -13 32 -27 32
-33 0 -5 -34 -42 -75 -84 -58 -57 -75 -81 -75 -102 1 -34 21 -63 44 -63 9 0
16 -4 16 -10 0 -6 115 -10 324 -10 206 0 327 4 331 10 3 6 13 10 22 10 40 0
42 21 43 375 l0 341 -16 22 c-11 16 -25 22 -55 22 l-40 0 -69 -70 c-42 -42
-77 -70 -90 -70 -11 0 -36 15 -55 34 -19 19 -48 42 -64 52 -17 10 -31 22 -31
26 0 4 -6 8 -12 8 -7 0 -26 11 -42 25 -16 13 -37 27 -47 30 -11 4 -19 11 -19
16 0 5 -9 9 -20 9 -11 0 -20 5 -20 10 0 6 -9 10 -20 10 -11 0 -20 3 -20 8 0 8
-49 32 -67 32 -7 0 -13 5 -13 10 0 6 -7 10 -15 10 -8 0 -24 5 -35 10 -11 6
-29 15 -40 20 -11 6 -29 10 -39 10 -11 0 -23 5 -26 10 -3 6 -17 10 -30 10 -13
0 -27 5 -30 10 -3 6 -21 10 -39 10 -17 0 -36 4 -42 9 -12 12 -58 18 -344 46
-41 4 -78 4 -81 1z"/>
</g>
</svg>
