<?xml version="1.0" standalone="no"?>
<!DOCTYPE svg PUBLIC "-//W3C//DTD SVG 20010904//EN"
 "http://www.w3.org/TR/2001/REC-SVG-20010904/DTD/svg10.dtd">
<svg version="1.0" xmlns="http://www.w3.org/2000/svg"
 width="314.430820pt" height="383.482397pt" viewBox="0 0 314.430820 383.482397"
 preserveAspectRatio="xMidYMid meet">
<metadata>
Created by Potrace Professional 1.0-eval
</metadata>
<g transform="translate(-42.756690,391.665267) rotate(-360.00) scale(0.100000,-0.100000)"
fill="#000000" stroke="none">
<path d="M1955 3915 c-5 -3 -46 -9 -90 -15 -116 -15 -184 -27 -235 -40 -25 -6
-60 -14 -77 -17 -18 -3 -33 -9 -33 -14 0 -5 -9 -9 -20 -9 -11 0 -28 -4 -38 -9
-9 -5 -30 -14 -47 -21 -16 -7 -38 -16 -47 -21 -10 -5 -25 -9 -33 -9 -8 0 -15
-4 -15 -10 0 -5 -9 -10 -20 -10 -11 0 -20 -4 -20 -10 0 -5 -9 -10 -20 -10 -11
0 -20 -4 -20 -10 0 -5 -6 -10 -13 -10 -7 0 -23 -9 -35 -20 -12 -11 -28 -20
-37 -20 -8 0 -15 -4 -15 -8 0 -5 -12 -15 -27 -23 -15 -8 -41 -26 -57 -41 -16
-16 -33 -28 -38 -28 -12 0 -228 -217 -258 -260 -13 -19 -32 -44 -42 -54 -10
-11 -18 -26 -18 -33 0 -7 -4 -13 -8 -13 -5 0 -15 -12 -23 -27 -8 -16 -16 -30
-19 -33 -21 -21 -110 -205 -110 -227 0 -7 -4 -13 -10 -13 -5 0 -10 -13 -10
-30 0 -16 -4 -30 -10 -30 -5 0 -10 -11 -10 -24 0 -14 -4 -28 -10 -31 -5 -3
-10 -19 -10 -35 0 -16 -4 -31 -9 -34 -5 -3 -12 -25 -15 -48 -4 -24 -11 -74
-17 -113 -15 -96 -15 -355 0 -440 6 -38 14 -89 17 -112 4 -24 10 -43 15 -43 5
0 9 -10 9 -22 0 -29 27 -112 51 -160 5 -10 9 -27 9 -38 0 -11 5 -20 10 -20 6
0 10 -7 10 -15 0 -8 4 -23 9 -33 5 -9 26 -53 48 -97 42 -85 85 -167 93 -175 3
-3 11 -15 18 -27 6 -13 18 -33 25 -45 6 -13 20 -30 30 -39 9 -9 17 -23 17 -30
0 -8 9 -21 20 -29 11 -8 20 -21 20 -30 0 -9 9 -22 20 -30 11 -8 20 -19 20 -25
0 -6 18 -31 40 -55 22 -24 40 -48 40 -53 0 -5 13 -21 28 -35 15 -15 39 -43 52
-62 13 -19 40 -51 60 -70 19 -19 55 -60 80 -90 58 -70 227 -239 310 -310 35
-30 80 -71 100 -90 19 -20 51 -47 70 -60 19 -13 46 -36 60 -50 14 -14 41 -37
60 -50 19 -13 42 -32 51 -42 9 -10 21 -18 26 -18 5 0 18 -8 29 -18 10 -9 38
-27 61 -39 l41 -21 39 14 c21 8 46 17 56 21 9 3 17 9 17 14 0 5 6 9 13 9 7 0
22 8 33 18 10 10 35 29 54 42 19 14 45 35 58 47 13 13 27 23 32 23 5 0 19 10
32 23 13 12 39 34 58 47 19 14 54 43 76 66 23 23 59 54 80 70 51 39 333 320
364 364 14 19 46 57 72 83 27 27 48 54 48 59 0 5 14 23 30 38 17 15 30 32 30
38 0 5 12 22 28 38 15 16 33 42 41 57 8 15 18 27 23 27 4 0 8 6 8 13 0 7 8 22
18 33 9 10 23 31 31 47 8 15 18 27 23 27 4 0 8 7 8 15 0 9 9 25 20 37 11 12
20 28 20 35 0 7 5 13 10 13 6 0 10 9 10 20 0 11 5 20 10 20 6 0 10 9 10 20 0
11 5 20 10 20 6 0 10 9 10 20 0 11 5 20 10 20 6 0 10 9 10 20 0 11 5 20 10 20
6 0 10 9 10 20 0 11 5 20 10 20 6 0 10 9 10 20 0 11 5 20 10 20 6 0 10 9 10
20 0 11 5 29 10 40 6 11 15 29 20 40 6 11 10 29 10 40 0 11 5 20 10 20 6 0 10
13 10 29 0 17 5 33 10 36 6 3 10 22 10 41 0 19 4 34 9 34 5 0 12 21 15 48 4
26 11 79 17 117 14 90 14 359 0 450 -6 39 -13 89 -17 113 -3 23 -10 45 -15 48
-5 3 -9 18 -9 34 0 16 -4 32 -10 35 -5 3 -10 17 -10 31 0 13 -4 24 -10 24 -5
0 -10 14 -10 30 0 17 -4 30 -10 30 -5 0 -10 6 -10 13 0 22 -89 206 -110 227
-3 3 -11 17 -19 33 -8 15 -18 27 -23 27 -4 0 -8 6 -8 13 0 7 -8 22 -18 33 -10
10 -29 35 -42 54 -30 43 -246 260 -258 260 -5 0 -22 12 -38 28 -16 15 -42 33
-57 41 -15 8 -27 18 -27 23 0 4 -7 8 -15 8 -9 0 -25 9 -37 20 -12 11 -28 20
-35 20 -7 0 -13 5 -13 10 0 6 -9 10 -20 10 -11 0 -20 5 -20 10 0 6 -9 10 -20
10 -11 0 -20 5 -20 10 0 6 -7 10 -15 10 -8 0 -23 4 -33 9 -9 5 -30 14 -47 21
-16 7 -38 16 -47 21 -10 5 -27 9 -38 9 -11 0 -20 4 -20 9 0 5 -15 11 -32 14
-18 3 -53 11 -78 17 -107 27 -393 65 -415 55z m280 -373 c28 -6 68 -15 90 -21
22 -6 52 -13 68 -17 15 -3 30 -10 33 -15 3 -5 16 -9 30 -9 13 0 24 -4 24 -10
0 -5 9 -10 20 -10 11 0 20 -4 20 -10 0 -5 9 -10 20 -10 11 0 20 -4 20 -10 0
-5 9 -10 20 -10 11 0 20 -4 20 -10 0 -5 7 -10 15 -10 9 0 25 -9 37 -20 12 -11
28 -20 35 -20 7 0 13 -4 13 -8 0 -4 15 -16 33 -27 41 -24 267 -250 267 -268 0
-7 9 -19 20 -27 11 -8 20 -20 20 -28 0 -7 9 -22 20 -34 11 -12 20 -28 20 -35
0 -7 5 -13 10 -13 6 0 10 -9 10 -20 0 -11 5 -20 10 -20 6 0 10 -9 10 -20 0
-11 4 -20 8 -20 5 0 15 -22 22 -50 7 -27 17 -50 22 -50 4 0 8 -13 8 -29 0 -17
5 -33 10 -36 6 -3 10 -21 10 -40 0 -19 5 -37 10 -40 6 -3 10 -28 10 -54 0 -26
5 -52 11 -58 19 -19 -1 -405 -22 -427 -5 -6 -9 -23 -9 -38 0 -16 -4 -36 -9
-46 -5 -9 -15 -37 -22 -62 -7 -25 -16 -49 -21 -54 -4 -6 -8 -20 -8 -33 0 -13
-4 -23 -10 -23 -5 0 -10 -9 -10 -20 0 -11 -4 -20 -10 -20 -5 0 -10 -7 -10 -15
0 -17 -81 -178 -92 -183 -5 -2 -8 -10 -8 -18 0 -8 -9 -24 -20 -36 -11 -12 -20
-28 -20 -35 0 -7 -4 -13 -10 -13 -5 0 -10 -6 -10 -12 0 -7 -11 -26 -25 -42
-14 -16 -25 -33 -25 -37 0 -4 -6 -14 -13 -21 -7 -7 -24 -29 -37 -48 -14 -19
-35 -45 -47 -58 -13 -13 -23 -27 -23 -32 0 -5 -19 -29 -43 -52 -23 -24 -53
-59 -67 -78 -33 -46 -315 -328 -360 -360 -19 -13 -51 -40 -70 -60 -19 -20 -51
-47 -70 -60 -19 -14 -45 -34 -57 -47 -12 -12 -36 -30 -53 -39 -16 -10 -30 -22
-30 -26 0 -18 -34 -6 -58 20 -15 15 -43 39 -62 52 -19 13 -55 45 -80 70 -25
25 -62 58 -84 74 -49 37 -278 265 -336 336 -25 30 -66 76 -92 103 -27 27 -48
54 -48 59 0 5 -14 23 -30 38 -16 15 -30 32 -30 38 0 5 -13 23 -30 40 -16 18
-30 35 -30 39 0 5 -14 24 -30 43 -16 19 -30 41 -30 48 0 6 -4 12 -9 12 -5 0
-13 9 -16 20 -3 11 -12 26 -18 33 -17 18 -47 69 -54 90 -3 9 -9 17 -14 17 -5
0 -9 9 -9 20 0 11 -4 20 -10 20 -5 0 -10 9 -10 20 0 11 -4 20 -10 20 -5 0 -10
9 -10 20 0 11 -4 20 -10 20 -5 0 -10 9 -10 20 0 11 -4 20 -10 20 -5 0 -10 7
-10 15 0 8 -4 23 -9 33 -15 30 -29 66 -42 107 -6 22 -15 49 -20 60 -8 22 -15
50 -31 135 -15 80 -21 341 -9 353 6 6 11 32 11 58 0 26 5 51 10 54 6 3 10 21
10 40 0 19 5 37 10 40 6 3 10 19 10 36 0 16 4 29 8 29 5 0 15 23 22 50 7 28
17 50 22 50 4 0 8 9 8 20 0 11 5 20 10 20 6 0 10 9 10 20 0 11 5 20 10 20 6 0
10 6 10 13 0 7 9 23 20 35 11 12 20 27 20 34 0 8 9 20 20 28 11 8 20 20 20 27
0 18 226 244 268 268 17 11 32 23 32 27 0 4 6 8 13 8 7 0 23 9 35 20 12 11 28
20 37 20 8 0 15 5 15 10 0 6 9 10 20 10 11 0 20 5 20 10 0 6 9 10 20 10 11 0
20 5 20 10 0 6 9 10 20 10 11 0 20 5 20 10 0 6 10 10 23 10 13 0 27 4 32 8 6
5 30 14 55 21 25 7 59 17 76 22 17 5 44 9 60 9 16 0 36 5 44 10 19 13 357 6
425 -8z"/>
<path d="M1935 3028 c-72 -14 -127 -29 -147 -39 -10 -5 -25 -9 -33 -9 -8 0
-15 -4 -15 -10 0 -5 -9 -10 -20 -10 -11 0 -20 -4 -20 -10 0 -5 -9 -10 -20 -10
-11 0 -20 -4 -20 -8 0 -4 -13 -16 -30 -25 -35 -21 -130 -112 -130 -124 0 -5
-8 -18 -17 -29 -34 -38 -83 -130 -83 -154 0 -11 -4 -20 -9 -20 -14 0 -23 -65
-28 -204 -3 -83 0 -133 6 -139 6 -6 11 -21 11 -34 0 -13 4 -31 9 -41 5 -9 20
-41 32 -69 12 -29 26 -53 31 -53 4 0 8 -8 8 -18 0 -10 9 -24 20 -32 11 -8 20
-19 20 -25 1 -15 60 -77 100 -105 19 -13 37 -27 40 -30 7 -7 47 -29 95 -53 22
-11 48 -23 57 -28 10 -5 29 -9 42 -9 13 0 26 -5 28 -11 5 -14 279 -15 306 0
11 6 32 11 46 11 14 0 26 5 26 10 0 6 5 10 12 10 19 0 108 43 108 52 0 4 7 8
15 8 18 0 176 156 195 193 7 15 17 27 22 27 4 0 8 9 8 20 0 11 5 20 10 20 6 0
10 9 10 19 0 11 5 23 10 26 6 3 10 17 10 31 0 13 4 24 9 24 13 0 23 81 23 190
0 109 -10 190 -23 190 -5 0 -9 14 -9 30 0 17 -4 30 -10 30 -5 0 -10 9 -10 20
0 11 -4 20 -10 20 -5 0 -10 9 -10 20 0 11 -4 20 -10 20 -5 0 -10 6 -10 13 -1
34 -144 181 -213 216 -15 8 -27 18 -27 23 0 4 -9 8 -20 8 -11 0 -20 3 -20 8 0
9 -132 49 -190 57 -93 12 -126 13 -175 3z m190 -178 c3 -5 17 -10 30 -10 13 0
27 -4 30 -10 3 -5 17 -10 31 -10 13 0 24 -4 24 -10 0 -5 6 -10 13 -10 33 -1
187 -153 187 -185 0 -8 5 -15 10 -15 6 0 10 -9 10 -20 0 -11 5 -20 10 -20 6 0
10 -13 10 -30 0 -16 5 -30 10 -30 6 0 10 -48 10 -124 0 -73 -4 -127 -10 -131
-5 -3 -10 -17 -10 -30 0 -13 -4 -27 -10 -30 -5 -3 -10 -15 -10 -26 0 -10 -4
-19 -10 -19 -5 0 -10 -6 -10 -14 0 -20 -144 -166 -164 -166 -9 0 -16 -3 -16
-7 0 -9 -49 -33 -67 -33 -7 0 -13 -4 -13 -9 0 -20 -209 -33 -275 -17 -108 27
-213 97 -285 191 -14 19 -53 95 -71 140 -10 27 -22 102 -22 145 0 57 15 150
24 150 5 0 9 9 9 19 0 23 40 101 52 101 4 0 8 6 8 14 0 18 68 88 109 112 17
10 31 22 31 26 0 4 9 8 20 8 11 0 20 5 20 10 0 6 7 10 15 10 8 0 23 4 33 9 43
22 84 29 174 30 55 1 99 -3 103 -9z"/>
</g>
</svg>
