<?xml version="1.0" standalone="no"?>
<!DOCTYPE svg PUBLIC "-//W3C//DTD SVG 20010904//EN"
 "http://www.w3.org/TR/2001/REC-SVG-20010904/DTD/svg10.dtd">
<svg version="1.0" xmlns="http://www.w3.org/2000/svg"
 width="370.594347pt" height="369.564553pt" viewBox="0 0 370.594347 369.564553"
 preserveAspectRatio="xMidYMid meet">
<metadata>
Created by Potrace Professional 1.0-eval
</metadata>
<g transform="translate(-16.772518,383.348279) rotate(-360.00) scale(0.100000,-0.100000)"
fill="#000000" stroke="none">
<path d="M1910 3824 c-131 -14 -223 -28 -295 -44 -27 -6 -65 -14 -82 -17 -18
-3 -33 -9 -33 -14 0 -5 -13 -9 -29 -9 -17 0 -33 -4 -36 -10 -3 -5 -17 -10 -31
-10 -13 0 -24 -4 -24 -10 0 -5 -11 -10 -24 -10 -14 0 -28 -4 -31 -10 -3 -5
-15 -10 -26 -10 -10 0 -19 -4 -19 -10 0 -5 -9 -10 -20 -10 -11 0 -20 -4 -20
-10 0 -5 -9 -10 -20 -10 -11 0 -20 -4 -20 -10 0 -5 -9 -10 -20 -10 -11 0 -20
-4 -20 -10 0 -5 -9 -10 -20 -10 -11 0 -20 -4 -20 -9 0 -5 -8 -11 -17 -14 -23
-7 -72 -37 -97 -59 -11 -10 -26 -18 -33 -18 -7 0 -13 -4 -13 -8 0 -4 -14 -16
-30 -26 -17 -9 -41 -27 -53 -39 -12 -13 -38 -34 -57 -47 -45 -32 -168 -155
-200 -200 -13 -19 -37 -47 -52 -62 -15 -14 -28 -30 -28 -35 0 -4 -14 -24 -30
-43 -16 -19 -30 -41 -30 -47 0 -7 -4 -13 -10 -13 -5 0 -10 -6 -10 -13 0 -7 -9
-23 -20 -35 -11 -12 -20 -28 -20 -36 0 -8 -3 -16 -7 -18 -11 -4 -73 -128 -73
-144 0 -8 -4 -14 -10 -14 -5 0 -10 -7 -10 -15 0 -8 -5 -25 -12 -38 -24 -48
-28 -57 -28 -76 0 -11 -4 -23 -10 -26 -5 -3 -10 -17 -10 -30 0 -13 -4 -26 -9
-29 -5 -3 -11 -20 -14 -38 -3 -18 -11 -53 -17 -78 -24 -91 -53 -324 -52 -415
0 -69 12 -179 32 -305 6 -36 13 -82 16 -103 4 -20 10 -40 15 -43 5 -3 9 -15 9
-27 1 -24 42 -153 53 -164 4 -3 7 -17 7 -30 0 -12 5 -23 10 -23 6 0 10 -6 10
-13 0 -17 81 -181 92 -185 4 -2 8 -12 8 -23 0 -10 5 -19 10 -19 6 0 10 -6 10
-13 0 -7 9 -23 20 -35 11 -12 20 -27 20 -34 0 -8 9 -20 20 -28 11 -8 20 -20
20 -26 0 -6 12 -24 28 -40 15 -16 38 -45 52 -64 32 -45 195 -208 240 -240 19
-14 48 -37 64 -52 16 -16 34 -28 40 -28 6 0 18 -9 26 -20 8 -11 21 -20 30 -20
9 0 22 -9 30 -20 8 -11 22 -20 32 -20 10 0 18 -3 18 -7 0 -5 10 -13 23 -19 43
-22 152 -76 169 -85 10 -5 25 -9 33 -9 8 0 15 -4 15 -10 0 -5 9 -10 19 -10 11
0 23 -4 26 -10 3 -5 17 -10 30 -10 13 0 27 -4 30 -10 3 -5 17 -10 30 -10 13 0
27 -4 30 -10 3 -5 19 -10 35 -10 16 0 32 -5 35 -10 3 -6 24 -10 46 -10 21 0
39 -4 39 -9 0 -10 59 -18 248 -30 164 -11 465 6 517 29 11 5 36 11 55 15 19 3
50 8 68 12 17 3 32 9 32 14 0 5 14 9 30 9 17 0 30 5 30 10 0 6 9 10 20 10 11
0 28 4 38 9 9 5 35 17 57 26 22 10 53 23 69 31 16 8 35 14 43 14 7 0 13 4 13
9 0 5 8 11 18 14 23 8 76 40 80 50 2 4 12 7 23 7 10 0 19 4 19 8 0 5 12 15 28
23 15 8 36 22 46 32 11 9 24 17 29 17 5 0 17 8 26 18 9 10 32 29 51 42 45 32
248 234 280 280 13 19 30 41 37 48 7 7 20 26 30 42 9 17 21 30 25 30 4 0 8 6
8 13 0 7 9 23 20 35 11 12 20 28 20 37 0 8 3 15 8 15 4 0 12 10 18 23 7 12 30
58 53 102 22 44 41 88 41 98 0 9 5 17 10 17 6 0 10 9 10 19 0 11 5 23 10 26 6
3 10 17 10 31 0 13 5 24 10 24 6 0 10 13 10 29 0 17 4 33 10 36 5 3 10 19 10
35 0 16 5 32 10 35 6 3 10 23 10 44 0 20 4 41 9 47 5 5 12 29 15 54 3 25 11
79 18 120 16 97 16 306 -1 395 -7 39 -15 93 -18 120 -2 28 -9 54 -14 60 -5 5
-9 26 -9 47 0 21 -4 38 -10 38 -5 0 -10 10 -10 22 0 21 -16 79 -30 108 -3 8
-13 36 -21 63 -7 26 -17 47 -21 47 -4 0 -8 7 -8 15 0 17 -101 219 -112 223 -4
2 -8 9 -8 16 0 7 -8 21 -17 32 -10 10 -24 31 -32 47 -8 15 -18 27 -23 27 -4 0
-8 6 -8 14 0 7 -12 26 -28 42 -15 16 -38 45 -52 64 -33 46 -195 208 -240 240
-19 13 -42 32 -51 42 -9 10 -20 18 -25 18 -5 0 -25 14 -44 30 -19 16 -41 30
-47 30 -7 0 -13 4 -13 9 0 5 -13 14 -30 21 -16 7 -30 16 -30 21 0 5 -9 9 -19
9 -11 0 -21 3 -23 8 -4 10 -128 72 -144 72 -8 0 -14 5 -14 10 0 6 -7 10 -15
10 -8 0 -24 5 -35 10 -11 5 -29 14 -40 20 -11 5 -29 10 -39 10 -11 0 -23 5
-26 10 -3 6 -17 10 -30 10 -13 0 -26 4 -29 9 -3 5 -20 11 -38 14 -18 4 -49 9
-68 12 -19 4 -44 10 -55 15 -11 5 -42 11 -70 14 -211 22 -252 26 -270 29 -11
2 -72 -2 -135 -9z m385 -382 c28 -6 68 -15 90 -21 22 -6 54 -13 70 -17 17 -4
35 -10 40 -14 6 -4 31 -13 58 -21 26 -7 47 -17 47 -21 0 -4 6 -8 14 -8 16 0
140 -62 144 -72 2 -5 12 -8 23 -8 10 0 19 -4 19 -8 0 -5 12 -15 28 -23 15 -8
34 -22 43 -31 9 -10 21 -18 26 -18 6 0 23 -12 39 -27 16 -16 45 -40 64 -54 50
-37 89 -76 140 -139 25 -30 50 -61 57 -68 7 -7 20 -26 30 -42 9 -17 21 -30 25
-30 4 0 8 -6 8 -13 0 -7 9 -23 20 -35 11 -12 20 -28 20 -37 0 -8 4 -15 8 -15
4 0 27 -42 51 -92 23 -51 47 -101 52 -110 5 -10 9 -27 9 -38 0 -11 5 -20 10
-20 6 0 10 -13 10 -30 0 -16 5 -30 10 -30 6 0 10 -18 10 -40 0 -22 4 -40 9
-40 10 0 17 -46 30 -215 13 -153 -6 -444 -30 -469 -5 -6 -9 -25 -9 -42 0 -18
-4 -36 -10 -39 -5 -3 -10 -17 -10 -30 0 -13 -4 -27 -10 -30 -5 -3 -10 -17 -10
-31 0 -13 -4 -24 -10 -24 -5 0 -10 -8 -10 -19 0 -20 -90 -201 -110 -221 -3 -3
-11 -17 -19 -32 -8 -16 -18 -28 -23 -28 -4 0 -8 -6 -8 -13 0 -7 -16 -30 -35
-51 -19 -21 -35 -42 -35 -47 0 -11 -200 -209 -211 -209 -5 0 -23 -13 -41 -30
-17 -16 -35 -30 -40 -30 -5 0 -18 -9 -30 -20 -12 -11 -28 -20 -35 -20 -7 0
-13 -4 -13 -10 0 -5 -6 -10 -13 -10 -7 0 -23 -9 -35 -20 -12 -11 -28 -20 -37
-20 -8 0 -15 -4 -15 -10 0 -5 -7 -10 -15 -10 -8 0 -30 -9 -50 -20 -20 -11 -44
-20 -55 -20 -11 0 -20 -4 -20 -10 0 -5 -11 -10 -24 -10 -14 0 -28 -4 -31 -10
-3 -5 -17 -10 -30 -10 -13 0 -26 -4 -29 -9 -3 -5 -20 -11 -38 -14 -18 -4 -58
-11 -88 -17 -57 -11 -255 -33 -300 -32 -92 1 -332 31 -345 43 -5 5 -24 9 -41
9 -18 0 -36 4 -39 10 -3 5 -17 10 -30 10 -13 0 -27 5 -30 10 -3 6 -17 10 -31
10 -13 0 -24 5 -24 10 0 6 -8 10 -17 10 -10 0 -54 19 -98 41 -44 23 -90 46
-102 53 -13 6 -23 14 -23 19 0 4 -6 7 -12 7 -7 0 -29 14 -48 30 -19 16 -39 30
-44 30 -5 0 -16 8 -25 18 -9 9 -33 30 -55 46 -49 37 -135 123 -172 172 -16 22
-37 46 -46 55 -10 9 -18 21 -18 26 0 5 -8 18 -17 29 -10 10 -24 31 -32 47 -8
15 -18 27 -23 27 -4 0 -8 9 -8 19 0 11 -4 21 -8 23 -12 4 -88 162 -104 216 -7
23 -16 42 -20 42 -5 0 -8 13 -8 29 0 17 -5 33 -10 36 -6 3 -10 21 -10 39 0 17
-4 36 -9 42 -21 22 -39 290 -29 446 7 117 12 155 29 223 6 22 15 58 21 80 11
41 24 77 39 107 5 10 9 27 9 38 0 11 5 20 10 20 6 0 10 9 10 20 0 11 5 20 10
20 6 0 10 9 10 20 0 11 5 20 10 20 6 0 10 7 10 15 0 14 18 53 30 65 3 3 10 14
16 25 31 56 40 71 55 85 9 8 21 25 28 38 31 59 287 312 316 312 6 0 17 9 25
20 8 11 20 20 28 20 7 0 22 9 34 20 12 11 28 20 35 20 7 0 13 5 13 10 0 6 9
10 20 10 11 0 20 5 20 10 0 6 9 10 20 10 11 0 20 5 20 10 0 6 9 10 20 10 11 0
20 5 20 10 0 6 9 10 20 10 11 0 20 5 20 10 0 6 9 10 20 10 11 0 28 4 38 9 31
16 66 29 112 41 25 6 59 16 76 21 17 5 46 9 65 9 19 0 41 5 49 10 20 13 428 6
495 -8z"/>
<path d="M1960 3350 c0 -5 -9 -10 -20 -10 -11 0 -20 -3 -20 -8 0 -4 -10 -12
-22 -17 -13 -6 -27 -20 -33 -32 -5 -13 -13 -23 -17 -23 -5 0 -8 -9 -8 -20 0
-11 -4 -20 -9 -20 -5 0 -12 -26 -15 -57 -4 -32 -10 -77 -13 -100 l-5 -43 -23
0 c-13 0 -27 -4 -30 -10 -3 -5 -19 -10 -36 -10 -16 0 -29 -4 -29 -10 0 -5 -11
-10 -24 -10 -14 0 -28 -4 -31 -10 -3 -5 -15 -10 -26 -10 -10 0 -19 -4 -19 -10
0 -5 -9 -10 -20 -10 -11 0 -20 -4 -20 -10 0 -5 -9 -10 -20 -10 -11 0 -20 -4
-20 -10 0 -5 -8 -10 -18 -10 -10 0 -24 -9 -32 -20 -8 -11 -21 -20 -29 -20 -7
0 -21 -8 -30 -18 -9 -10 -32 -29 -51 -42 -45 -32 -108 -95 -140 -140 -13 -19
-31 -42 -40 -50 -8 -8 -21 -27 -29 -42 -8 -16 -18 -28 -23 -28 -4 0 -8 -9 -8
-20 0 -11 -3 -20 -7 -20 -9 0 -33 -49 -33 -67 0 -7 -4 -13 -10 -13 -5 0 -10
-9 -10 -20 0 -11 -4 -20 -10 -20 -5 0 -10 -13 -10 -30 0 -16 -4 -30 -10 -30
-5 0 -10 -13 -10 -29 0 -17 -4 -32 -9 -35 -9 -6 -18 -51 -27 -143 l-6 -53 -45
0 c-108 0 -171 -89 -110 -156 18 -19 37 -26 87 -32 l65 -7 8 -40 c5 -22 11
-59 14 -82 3 -24 9 -43 14 -43 5 0 9 -13 9 -29 0 -17 5 -33 10 -36 6 -3 10
-17 10 -31 0 -13 5 -24 10 -24 6 0 10 -6 10 -14 0 -17 42 -100 52 -104 5 -2 8
-10 8 -18 0 -8 9 -24 20 -36 11 -12 20 -28 20 -35 0 -7 4 -13 8 -13 4 0 16
-14 26 -30 22 -38 139 -157 186 -190 19 -13 44 -32 54 -42 11 -10 25 -18 32
-18 7 0 14 -4 16 -8 4 -11 127 -72 144 -72 8 0 14 -3 14 -8 0 -4 36 -18 79
-32 l79 -24 6 -36 c4 -19 10 -60 15 -90 4 -30 13 -67 19 -82 15 -36 90 -108
113 -108 10 0 21 -4 24 -10 15 -25 136 -4 179 30 69 56 86 94 103 243 3 27 10
50 17 52 78 21 104 29 124 36 12 5 32 13 45 18 12 4 42 18 67 31 25 13 55 28
67 34 13 6 23 14 23 19 0 4 6 7 13 7 6 0 28 14 47 30 19 16 39 30 43 30 11 0
197 190 197 201 0 6 9 19 20 31 11 12 20 28 20 35 0 7 3 13 8 13 7 0 64 108
83 158 5 12 13 32 18 45 5 12 14 42 21 67 6 25 16 59 21 76 5 17 9 45 9 62 0
34 1 35 90 47 57 8 90 38 90 82 0 19 -5 43 -10 54 -14 26 -78 51 -115 46 -48
-7 -55 0 -55 58 0 30 -4 57 -10 60 -5 3 -10 22 -10 41 0 19 -4 42 -9 52 -5 9
-15 38 -23 65 -7 26 -16 47 -20 47 -4 0 -8 6 -8 14 0 17 -42 100 -52 104 -5 2
-8 12 -8 23 0 10 -4 19 -8 19 -5 0 -15 12 -23 28 -8 15 -22 34 -31 43 -10 9
-18 21 -18 27 0 13 -145 162 -158 162 -5 0 -22 12 -38 28 -16 15 -42 33 -57
41 -15 8 -27 18 -27 23 0 4 -9 8 -20 8 -11 0 -20 5 -20 10 0 6 -9 10 -20 10
-11 0 -20 5 -20 10 0 6 -9 10 -20 10 -11 0 -20 5 -20 10 0 6 -9 10 -20 10 -11
0 -20 5 -20 10 0 6 -13 10 -30 10 -16 0 -30 5 -30 10 0 6 -10 10 -23 10 -13 0
-35 6 -49 12 -27 13 -30 22 -44 156 -3 28 -10 52 -15 52 -5 0 -9 9 -9 20 0 11
-3 20 -8 20 -4 0 -12 10 -17 23 -6 12 -20 26 -32 32 -13 5 -23 13 -23 17 0 5
-9 8 -20 8 -11 0 -20 5 -20 10 0 6 -30 10 -70 10 -40 0 -70 -4 -70 -10z m-199
-534 c4 -5 -2 -68 -22 -216 -5 -41 -12 -102 -15 -135 l-6 -60 -49 -47 c-27
-26 -49 -51 -49 -56 0 -4 -8 -17 -18 -28 -15 -17 -51 -85 -73 -139 -14 -36
-22 -89 -21 -155 1 -84 12 -160 23 -160 5 0 9 -9 9 -19 0 -23 40 -101 52 -101
4 0 8 -6 8 -14 0 -8 22 -37 49 -64 l49 -50 6 -59 c3 -32 10 -92 16 -133 6 -41
13 -104 16 -140 3 -36 10 -69 15 -74 16 -18 10 -26 -21 -26 -16 0 -30 5 -30
10 0 6 -6 10 -14 10 -17 0 -100 42 -104 53 -2 4 -12 7 -23 7 -10 0 -19 4 -19
8 0 5 -12 15 -27 23 -32 16 -213 195 -213 210 0 6 -9 19 -20 31 -11 12 -20 28
-20 35 0 7 -4 13 -10 13 -5 0 -10 9 -10 20 0 11 -4 20 -10 20 -5 0 -10 9 -10
20 0 11 -4 20 -10 20 -5 0 -10 9 -10 19 0 11 -4 23 -10 26 -5 3 -10 17 -10 30
0 13 -4 26 -9 29 -8 5 -18 52 -24 116 l-2 25 60 7 c76 10 97 30 97 91 0 26 -6
53 -14 60 -19 18 -90 40 -119 35 l-24 -3 2 45 c2 62 13 119 24 126 5 3 9 16 9
29 0 13 5 27 10 30 6 3 10 17 10 31 0 13 5 24 10 24 6 0 10 9 10 20 0 11 5 20
10 20 6 0 10 7 10 15 0 9 9 25 20 37 11 12 20 28 20 35 0 7 4 13 8 13 4 0 16
14 26 30 24 41 144 161 179 179 15 8 27 18 27 21 0 4 14 13 30 20 17 7 30 16
30 21 0 5 9 9 20 9 11 0 20 5 20 10 0 6 9 10 20 10 11 0 20 4 20 8 0 14 90 38
101 28z m597 -13 c12 -3 22 -9 22 -14 0 -5 9 -9 20 -9 11 0 20 -4 20 -10 0 -5
9 -10 20 -10 11 0 20 -4 20 -10 0 -5 6 -10 13 -10 7 0 23 -9 35 -20 12 -11 26
-20 31 -20 13 0 201 -188 201 -201 0 -5 9 -19 20 -31 11 -12 20 -28 20 -35 0
-7 5 -13 10 -13 6 0 10 -9 10 -20 0 -11 5 -20 10 -20 6 0 10 -9 10 -20 0 -11
5 -20 10 -20 6 0 10 -9 10 -19 0 -11 5 -23 10 -26 6 -3 10 -17 10 -30 0 -13 5
-27 10 -30 6 -3 10 -21 10 -39 0 -17 5 -37 11 -43 5 -5 9 -30 7 -54 l-3 -44
-28 3 c-32 4 -82 -13 -109 -36 -20 -17 -24 -81 -8 -112 12 -22 61 -40 111 -40
l39 0 0 -34 c0 -19 -4 -38 -10 -41 -5 -3 -10 -22 -10 -41 0 -19 -4 -34 -10
-34 -5 0 -10 -13 -10 -30 0 -16 -4 -30 -10 -30 -5 0 -10 -6 -10 -14 0 -19 -60
-136 -82 -160 -10 -11 -18 -24 -18 -29 0 -14 -182 -190 -212 -206 -16 -8 -28
-18 -28 -23 0 -4 -5 -8 -11 -8 -6 0 -23 -8 -37 -19 -15 -10 -45 -24 -67 -32
-22 -8 -42 -17 -45 -20 -3 -3 -18 -9 -33 -13 l-29 -7 6 68 c3 37 10 102 16
143 6 41 13 98 16 125 8 83 12 93 67 148 28 29 58 65 66 80 8 15 18 27 23 27
4 0 8 9 8 20 0 11 5 20 10 20 6 0 10 11 10 24 0 14 4 27 9 30 21 13 40 231 22
249 -6 6 -11 26 -11 44 0 18 -4 33 -10 33 -5 0 -10 9 -10 19 0 23 -40 101 -52
101 -4 0 -8 6 -8 13 0 8 -20 35 -45 62 -47 49 -51 59 -59 140 -6 55 -22 174
-30 220 -3 17 -7 52 -9 78 l-5 49 22 -7 c11 -4 31 -9 44 -12z m-255 -500 c20
-3 37 -10 37 -14 0 -5 9 -9 20 -9 11 0 20 -4 20 -10 0 -5 7 -10 15 -10 23 0
97 -79 121 -130 45 -94 53 -155 30 -231 -22 -72 -44 -108 -98 -161 -91 -88
-211 -119 -318 -82 -128 45 -207 132 -239 267 -8 36 -8 63 1 112 7 36 16 65
20 65 5 0 8 9 8 20 0 11 5 20 10 20 6 0 10 6 10 13 0 20 85 107 104 107 9 0
16 5 16 10 0 6 9 10 20 10 11 0 20 5 20 10 0 6 15 10 33 11 17 0 41 4 52 9 11
5 34 7 50 4 17 -3 47 -8 68 -11z m-90 -841 c47 -2 83 1 91 7 17 14 42 -12 29
-31 -4 -7 -11 -44 -16 -83 -7 -68 -15 -131 -37 -285 -6 -41 -15 -106 -20 -145
-13 -106 -21 -136 -36 -142 -24 -9 -42 16 -48 65 -4 26 -11 79 -16 117 -6 39
-15 104 -20 145 -6 41 -15 108 -20 148 -17 124 -25 213 -21 218 3 3 12 1 20
-3 9 -4 51 -9 94 -11z"/>
</g>
</svg>
