<?xml version="1.0" encoding="UTF-8" standalone="no"?>
<!-- Generator: Adobe Illustrator 16.0.0, SVG Export Plug-In . SVG Version: 6.00 Build 0)  -->

<svg
   xmlns:dc="http://purl.org/dc/elements/1.1/"
   xmlns:cc="http://creativecommons.org/ns#"
   xmlns:rdf="http://www.w3.org/1999/02/22-rdf-syntax-ns#"
   xmlns:svg="http://www.w3.org/2000/svg"
   xmlns="http://www.w3.org/2000/svg"
   xmlns:sodipodi="http://sodipodi.sourceforge.net/DTD/sodipodi-0.dtd"
   xmlns:inkscape="http://www.inkscape.org/namespaces/inkscape"
   version="1.1"
   id="Layer_1"
   x="0px"
   y="0px"
   width="30"
   height="30"
   viewBox="-105.5 -35.5 30 30"
   enable-background="new -105.5 -35.5 50 50"
   xml:space="preserve"
   inkscape:version="0.91 r13725"
   sodipodi:docname="mac.svg"><metadata
     id="metadata9"><rdf:RDF><cc:Work
         rdf:about=""><dc:format>image/svg+xml</dc:format><dc:type
           rdf:resource="http://purl.org/dc/dcmitype/StillImage" /><dc:title></dc:title></cc:Work></rdf:RDF></metadata><defs
     id="defs7" /><sodipodi:namedview
     pagecolor="#ffffff"
     bordercolor="#666666"
     borderopacity="1"
     objecttolerance="10"
     gridtolerance="10"
     guidetolerance="10"
     inkscape:pageopacity="0"
     inkscape:pageshadow="2"
     inkscape:window-width="1366"
     inkscape:window-height="705"
     id="namedview5"
     showgrid="false"
     inkscape:zoom="4.72"
     inkscape:cx="25"
     inkscape:cy="25"
     inkscape:window-x="-8"
     inkscape:window-y="-8"
     inkscape:window-maximized="1"
     inkscape:current-layer="Layer_1" /><path
     d="m -79.66719,-30.810085 -20.81586,0 c -0.55074,0 -0.99651,0.479883 -0.99651,1.072765 l 0,14.300682 c 0,0.592881 0.44577,1.072766 0.99651,1.072766 l 6.240179,0 -1.395788,3.289099 c -0.09378,0.221706 -0.07698,0.479169 0.04526,0.683709 0.122233,0.205256 0.332847,0.328267 0.558715,0.328267 l 9.918647,0 c 0.225876,0 0.436472,-0.123728 0.558711,-0.328267 0.122233,-0.20454 0.138839,-0.462003 0.04516,-0.683709 l -1.395783,-3.289099 6.240171,0 c 0.550742,0 0.996515,-0.479885 0.996515,-1.072766 l 0,-14.300682 c 6.65e-4,-0.592882 -0.445773,-1.072765 -0.995849,-1.072765 z m -10.408261,0.600748 c 0.285668,0 0.518189,0.249597 0.518189,0.557124 0,0.307526 -0.232521,0.557838 -0.518189,0.557838 -0.285666,0 -0.518187,-0.250312 -0.518187,-0.557838 0,-0.307527 0.232521,-0.557124 0.518187,-0.557124 z m 9.411746,13.699934 -18.822826,0 0,-12.039291 18.822826,0 0,12.039291 z"
     id="path3"
     inkscape:connector-curvature="0"
     style="fill:#333333" /></svg>