<?xml version="1.0" standalone="no"?>
<!DOCTYPE svg PUBLIC "-//W3C//DTD SVG 20010904//EN"
 "http://www.w3.org/TR/2001/REC-SVG-20010904/DTD/svg10.dtd">
<svg version="1.0" xmlns="http://www.w3.org/2000/svg"
 width="383.784899pt" height="383.736435pt" viewBox="0 0 383.784899 383.736435"
 preserveAspectRatio="xMidYMid meet">
<metadata>
Created by Potrace Professional 1.0-eval
</metadata>
<g transform="translate(-9.679881,391.494380) rotate(-360.00) scale(0.100000,-0.100000)"
fill="#000000" stroke="none">
<path d="M1945 3897 c-33 -12 -69 -30 -79 -39 -11 -10 -24 -18 -29 -18 -13 0
-57 -52 -57 -67 0 -7 -4 -13 -10 -13 -5 0 -10 -9 -10 -20 0 -11 -4 -20 -9 -20
-10 0 -19 -52 -27 -160 l-6 -75 -26 -13 c-14 -6 -38 -12 -53 -12 -15 0 -31 -4
-34 -10 -3 -5 -19 -10 -36 -10 -16 0 -29 -4 -29 -10 0 -5 -9 -10 -20 -10 -11
0 -28 -4 -38 -9 -9 -5 -66 -32 -127 -61 -60 -29 -112 -56 -115 -59 -3 -3 -17
-12 -32 -20 -16 -8 -28 -18 -28 -23 0 -4 -6 -8 -14 -8 -7 0 -26 -12 -42 -28
-16 -15 -45 -38 -64 -52 -46 -32 -168 -155 -200 -200 -13 -19 -31 -42 -40 -50
-8 -8 -21 -27 -29 -42 -8 -16 -18 -28 -21 -28 -4 0 -13 -13 -20 -30 -7 -16
-16 -30 -21 -30 -5 0 -9 -9 -9 -19 0 -11 -3 -21 -7 -23 -11 -4 -73 -128 -73
-144 0 -7 -3 -14 -8 -16 -9 -4 -72 -189 -72 -212 0 -8 -5 -26 -11 -40 l-12
-25 -81 -4 c-100 -6 -156 -16 -156 -28 0 -5 -9 -9 -20 -9 -11 0 -20 -4 -20 -9
0 -5 -12 -14 -27 -20 -31 -13 -93 -100 -93 -131 0 -11 -4 -20 -8 -20 -5 0 -15
-18 -22 -40 l-13 -40 13 -40 c7 -22 17 -40 22 -40 4 0 8 -9 8 -20 0 -31 62
-118 93 -131 15 -6 27 -15 27 -20 0 -5 9 -9 20 -9 11 0 20 -4 20 -9 0 -12 56
-22 156 -28 l81 -4 12 -25 c6 -14 11 -32 11 -41 0 -17 17 -77 30 -103 3 -8 13
-36 21 -62 7 -27 17 -48 21 -48 4 0 8 -6 8 -14 0 -16 62 -140 73 -144 4 -2 7
-12 7 -23 0 -10 5 -19 10 -19 6 0 10 -6 10 -12 0 -7 14 -29 30 -48 16 -19 30
-38 30 -43 0 -4 14 -21 30 -39 17 -17 30 -35 30 -40 0 -12 209 -218 221 -218
5 0 23 -13 41 -30 17 -16 37 -30 44 -30 8 0 14 -4 14 -8 0 -5 12 -15 28 -23
15 -8 29 -16 32 -19 9 -9 65 -40 120 -66 30 -14 63 -30 72 -35 10 -5 25 -9 33
-9 8 0 15 -4 15 -10 0 -5 11 -10 24 -10 14 0 28 -5 31 -10 3 -6 19 -10 36 -10
16 0 29 -4 29 -10 0 -5 15 -10 34 -10 19 0 38 -5 41 -10 3 -6 14 -10 25 -10
l18 0 6 -78 c8 -110 17 -162 27 -162 5 0 9 -9 9 -20 0 -11 5 -20 10 -20 6 0
10 -6 10 -12 0 -16 44 -68 57 -68 5 0 18 -8 29 -18 10 -9 50 -28 87 -41 l68
-23 45 12 c24 7 47 17 50 21 3 5 14 9 25 9 10 0 19 5 19 10 0 6 6 10 13 10 7
0 29 15 48 32 66 63 99 149 99 263 l0 80 40 13 c22 6 47 12 55 12 8 0 23 4 33
9 9 5 38 15 65 23 26 7 47 16 47 20 0 4 11 8 24 8 14 0 28 5 31 10 3 6 15 10
26 10 10 0 19 5 19 10 0 6 9 10 20 10 11 0 20 5 20 10 0 6 9 10 20 10 11 0 20
4 20 9 0 5 8 11 18 14 22 7 71 37 96 60 11 9 25 17 31 17 6 0 17 9 25 20 8 11
20 20 27 20 17 0 283 266 283 283 0 7 9 19 20 27 11 8 20 19 20 25 0 6 8 20
18 31 22 25 52 74 59 97 3 9 9 17 14 17 5 0 9 9 9 20 0 11 5 20 10 20 6 0 10
9 10 20 0 11 5 20 10 20 6 0 10 9 10 20 0 11 5 20 10 20 6 0 10 9 10 20 0 11
4 28 9 38 24 47 51 131 51 160 0 11 5 24 10 27 6 3 10 17 10 31 l0 24 70 0
c76 0 163 19 212 47 43 24 98 79 98 98 0 8 5 15 10 15 6 0 10 9 10 20 0 11 4
20 8 20 5 0 14 23 20 50 9 38 9 62 0 100 -6 28 -15 50 -20 50 -4 0 -8 9 -8 20
0 11 -4 20 -10 20 -5 0 -10 7 -10 15 0 19 -55 74 -98 98 -49 28 -136 47 -212
47 l-70 0 0 24 c0 14 -4 28 -10 31 -5 3 -10 16 -10 27 0 33 -38 145 -71 210
-5 10 -9 25 -9 33 0 8 -4 15 -10 15 -5 0 -10 9 -10 20 0 11 -4 20 -10 20 -5 0
-10 9 -10 20 0 11 -4 20 -9 20 -5 0 -11 8 -14 18 -7 22 -37 71 -59 96 -10 11
-18 23 -18 28 0 4 -13 22 -30 40 -17 17 -30 35 -30 40 0 12 -198 208 -240 238
-19 13 -42 31 -50 40 -8 8 -27 21 -42 29 -16 8 -28 18 -28 23 0 4 -9 8 -20 8
-11 0 -20 3 -20 8 0 4 -39 27 -87 51 -49 24 -96 47 -105 52 -10 5 -25 9 -33 9
-8 0 -15 5 -15 10 0 6 -13 10 -30 10 -16 0 -30 5 -30 10 0 6 -13 10 -30 10
-16 0 -30 5 -30 10 0 6 -15 10 -33 10 -18 0 -45 6 -60 13 l-27 12 0 80 c0 114
-33 200 -99 263 -19 17 -41 32 -48 32 -7 0 -13 5 -13 10 0 6 -6 10 -13 10 -8
0 -28 7 -45 16 -51 25 -92 25 -157 1z m-218 -808 c5 -73 15 -129 24 -129 5 0
9 -7 9 -15 0 -28 78 -112 126 -134 16 -7 37 -17 46 -22 24 -12 165 -11 173 1
3 6 17 10 31 10 13 0 24 4 24 8 0 5 12 15 28 23 32 16 72 59 72 77 0 6 4 12 9
12 5 0 11 8 14 18 4 9 13 35 21 57 9 22 16 61 16 87 l0 47 38 -6 c20 -3 39
-10 40 -15 2 -4 14 -8 27 -8 13 0 27 -4 30 -10 3 -5 15 -10 26 -10 10 0 19 -4
19 -10 0 -5 9 -10 20 -10 11 0 20 -4 20 -10 0 -5 9 -10 20 -10 11 0 20 -4 20
-10 0 -5 7 -10 15 -10 9 0 25 -9 37 -20 12 -11 28 -20 35 -20 7 0 13 -4 13 -8
0 -5 12 -15 27 -23 29 -15 105 -82 157 -138 17 -19 48 -52 69 -73 20 -22 37
-43 37 -47 0 -4 11 -21 25 -37 14 -16 25 -35 25 -41 0 -7 5 -13 10 -13 6 0 10
-9 10 -19 0 -11 3 -21 8 -23 10 -4 52 -87 52 -104 0 -8 5 -14 10 -14 6 0 10
-11 10 -24 0 -14 5 -28 10 -31 6 -3 10 -17 10 -30 0 -13 5 -27 10 -30 22 -13
8 -23 -42 -29 -93 -11 -128 -18 -128 -27 0 -5 -7 -9 -15 -9 -32 0 -106 -75
-134 -135 -7 -17 -17 -38 -22 -47 -5 -10 -9 -45 -9 -78 0 -33 4 -68 9 -78 5
-9 15 -30 22 -47 28 -60 102 -135 134 -135 8 0 15 -4 15 -9 0 -9 35 -16 128
-27 50 -6 64 -16 42 -29 -5 -3 -10 -17 -10 -30 0 -13 -4 -27 -10 -30 -5 -3
-10 -17 -10 -31 0 -13 -4 -24 -10 -24 -5 0 -10 -6 -10 -14 0 -12 -59 -135 -70
-146 -3 -3 -11 -17 -19 -32 -8 -16 -18 -28 -23 -28 -4 0 -8 -6 -8 -13 0 -30
-209 -245 -272 -278 -12 -6 -31 -20 -42 -30 -11 -11 -26 -19 -33 -19 -7 0 -13
-4 -13 -10 0 -5 -9 -10 -20 -10 -11 0 -20 -3 -20 -7 0 -9 -49 -33 -67 -33 -7
0 -13 -4 -13 -10 0 -5 -9 -10 -20 -10 -11 0 -20 -4 -20 -10 0 -5 -13 -10 -30
-10 -16 0 -30 -4 -30 -10 0 -5 -13 -10 -30 -10 -16 0 -30 -4 -30 -10 0 -5 -4
-10 -10 -10 -5 0 -10 24 -10 53 0 28 -7 70 -16 92 -8 22 -17 48 -21 57 -3 10
-9 18 -14 18 -5 0 -9 6 -9 13 0 17 -40 60 -72 76 -16 8 -28 18 -28 23 0 4 -11
8 -24 8 -14 0 -28 5 -31 10 -8 12 -149 13 -173 1 -9 -5 -30 -15 -46 -22 -48
-22 -126 -106 -126 -134 0 -8 -4 -15 -9 -15 -5 0 -12 -21 -15 -47 -4 -27 -8
-61 -10 -78 -3 -16 -5 -37 -5 -44 -1 -12 -4 -12 -13 -3 -7 7 -25 12 -40 12
-15 0 -28 4 -28 8 0 5 -22 15 -50 22 -27 7 -50 17 -50 22 0 4 -9 8 -20 8 -11
0 -20 5 -20 10 0 6 -9 10 -20 10 -11 0 -20 5 -20 10 0 6 -6 10 -13 10 -7 0
-23 9 -35 20 -12 11 -27 20 -34 20 -8 0 -20 9 -28 20 -8 11 -20 20 -26 20 -14
0 -224 204 -224 217 0 4 -14 24 -30 43 -16 19 -30 41 -30 48 0 6 -4 12 -8 12
-4 0 -19 22 -33 50 -13 27 -27 50 -31 50 -5 0 -8 7 -8 15 0 8 -4 23 -9 33 -19
38 -61 152 -61 166 0 2 21 6 48 9 69 7 102 16 152 40 47 23 110 82 110 104 0
7 5 13 10 13 6 0 10 9 10 19 0 11 5 23 10 26 6 3 10 46 10 95 0 49 -4 92 -10
95 -5 3 -10 15 -10 26 0 10 -4 19 -10 19 -5 0 -10 6 -10 13 0 22 -63 81 -110
104 -50 24 -83 33 -152 40 l-48 5 6 26 c4 15 11 31 15 37 5 5 9 19 9 32 0 13
5 23 10 23 6 0 10 9 10 19 0 10 14 45 31 77 18 33 37 69 43 81 6 13 14 23 19
23 4 0 7 6 7 13 0 7 8 22 18 33 10 10 29 35 42 54 32 45 155 168 200 200 19
13 44 32 54 42 11 10 26 18 33 18 7 0 13 4 13 8 0 4 22 19 50 33 27 13 50 27
50 32 0 4 7 7 15 7 8 0 23 4 33 9 9 5 28 13 42 18 14 6 36 15 50 21 66 29 84
24 87 -19z"/>
<path d="M1870 2610 c-8 -5 -36 -14 -62 -22 -27 -7 -48 -16 -48 -20 0 -4 -9
-8 -20 -8 -11 0 -20 -4 -20 -10 0 -5 -6 -10 -13 -10 -7 0 -22 -8 -33 -18 -10
-10 -35 -28 -54 -42 -40 -28 -65 -54 -88 -92 -9 -16 -19 -28 -23 -28 -4 0 -12
-13 -19 -30 -7 -16 -16 -30 -21 -30 -5 0 -9 -9 -9 -20 0 -11 -4 -20 -10 -20
-5 0 -10 -11 -10 -24 0 -14 -4 -28 -10 -31 -5 -3 -10 -19 -10 -35 0 -16 -4
-32 -10 -35 -6 -4 -10 -62 -10 -141 0 -83 4 -134 10 -134 6 0 10 -13 10 -29 0
-17 5 -33 10 -36 6 -3 10 -17 10 -31 0 -13 5 -24 10 -24 6 0 10 -9 10 -20 0
-11 5 -20 10 -20 6 0 10 -6 10 -13 0 -7 8 -22 18 -33 10 -10 28 -35 42 -54 29
-42 90 -100 105 -100 6 0 17 -9 25 -20 8 -11 22 -20 32 -20 10 0 18 -4 18 -10
0 -5 9 -10 20 -10 11 0 20 -4 20 -10 0 -5 7 -10 15 -10 8 0 23 -4 33 -9 9 -5
34 -14 56 -21 49 -16 294 -16 309 -1 6 6 24 11 39 11 15 0 28 5 28 10 0 6 6
10 14 10 17 0 100 42 104 53 2 4 10 7 17 7 19 0 165 147 165 165 0 8 3 15 8
15 4 0 18 21 31 48 12 26 27 55 32 64 5 10 9 27 9 37 0 11 4 22 9 25 8 5 23
113 23 166 0 56 -15 160 -23 160 -5 0 -9 14 -9 30 0 17 -4 30 -10 30 -5 0 -10
6 -10 14 0 18 -40 96 -62 120 -10 11 -18 24 -18 28 0 13 -103 112 -133 127
-15 8 -27 18 -27 23 0 4 -9 8 -20 8 -11 0 -20 3 -20 8 0 8 -64 36 -141 61 -41
13 -287 14 -309 1z m263 -165 c20 -4 40 -11 43 -16 3 -5 14 -9 25 -9 10 0 19
-4 19 -10 0 -5 9 -10 20 -10 11 0 20 -4 20 -10 0 -5 6 -10 14 -10 19 0 126
-107 126 -125 0 -7 3 -15 8 -17 13 -6 52 -90 52 -113 0 -13 5 -27 10 -30 6 -3
10 -48 10 -101 0 -56 -4 -94 -10 -94 -5 0 -10 -13 -10 -29 0 -17 -4 -33 -10
-36 -5 -3 -10 -14 -10 -24 0 -9 -9 -27 -20 -39 -11 -12 -20 -26 -20 -32 0 -16
-110 -120 -126 -120 -8 0 -14 -3 -14 -7 0 -9 -49 -33 -67 -33 -7 0 -13 -4 -13
-9 0 -11 -52 -21 -145 -28 -65 -4 -124 5 -167 28 -10 5 -25 9 -33 9 -8 0 -15
5 -15 10 0 6 -9 10 -20 10 -11 0 -20 4 -20 8 0 4 -14 16 -31 26 -37 22 -89 75
-89 90 0 6 -9 18 -20 26 -11 8 -20 22 -20 32 0 10 -4 18 -10 18 -5 0 -10 9
-10 20 0 11 -4 28 -9 38 -18 34 -33 130 -27 168 4 21 9 56 12 77 4 20 10 40
15 43 5 3 9 16 9 30 0 13 5 24 10 24 6 0 10 6 10 13 1 34 153 186 188 187 6 0
12 4 12 8 0 4 21 13 48 20 26 7 58 17 72 22 26 9 128 6 193 -5z"/>
</g>
</svg>
