<?xml version="1.0" encoding="UTF-8" standalone="no"?>
<!-- Generator: Adobe Illustrator 16.0.0, SVG Export Plug-In . SVG Version: 6.00 Build 0)  -->

<svg
   xmlns:dc="http://purl.org/dc/elements/1.1/"
   xmlns:cc="http://creativecommons.org/ns#"
   xmlns:rdf="http://www.w3.org/1999/02/22-rdf-syntax-ns#"
   xmlns:svg="http://www.w3.org/2000/svg"
   xmlns="http://www.w3.org/2000/svg"
   xmlns:sodipodi="http://sodipodi.sourceforge.net/DTD/sodipodi-0.dtd"
   xmlns:inkscape="http://www.inkscape.org/namespaces/inkscape"
   version="1.1"
   id="Layer_1"
   x="0px"
   y="0px"
   width="30"
   height="30"
   viewBox="174.5 -245.5 30 30"
   enable-background="new 174.5 -245.5 50 50"
   xml:space="preserve"
   inkscape:version="0.91 r13725"
   sodipodi:docname="windows.svg"><metadata
     id="metadata9"><rdf:RDF><cc:Work
         rdf:about=""><dc:format>image/svg+xml</dc:format><dc:type
           rdf:resource="http://purl.org/dc/dcmitype/StillImage" /><dc:title></dc:title></cc:Work></rdf:RDF></metadata><defs
     id="defs7" /><sodipodi:namedview
     pagecolor="#ffffff"
     bordercolor="#666666"
     borderopacity="1"
     objecttolerance="10"
     gridtolerance="10"
     guidetolerance="10"
     inkscape:pageopacity="0"
     inkscape:pageshadow="2"
     inkscape:window-width="1366"
     inkscape:window-height="705"
     id="namedview5"
     showgrid="false"
     inkscape:zoom="4.72"
     inkscape:cx="25"
     inkscape:cy="24.807203"
     inkscape:window-x="-8"
     inkscape:window-y="-8"
     inkscape:window-maximized="1"
     inkscape:current-layer="Layer_1" /><path
     d="m 188.5144,-240.50986 0,6.53486 c 0,1.37501 -1.11517,2.4894 -2.4894,2.4894 l -6.53562,0 c -1.37423,0 -2.48938,-1.11439 -2.48938,-2.4894 l 0,-6.53486 c 0,-1.37499 1.11515,-2.49014 2.48938,-2.49014 l 6.53562,0 c 1.37501,0 2.4894,1.11515 2.4894,2.49014 z M 199.51062,-243 l -6.53562,0 c -1.37423,0 -2.4894,1.11515 -2.4894,2.49014 l 0,6.53486 c 0,1.37501 1.11517,2.4894 2.4894,2.4894 l 6.53562,0 c 1.37423,0 2.48938,-1.11439 2.48938,-2.4894 l 0,-6.53486 C 202,-241.88485 200.88485,-243 199.51062,-243 Z m -13.48562,13.4856 -6.53562,0 c -1.37423,0 -2.48938,1.11439 -2.48938,2.4894 l 0,6.53562 c 0,1.37423 1.11515,2.48938 2.48938,2.48938 l 6.53562,0 c 1.37423,0 2.4894,-1.11515 2.4894,-2.48938 l 0,-6.53562 c 0,-1.37501 -1.11439,-2.4894 -2.4894,-2.4894 z m 13.48562,0 -6.53562,0 c -1.37423,0 -2.4894,1.11439 -2.4894,2.4894 l 0,6.53562 c 0,1.37423 1.11517,2.48938 2.4894,2.48938 l 6.53562,0 c 1.37423,0 2.48938,-1.11515 2.48938,-2.48938 l 0,-6.53562 c 0,-1.37501 -1.11515,-2.4894 -2.48938,-2.4894 z"
     id="path3"
     inkscape:connector-curvature="0"
     style="fill:#333333" /></svg>